<?xml version="1.0" encoding="UTF-8" standalone="no"?>
<!-- Created with Inkscape (http://www.inkscape.org/) -->

<svg
   xmlns:dc="http://purl.org/dc/elements/1.1/"
   xmlns:cc="http://creativecommons.org/ns#"
   xmlns:rdf="http://www.w3.org/1999/02/22-rdf-syntax-ns#"
   xmlns:svg="http://www.w3.org/2000/svg"
   xmlns="http://www.w3.org/2000/svg"
   xmlns:xlink="http://www.w3.org/1999/xlink"
   xmlns:sodipodi="http://sodipodi.sourceforge.net/DTD/sodipodi-0.dtd"
   xmlns:inkscape="http://www.inkscape.org/namespaces/inkscape"
   width="744.09448819"
   height="1052.3622047"
   id="svg2"
   version="1.1"
   inkscape:version="0.48.1 r9760"
   sodipodi:docname="boof.svg">
  <defs
     id="defs4">
    <linearGradient
       inkscape:collect="always"
       id="linearGradient4770">
      <stop
         style="stop-color:#ffffff;stop-opacity:1;"
         offset="0"
         id="stop4772" />
      <stop
         style="stop-color:#ffffff;stop-opacity:0;"
         offset="1"
         id="stop4774" />
    </linearGradient>
    <linearGradient
       inkscape:collect="always"
       id="linearGradient4753">
      <stop
         style="stop-color:#ffffff;stop-opacity:1;"
         offset="0"
         id="stop4755" />
      <stop
         style="stop-color:#ffffff;stop-opacity:0;"
         offset="1"
         id="stop4757" />
    </linearGradient>
    <linearGradient
       inkscape:collect="always"
       id="linearGradient4732">
      <stop
         style="stop-color:#ffffff;stop-opacity:1;"
         offset="0"
         id="stop4734" />
      <stop
         style="stop-color:#ffffff;stop-opacity:0;"
         offset="1"
         id="stop4736" />
    </linearGradient>
    <linearGradient
       inkscape:collect="always"
       id="linearGradient4698">
      <stop
         style="stop-color:#ffffff;stop-opacity:1;"
         offset="0"
         id="stop4700" />
      <stop
         style="stop-color:#ffffff;stop-opacity:0;"
         offset="1"
         id="stop4702" />
    </linearGradient>
    <linearGradient
       inkscape:collect="always"
       id="linearGradient4523">
      <stop
         style="stop-color:#ffffff;stop-opacity:1;"
         offset="0"
         id="stop4525" />
      <stop
         style="stop-color:#ffffff;stop-opacity:0;"
         offset="1"
         id="stop4527" />
    </linearGradient>
    <linearGradient
       inkscape:collect="always"
       id="linearGradient3952">
      <stop
         style="stop-color:#ffffff;stop-opacity:1;"
         offset="0"
         id="stop3954" />
      <stop
         style="stop-color:#ffffff;stop-opacity:0;"
         offset="1"
         id="stop3956" />
    </linearGradient>
    <linearGradient
       id="linearGradient3913">
      <stop
         style="stop-color:#640000;stop-opacity:1;"
         offset="0"
         id="stop3915" />
      <stop
         id="stop3921"
         offset="0.43219149"
         style="stop-color:#ca0000;stop-opacity:1;" />
      <stop
         style="stop-color:#ff0000;stop-opacity:1;"
         offset="0.62616056"
         id="stop3923" />
      <stop
         style="stop-color:#640000;stop-opacity:1;"
         offset="1"
         id="stop3917" />
    </linearGradient>
    <filter
       inkscape:collect="always"
       id="filter4052">
      <feGaussianBlur
         inkscape:collect="always"
         stdDeviation="3.2480229"
         id="feGaussianBlur4054" />
    </filter>
    <linearGradient
       inkscape:collect="always"
       xlink:href="#linearGradient3913"
       id="linearGradient4067"
       gradientUnits="userSpaceOnUse"
       x1="278.78571"
       y1="781.02936"
       x2="475.92859"
       y2="953.75311" />
    <linearGradient
       inkscape:collect="always"
       xlink:href="#linearGradient3913"
       id="linearGradient4069"
       gradientUnits="userSpaceOnUse"
       gradientTransform="matrix(1,0.31233173,0,1,-628.57144,-154.31226)"
       x1="278.78571"
       y1="781.02936"
       x2="475.92859"
       y2="953.75311" />
    <filter
       inkscape:collect="always"
       id="filter3861">
      <feGaussianBlur
         inkscape:collect="always"
         stdDeviation="6.0490812"
         id="feGaussianBlur3863" />
    </filter>
    <filter
       inkscape:collect="always"
       id="filter3931">
      <feGaussianBlur
         inkscape:collect="always"
         stdDeviation="9.1374023"
         id="feGaussianBlur3933" />
    </filter>
    <filter
       inkscape:collect="always"
       id="filter4115">
      <feGaussianBlur
         inkscape:collect="always"
         stdDeviation="0.95614067"
         id="feGaussianBlur4117" />
    </filter>
    <filter
       inkscape:collect="always"
       id="filter4141"
       x="-0.043439898"
       width="1.0868798"
       y="-0.21019594"
       height="1.4203919">
      <feGaussianBlur
         inkscape:collect="always"
         stdDeviation="2.9156394"
         id="feGaussianBlur4143" />
    </filter>
    <filter
       inkscape:collect="always"
       id="filter4230"
       x="-0.04563267"
       width="1.0912653"
       y="-0.17054213"
       height="1.3410843">
      <feGaussianBlur
         inkscape:collect="always"
         stdDeviation="3.1143742"
         id="feGaussianBlur4232" />
    </filter>
    <filter
       inkscape:collect="always"
       id="filter4345">
      <feGaussianBlur
         inkscape:collect="always"
         stdDeviation="3.2041902"
         id="feGaussianBlur4347" />
    </filter>
    <filter
       inkscape:collect="always"
       id="filter4479"
       x="-0.14631042"
       width="1.2926208"
       y="-0.2338455"
       height="1.467691">
      <feGaussianBlur
         inkscape:collect="always"
         stdDeviation="7.2107412"
         id="feGaussianBlur4481" />
    </filter>
    <linearGradient
       inkscape:collect="always"
       xlink:href="#linearGradient3952"
       id="linearGradient4490"
       gradientUnits="userSpaceOnUse"
       x1="292.79086"
       y1="1111.317"
       x2="302.1095"
       y2="1073.5281" />
    <filter
       inkscape:collect="always"
       id="filter4657"
       x="-0.092175013"
       width="1.18435"
       y="-0.17188807"
       height="1.3437761">
      <feGaussianBlur
         inkscape:collect="always"
         stdDeviation="5.1046027"
         id="feGaussianBlur4659" />
    </filter>
    <linearGradient
       inkscape:collect="always"
       xlink:href="#linearGradient4698"
       id="linearGradient4704"
       x1="140.72147"
       y1="541.74268"
       x2="125.29678"
       y2="595.57922"
       gradientUnits="userSpaceOnUse"
       gradientTransform="translate(282.70879,-172.75905)" />
    <linearGradient
       inkscape:collect="always"
       xlink:href="#linearGradient4523"
       id="linearGradient4709"
       gradientUnits="userSpaceOnUse"
       x1="418.57147"
       y1="450.2193"
       x2="417.69116"
       y2="405.85632" />
    <linearGradient
       inkscape:collect="always"
       xlink:href="#linearGradient4732"
       id="linearGradient4738"
       x1="720.39203"
       y1="267.40961"
       x2="720.99451"
       y2="317.40961"
       gradientUnits="userSpaceOnUse" />
    <linearGradient
       inkscape:collect="always"
       xlink:href="#linearGradient4753"
       id="linearGradient4759"
       x1="395.91263"
       y1="262.05402"
       x2="395.91263"
       y2="313.20761"
       gradientUnits="userSpaceOnUse"
       gradientTransform="translate(5.6062352,11.445256)" />
    <linearGradient
       inkscape:collect="always"
       xlink:href="#linearGradient4770"
       id="linearGradient4776"
       x1="382.00061"
       y1="173.53429"
       x2="382.00061"
       y2="218.26782"
       gradientUnits="userSpaceOnUse" />
  </defs>
  <sodipodi:namedview
     id="base"
     pagecolor="#ffffff"
     bordercolor="#666666"
     borderopacity="1.0"
     inkscape:pageopacity="0.0"
     inkscape:pageshadow="2"
     inkscape:zoom="0.66"
     inkscape:cx="432.99617"
     inkscape:cy="664.63157"
     inkscape:document-units="px"
     inkscape:current-layer="layer1"
     showgrid="false"
     showguides="true"
     inkscape:guide-bbox="true"
     inkscape:window-width="1280"
     inkscape:window-height="966"
     inkscape:window-x="0"
     inkscape:window-y="0"
     inkscape:window-maximized="1" />
  <metadata
     id="metadata7">
    <rdf:RDF>
      <cc:Work
         rdf:about="">
        <dc:format>image/svg+xml</dc:format>
        <dc:type
           rdf:resource="http://purl.org/dc/dcmitype/StillImage" />
        <dc:title></dc:title>
      </cc:Work>
    </rdf:RDF>
  </metadata>
  <g
     inkscape:label="Layer 1"
     inkscape:groupmode="layer"
     id="layer1">
    <g
       transform="matrix(0.99469609,0.10285758,-0.10285758,0.99469609,-98.261553,154.79184)"
       id="g3037"
       style="font-size:175.48931885px;font-style:normal;font-variant:normal;font-weight:normal;font-stretch:normal;text-indent:0;text-align:start;text-decoration:none;line-height:125%;letter-spacing:0px;word-spacing:0px;text-transform:none;direction:ltr;block-progression:tb;writing-mode:lr-tb;text-anchor:start;color:#000000;fill:#000000;fill-opacity:1;fill-rule:nonzero;stroke:none;stroke-width:1px;marker:none;visibility:visible;display:inline;overflow:visible;enable-background:accumulate;font-family:GrilledCheese BTN Out;-inkscape-font-specification:GrilledCheese BTN Out" />
    <g
       style="font-size:175.48931885px;font-style:normal;font-variant:normal;font-weight:normal;font-stretch:normal;text-indent:0;text-align:start;text-decoration:none;line-height:125%;letter-spacing:0px;word-spacing:0px;text-transform:none;direction:ltr;block-progression:tb;writing-mode:lr-tb;text-anchor:start;color:#000000;fill:#000000;fill-opacity:1;fill-rule:nonzero;stroke:none;stroke-width:1px;marker:none;visibility:visible;display:inline;overflow:visible;enable-background:accumulate;font-family:GrilledCheese BTN Out;-inkscape-font-specification:GrilledCheese BTN Out"
       id="g3829"
       transform="matrix(0.99469609,0.10285758,-0.10285758,0.99469609,-98.261553,546.72953)" />
    <path
       style="fill:#000000;fill-opacity:1;fill-rule:nonzero;stroke:#000000;stroke-width:0.99999994;stroke-linecap:round;stroke-linejoin:round;stroke-miterlimit:4;stroke-opacity:1;stroke-dasharray:none;stroke-dashoffset:0;filter:url(#filter3931)"
       d="m 302.31624,67.976506 c -43.09609,-0.056 -80.34728,14.9678 -107.03125,41.750004 -38.9582,26.64852 -63.0625,72.81615 -63.0625,132.15625 0,118.39727 95.97773,244.36453 214.375,281.34375 69.74986,21.7851 131.69465,7.82216 170.84375,-31.53125 38.91627,-26.65608 63,-72.7899 63,-132.09375 0,-118.39727 -95.97774,-244.36453 -214.375,-281.343754 -22.19949,-6.93361 -43.61164,-10.25508 -63.75,-10.28125 z"
       id="path3867"
       inkscape:connector-curvature="0"
       inkscape:export-filename="/home/forfolias/boof.png"
       inkscape:export-xdpi="299.95944"
       inkscape:export-ydpi="299.95944" />
    <g
       id="g4056"
       transform="matrix(1.6223141,0,0,1.6223141,767.24954,-1048.9748)"
       inkscape:export-filename="/home/forfolias/boof.png"
       inkscape:export-xdpi="299.95944"
       inkscape:export-ydpi="299.95944">
      <path
         transform="matrix(1,0.31233173,0,1,-628.57143,-154.31226)"
         d="m 505,872.36218 c 0,72.98049 -59.16237,132.14282 -132.14285,132.14282 -72.98049,0 -132.14286,-59.16233 -132.14286,-132.14282 0,-72.98048 59.16237,-132.14285 132.14286,-132.14285 C 445.83763,740.21933 505,799.3817 505,872.36218 z"
         sodipodi:ry="132.14285"
         sodipodi:rx="132.14285"
         sodipodi:cy="872.36218"
         sodipodi:cx="372.85715"
         id="path3909"
         style="fill:url(#linearGradient4067);fill-opacity:1;fill-rule:nonzero;stroke:#000000;stroke-width:0.6164034;stroke-linecap:round;stroke-linejoin:round;stroke-miterlimit:4;stroke-opacity:1;stroke-dasharray:none;stroke-dashoffset:0"
         sodipodi:type="arc" />
      <path
         sodipodi:type="arc"
         style="fill:#ffffff;fill-opacity:1;fill-rule:nonzero;stroke:#000000;stroke-width:0.6164034;stroke-linecap:round;stroke-linejoin:round;stroke-miterlimit:4;stroke-opacity:1;stroke-dasharray:none;stroke-dashoffset:0"
         id="path3911"
         sodipodi:cx="372.85715"
         sodipodi:cy="872.36218"
         sodipodi:rx="132.14285"
         sodipodi:ry="132.14285"
         d="m 505,872.36218 c 0,72.98049 -59.16237,132.14282 -132.14285,132.14282 -72.98049,0 -132.14286,-59.16233 -132.14286,-132.14282 0,-72.98048 59.16237,-132.14285 132.14286,-132.14285 C 445.83763,740.21933 505,799.3817 505,872.36218 z"
         transform="matrix(1,0.31233173,0,1,-616.57143,-164.31226)" />
      <path
         sodipodi:end="1.2566371"
         sodipodi:start="0"
         transform="matrix(1,0.31233173,0,1,-616.57143,-164.31226)"
         d="m 505,872.36218 c 0,57.24776 -36.86262,107.9848 -91.30847,125.67533 L 372.85715,872.36218 z"
         sodipodi:ry="132.14285"
         sodipodi:rx="132.14285"
         sodipodi:cy="872.36218"
         sodipodi:cx="372.85715"
         id="path3925"
         style="fill:#00aad4;fill-opacity:1;fill-rule:nonzero;stroke:#000000;stroke-width:0.6164034;stroke-linecap:round;stroke-linejoin:round;stroke-miterlimit:4;stroke-opacity:1;stroke-dasharray:none;stroke-dashoffset:0"
         sodipodi:type="arc" />
      <path
         sodipodi:type="arc"
         style="fill:#008000;fill-opacity:1;fill-rule:nonzero;stroke:#000000;stroke-width:0.6164034;stroke-linecap:round;stroke-linejoin:round;stroke-miterlimit:4;stroke-opacity:1;stroke-dasharray:none;stroke-dashoffset:0"
         id="path3927"
         sodipodi:cx="372.85715"
         sodipodi:cy="872.36218"
         sodipodi:rx="132.14285"
         sodipodi:ry="132.14285"
         d="m 413.69153,998.03751 c -54.44585,17.69049 -114.09081,-1.6893 -147.74019,-48.0037 l 106.90581,-77.67163 z"
         transform="matrix(1,0.31233173,0,1,-616.57143,-164.31226)"
         sodipodi:start="1.2566371"
         sodipodi:end="2.5132741" />
      <path
         sodipodi:end="3.7699112"
         sodipodi:start="2.5132741"
         transform="matrix(1,0.31233173,0,1,-616.57143,-164.31226)"
         d="m 265.95134,950.03381 c -33.64939,-46.31441 -33.64939,-109.02884 -1e-5,-155.34325 l 106.90582,77.67162 z"
         sodipodi:ry="132.14285"
         sodipodi:rx="132.14285"
         sodipodi:cy="872.36218"
         sodipodi:cx="372.85715"
         id="path3929"
         style="fill:#0000ff;fill-opacity:1;fill-rule:nonzero;stroke:#000000;stroke-width:0.6164034;stroke-linecap:round;stroke-linejoin:round;stroke-miterlimit:4;stroke-opacity:1;stroke-dasharray:none;stroke-dashoffset:0"
         sodipodi:type="arc" />
      <path
         sodipodi:end="5.0265482"
         sodipodi:start="3.7699112"
         transform="matrix(1,0.31233173,0,1,-616.57143,-164.31226)"
         d="m 265.95133,794.69056 c 33.64939,-46.3144 93.29435,-65.69423 147.7402,-48.0037 l -40.83438,125.67532 z"
         sodipodi:ry="132.14285"
         sodipodi:rx="132.14285"
         sodipodi:cy="872.36218"
         sodipodi:cx="372.85715"
         id="path3931"
         style="fill:#ffff00;fill-opacity:1;fill-rule:nonzero;stroke:#000000;stroke-width:0.6164034;stroke-linecap:round;stroke-linejoin:round;stroke-miterlimit:4;stroke-opacity:1;stroke-dasharray:none;stroke-dashoffset:0"
         sodipodi:type="arc" />
      <path
         sodipodi:end="6.2831853"
         sodipodi:start="5.0265482"
         transform="matrix(1,0.31233173,0,1,-616.57143,-164.31226)"
         d="M 413.69153,746.68686 C 468.13738,764.37739 505,815.11443 505,872.36218 l -132.14285,0 z"
         sodipodi:ry="132.14285"
         sodipodi:rx="132.14285"
         sodipodi:cy="872.36218"
         sodipodi:cx="372.85715"
         id="path3933"
         style="fill:#ff0000;fill-opacity:1;fill-rule:nonzero;stroke:#000000;stroke-width:0.6164034;stroke-linecap:round;stroke-linejoin:round;stroke-miterlimit:4;stroke-opacity:1;stroke-dasharray:none;stroke-dashoffset:0"
         sodipodi:type="arc" />
      <path
         id="path4006"
         d="m -344.5,707.5625 c -2.1224,1.8421 -4.17169,3.79658 -6.125,5.875 -33.64939,35.80464 -33.64939,98.51957 0,155.34375 33.64938,56.82417 93.30415,94.84161 147.75,94.15625 27.82699,-0.35028 51.05805,-10.78597 67.125,-28.53125 -15.63068,14.08929 -36.58448,22.22234 -61.125,22.53125 l -38.28125,-129.75 123.59375,38.59375 c 0,-2.63219 -0.096,-5.28732 -0.25,-7.9375 L -237.71875,818.5 l 37.9375,-104.875 c -1.02785,-0.68319 -2.05292,-1.36798 -3.09375,-2.03125 l -37.625,104 -104,-108.03125 z m -5.625,6.375 104,108.0625 -98.5,40.78125 c -31.69957,-53.5315 -33.52591,-112.27969 -5.5,-148.84375 z M -243.71875,824.5 -204.6875,956.78125 c -51.34569,-2.76537 -105.93079,-38.6035 -138.21875,-91.1875 L -243.71875,824.5 z"
         style="fill:#ffffff;fill-opacity:1;fill-rule:nonzero;stroke:none;filter:url(#filter4052)"
         inkscape:connector-curvature="0" />
      <path
         inkscape:connector-curvature="0"
         id="path3992"
         d="m -349.13839,711.875 c -23.91315,16.44432 -38.71875,44.85351 -38.71875,81.34375 0,72.98048 59.17577,150.64338 132.15625,173.4375 43.00763,13.43265 81.18213,4.80637 105.31251,-19.46875 -23.9041,16.38021 -56.88023,20.84771 -93.31251,9.46875 -72.98048,-22.79412 -132.15625,-100.45702 -132.15625,-173.4375 0,-29.9334 9.94194,-54.42821 26.71875,-71.34375 z"
         style="fill:url(#linearGradient4069);fill-opacity:1;fill-rule:nonzero;stroke:none" />
    </g>
    <path
       style="font-size:162.44822693px;font-style:normal;font-variant:normal;font-weight:100;font-stretch:normal;text-indent:0;text-align:start;text-decoration:none;line-height:125%;letter-spacing:0px;word-spacing:0px;text-transform:none;direction:ltr;block-progression:tb;writing-mode:lr-tb;text-anchor:start;baseline-shift:baseline;color:#000000;fill:#000000;fill-opacity:1;fill-rule:nonzero;stroke:none;stroke-width:4;marker:none;visibility:visible;display:inline;overflow:visible;filter:url(#filter3861);enable-background:accumulate;font-family:MgHoboFun;-inkscape-font-specification:MgHoboFun Thin"
       d="m 528.13655,186.41307 c -10.58408,0.41551 -20.86124,3.35838 -29.71875,8.84375 -0.0322,0.0197 -0.0616,0.0427 -0.0937,0.0625 -11.34801,6.97957 -19.55347,18.04145 -24.1875,30.84375 -0.54594,1.0134 -0.98657,2.0835 -1.3125,3.1875 -1.15445,3.94495 -1.7839,8.12144 -2.34375,13 -1.59434,0.65939 -3.09874,1.44819 -4.40625,2.40625 -0.65211,0.47791 -1.23664,1.13241 -1.84375,1.71875 -10.2481,-11.1647 -24.34856,-18.31235 -39.34375,-18.3125 l -1.78125,0 c -15.72724,1.6e-4 -30.62528,7.55721 -41.03125,19.5625 -0.0193,0.0223 -0.0432,0.0402 -0.0625,0.0625 -0.74524,0.8544 -1.37361,1.7645 -2.0625,2.65625 -0.68311,-0.88362 -1.32427,-1.77817 -2.0625,-2.625 l 0.0312,-0.0312 c -0.1541,-0.17815 -0.34394,-0.32382 -0.5,-0.5 -0.0245,-0.0276 -0.038,-0.0661 -0.0625,-0.0937 -10.37888,-11.67381 -25.03711,-19.03109 -40.53125,-19.03125 l -1.78125,0 c -15.60731,1.6e-4 -30.28194,7.70358 -40.59375,19.625 -0.35471,0.42065 -0.68859,0.85886 -1,1.3125 -0.0209,0.0312 -0.0418,0.0624 -0.0625,0.0937 -2.24141,2.7386 -4.23268,5.63956 -5.9375,8.71875 -0.19965,-0.1998 -0.42327,-0.36651 -0.625,-0.5625 4.89568,-7.68676 8.12487,-15.34987 8.125,-24.65625 -4.8e-4,-7.84358 -1.98873,-10.46453 -4.15625,-15.4375 -4.10831,-9.42414 -12.03125,-15.25405 -20.625,-19.28125 -0.0339,-0.0159 -0.0599,-0.0467 -0.0937,-0.0625 l 0,0.0312 c -8.96531,-4.23565 -18.99121,-6.15608 -29.5,-6.15625 -11.49038,1.7e-4 -24.17108,2.06343 -38.6875,5.75 -0.27262,0.0661 -0.54356,0.13902 -0.8125,0.21875 l -35.9063,11.03125 c -4.37623,1.35026 -8.13436,4.58836 -10.11675,8.71689 -1.9824,4.12853 -2.15959,9.08609 -0.477,13.34561 1.98133,5.00557 3.6454,9.20015 5.03125,12.71875 0.0471,0.11945 0.10986,0.31974 0.15625,0.4375 1.1684,3.21407 2.21402,6.09167 3.0625,8.53125 l 0.125,0.40625 2.46875,7.71875 c 0.0491,0.17793 0.10123,0.35505 0.15625,0.53125 0.60215,1.68613 0.98992,2.91768 2.09375,5.125 1.10325,2.20685 2.54154,4.19819 4.28125,5.9375 2.32192,2.31883 5.34282,3.92851 8.5625,4.5625 l 20.8125,83.1875 c 1.06515,4.26724 3.89428,8.06544 7.67789,10.30779 3.78362,2.24236 8.47374,2.90044 12.72836,1.78596 l 27.28125,-7.125 c 0.0521,-0.0101 0.10422,-0.0205 0.15625,-0.0312 5.69997,-1.55457 12.25171,-3.84988 20.0625,-6.90625 8.40732,-3.28985 16.0774,-8.36911 22.9375,-14.6875 0.7648,1.04805 1.508,2.12291 2.34375,3.125 0.0239,0.0289 0.0386,0.0649 0.0625,0.0937 10.42146,12.57638 25.52755,20.65624 41.625,20.65625 16.03726,-1e-5 31.03115,-8.04149 41.53125,-20.4375 0.0209,-0.0208 0.0417,-0.0416 0.0625,-0.0625 0.78154,-0.9335 1.46792,-1.93255 2.1875,-2.90625 0.71618,0.96847 1.37874,1.97756 2.15625,2.90625 0.41911,0.50505 0.86807,0.98533 1.34375,1.4375 10.42439,11.59384 24.85879,19.06249 40.28125,19.0625 14.09524,-1e-5 27.43446,-6.23391 37.53125,-16.21875 0.85927,2.05011 1.89602,3.99135 3.1875,5.5 0.0821,0.10516 0.16542,0.20934 0.25,0.3125 3.26429,3.63067 8.89518,6.83081 14.375,7.4375 0.0421,0.005 0.0829,0.0269 0.125,0.0312 l 0,-0.0312 25.53125,2.84375 c 0.0416,0.0106 0.0833,0.021 0.125,0.0312 4.61985,0.47772 11.17081,-0.21028 16.5625,-4.53125 5.39169,-4.32097 7.54872,-10.70922 8.03125,-15.375 0.59574,-5.76172 1.42856,-14.36775 2.5,-25.84375 0.36664,-3.92722 0.56419,-5.58829 0.875,-8.84375 3.85365,-0.32539 8.0839,-1.48002 11.65625,-4.34375 5.40215,-4.33057 7.42777,-10.36082 8.03125,-14.875 1.6e-4,-0.0417 1.6e-4,-0.0833 0,-0.125 l 2.625,-20.5625 0,-0.125 0.0312,-0.21875 -0.0312,0 c 0.60108,-4.73484 -0.7301,-9.68865 -2.78125,-13.4375 4.03806,-1.08635 7.83721,-3.07194 10.21875,-5.4375 3.0392,-3.01875 6.17011,-7.8124 6.78125,-13.71875 l 2.59375,-25.15625 c 0.81031,-7.83878 -4.80258,-17.88499 -11.03125,-21.59375 -0.466,-0.28372 -0.94594,-0.54456 -1.4375,-0.78125 -6.36192,-2.99707 -13.26815,-4.6421 -20.65625,-5.40625 -3.63265,-0.37559 -7.21316,-0.48137 -10.71875,-0.34375 z m -26.5,86.875 c 0.71365,1.24043 1.5878,2.3884 2.59375,3.40625 -0.40111,0.32559 -0.78708,0.66984 -1.15625,1.03125 -0.46889,-1.39009 -1.12223,-2.71785 -1.9375,-3.9375 0.17018,-0.16311 0.33689,-0.32982 0.5,-0.5 z"
       id="path3846"
       inkscape:connector-curvature="0"
       sodipodi:nodetypes="cccccccccccccccccccccccccccccccccscccccccccccscccscccscccccsccccccccscscscccccccscccccccccccc"
       inkscape:export-filename="/home/forfolias/boof.png"
       inkscape:export-xdpi="299.95944"
       inkscape:export-ydpi="299.95944" />
    <path
       style="font-size:162.44822693px;font-style:normal;font-variant:normal;font-weight:100;font-stretch:normal;text-indent:0;text-align:start;text-decoration:none;line-height:125%;letter-spacing:0px;word-spacing:0px;text-transform:none;direction:ltr;block-progression:tb;writing-mode:lr-tb;text-anchor:start;baseline-shift:baseline;color:#000000;fill:#5aa02c;fill-opacity:1;fill-rule:nonzero;stroke:none;stroke-width:4;marker:none;visibility:visible;display:inline;overflow:visible;enable-background:accumulate;font-family:MgHoboFun;-inkscape-font-specification:MgHoboFun Thin"
       d="m 534.13655,180.41307 c -10.58408,0.41551 -20.86124,3.35838 -29.71875,8.84375 -0.0322,0.0197 -0.0616,0.0427 -0.0937,0.0625 -11.34801,6.97957 -19.55347,18.04145 -24.1875,30.84375 -0.54594,1.0134 -0.98657,2.0835 -1.3125,3.1875 -1.15445,3.94495 -1.7839,8.12144 -2.34375,13 -1.59434,0.65939 -3.09874,1.44819 -4.40625,2.40625 -0.65211,0.47791 -1.23664,1.13241 -1.84375,1.71875 -10.2481,-11.1647 -24.34856,-18.31235 -39.34375,-18.3125 l -1.78125,0 c -15.72724,1.6e-4 -30.62528,7.55721 -41.03125,19.5625 -0.0193,0.0223 -0.0432,0.0402 -0.0625,0.0625 -0.74524,0.8544 -1.37361,1.7645 -2.0625,2.65625 -0.68311,-0.88362 -1.32427,-1.77817 -2.0625,-2.625 l 0.0312,-0.0312 c -0.1541,-0.17815 -0.34394,-0.32382 -0.5,-0.5 -0.0245,-0.0276 -0.038,-0.0661 -0.0625,-0.0937 -10.37888,-11.67381 -25.03711,-19.03109 -40.53125,-19.03125 l -1.78125,0 c -15.60731,1.6e-4 -30.28194,7.70358 -40.59375,19.625 -0.35471,0.42065 -0.68859,0.85886 -1,1.3125 -0.0209,0.0312 -0.0418,0.0624 -0.0625,0.0937 -2.24141,2.7386 -4.23268,5.63956 -5.9375,8.71875 -0.19965,-0.1998 -0.42327,-0.36651 -0.625,-0.5625 4.89568,-7.68676 8.12487,-15.34987 8.125,-24.65625 -4.8e-4,-7.84358 -1.98873,-10.46453 -4.15625,-15.4375 -4.10831,-9.42414 -12.03125,-15.25405 -20.625,-19.28125 -0.0339,-0.0159 -0.0599,-0.0467 -0.0937,-0.0625 l 0,0.0312 c -8.96531,-4.23565 -18.99121,-6.15608 -29.5,-6.15625 -11.49038,1.7e-4 -24.17108,2.06343 -38.6875,5.75 -0.27262,0.0661 -0.54356,0.13902 -0.8125,0.21875 l -35.9063,11.03125 c -4.37623,1.35026 -8.13436,4.58836 -10.11675,8.71689 -1.9824,4.12853 -2.15959,9.08609 -0.477,13.34561 1.98133,5.00557 3.6454,9.20015 5.03125,12.71875 0.0471,0.11945 0.10986,0.31974 0.15625,0.4375 1.1684,3.21407 2.21402,6.09167 3.0625,8.53125 l 0.125,0.40625 2.46875,7.71875 c 0.0491,0.17793 0.10123,0.35505 0.15625,0.53125 0.60215,1.68613 0.98992,2.91768 2.09375,5.125 1.10325,2.20685 2.54154,4.19819 4.28125,5.9375 2.32192,2.31883 5.34282,3.92851 8.5625,4.5625 l 20.8125,83.1875 c 1.06515,4.26724 3.89428,8.06544 7.67789,10.30779 3.78362,2.24236 8.47374,2.90044 12.72836,1.78596 l 27.28125,-7.125 c 0.0521,-0.0101 0.10422,-0.0205 0.15625,-0.0312 5.69997,-1.55457 12.25171,-3.84988 20.0625,-6.90625 8.40732,-3.28985 16.0774,-8.36911 22.9375,-14.6875 0.7648,1.04805 1.508,2.12291 2.34375,3.125 0.0239,0.0289 0.0386,0.0649 0.0625,0.0937 10.42146,12.57638 25.52755,20.65624 41.625,20.65625 16.03726,-1e-5 31.03115,-8.04149 41.53125,-20.4375 0.0209,-0.0208 0.0417,-0.0416 0.0625,-0.0625 0.78154,-0.9335 1.46792,-1.93255 2.1875,-2.90625 0.71618,0.96847 1.37874,1.97756 2.15625,2.90625 0.41911,0.50505 0.86807,0.98533 1.34375,1.4375 10.42439,11.59384 24.85879,19.06249 40.28125,19.0625 14.09524,-1e-5 27.43446,-6.23391 37.53125,-16.21875 0.85927,2.05011 1.89602,3.99135 3.1875,5.5 0.0821,0.10516 0.16542,0.20934 0.25,0.3125 3.26429,3.63067 8.89518,6.83081 14.375,7.4375 0.0421,0.005 0.0829,0.0269 0.125,0.0312 l 0,-0.0312 25.53125,2.84375 c 0.0416,0.0106 0.0833,0.021 0.125,0.0312 4.61985,0.47772 11.17081,-0.21028 16.5625,-4.53125 5.39169,-4.32097 7.54872,-10.70922 8.03125,-15.375 0.59574,-5.76172 1.42856,-14.36775 2.5,-25.84375 0.36664,-3.92722 0.56419,-5.58829 0.875,-8.84375 3.85365,-0.32539 8.0839,-1.48002 11.65625,-4.34375 5.40215,-4.33057 7.42777,-10.36082 8.03125,-14.875 1.6e-4,-0.0417 1.6e-4,-0.0833 0,-0.125 l 2.625,-20.5625 0,-0.125 0.0312,-0.21875 -0.0312,0 c 0.60108,-4.73484 -0.7301,-9.68865 -2.78125,-13.4375 4.03806,-1.08635 7.83721,-3.07194 10.21875,-5.4375 3.0392,-3.01875 6.17011,-7.8124 6.78125,-13.71875 l 2.59375,-25.15625 c 0.81031,-7.83878 -4.80258,-17.88499 -11.03125,-21.59375 -0.466,-0.28372 -0.94594,-0.54456 -1.4375,-0.78125 -6.36192,-2.99707 -13.26815,-4.6421 -20.65625,-5.40625 -3.63265,-0.37559 -7.21316,-0.48137 -10.71875,-0.34375 z"
       id="path3852"
       inkscape:connector-curvature="0"
       sodipodi:nodetypes="cccccccccccccccccccccccccccccccccscccccccccccscccscccscccccsccccccccscscscccccccsccccccc"
       inkscape:export-filename="/home/forfolias/boof.png"
       inkscape:export-xdpi="299.95944"
       inkscape:export-ydpi="299.95944" />
    <path
       sodipodi:type="inkscape:offset"
       inkscape:radius="0.72650129"
       inkscape:original="M 529.625 778.3125 C 520.1565 778.68421 511.24438 781.2913 503.5 786.09375 C 503.4802 786.10605 503.4573 786.1127 503.4375 786.125 C 493.27031 792.36883 486.01709 802.14018 481.9375 814 C 481.59237 814.6222 481.31915 815.28424 481.125 815.96875 C 480.00362 819.8007 479.34577 824.31119 478.71875 830.375 C 478.61905 831.33929 478.61727 831.69238 478.53125 832.5625 C 476.04338 832.9348 473.60226 833.82408 471.65625 835.25 C 468.91758 837.25706 466.86589 840.61626 466.0625 844 C 464.58899 841.59794 462.95216 839.31738 461.09375 837.1875 L 461.125 837.15625 C 461.1102 837.13905 461.0774 837.1421 461.0625 837.125 C 451.83076 826.46829 439.47646 820.09389 426.09375 820.09375 L 424.3125 820.09375 C 410.68451 820.09389 398.09772 826.41201 388.8125 837.15625 L 388.84375 837.1875 C 385.74037 840.74412 383.20468 844.70464 381.15625 849 C 379.10519 844.71036 376.60064 840.73911 373.5 837.1875 C 373.495 837.1815 373.505 837.16245 373.5 837.15625 C 373.42534 837.07412 373.35448 836.98983 373.28125 836.90625 C 373.28025 836.90325 373.2505 836.84485 373.25 836.84375 C 373.24 836.83265 373.22845 836.8236 373.21875 836.8125 C 373.17485 836.7626 373.10656 836.7372 373.0625 836.6875 C 363.8242 826.26085 351.44666 820.09388 338.03125 820.09375 L 336.25 820.09375 C 322.85148 820.09389 310.5056 826.50064 301.28125 837.15625 C 301.27625 837.16225 301.255 837.15025 301.25 837.15625 C 301.00154 837.45397 300.77177 837.76729 300.5625 838.09375 C 296.10745 843.44274 292.7933 849.61552 290.59375 856.5 C 286.71847 851.13286 282.66651 846.53637 278.1875 843.3125 C 284.85902 834.09072 288.74987 825.98591 288.75 817.21875 C 288.74969 812.13451 287.24139 809.35932 285.21875 804.71875 C 282.11261 797.59352 275.8552 792.7725 268.1875 789.1875 C 268.1785 789.1835 268.16485 789.1915 268.15625 789.1875 C 260.32737 785.47784 251.43206 783.71891 241.78125 783.71875 C 231.20854 783.71891 219.03631 785.6303 204.90625 789.21875 C 204.75942 789.25685 204.61353 789.29855 204.46875 789.34375 L 168.5625 800.375 C 166.12387 801.12322 164.04304 802.91993 162.9375 805.21875 C 161.83196 807.51756 161.71823 810.28414 162.65625 812.65625 C 164.67012 817.74405 166.35451 822.01973 167.75 825.5625 C 167.7768 825.6307 167.81715 825.7449 167.84375 825.8125 C 169.07103 829.18803 170.15967 832.21092 171.0625 834.8125 L 171.125 835.03125 L 173.65625 842.9375 C 173.68565 843.04221 173.7169 843.14639 173.75 843.25 C 174.32524 844.86077 174.71051 846.01501 175.46875 847.53125 C 176.22666 849.0473 177.21496 850.40273 178.375 851.5625 C 180.70747 853.88831 184.33542 854.82014 187.5 853.90625 L 209.71875 942.75 C 210.31347 945.12044 211.89725 947.22332 214 948.46875 C 216.10276 949.71418 218.69795 950.08646 221.0625 949.46875 L 248.34375 942.34375 C 248.37505 942.33355 248.4063 942.3231 248.4375 942.3125 C 253.72267 940.87106 260.08922 938.65392 267.75 935.65625 C 276.56886 932.20536 284.57986 926.66405 291.65625 919.34375 C 292.74521 918.21723 293.61033 916.9601 294.5625 915.75 C 296.46189 919.52294 298.7193 923.06329 301.40625 926.28125 C 301.42065 926.29875 301.4231 926.32625 301.4375 926.34375 C 310.77048 937.62152 323.52877 944.34374 337.40625 944.34375 C 351.20281 944.34374 363.88577 937.66007 373.3125 926.53125 L 373.34375 926.5 C 376.53342 922.69012 379.10009 918.43069 381.1875 913.84375 C 383.27402 918.42606 385.81311 922.69345 389 926.5 C 389.0208 926.5105 389.0416 926.52095 389.0625 926.53125 C 389.25059 926.74863 389.44879 926.95727 389.65625 927.15625 C 399.02102 937.88951 411.44659 944.34374 424.96875 944.34375 C 438.86771 944.34374 451.63191 937.59059 460.96875 926.28125 C 461.00045 926.22945 461.0318 926.17739 461.0625 926.125 L 461.03125 926.09375 C 461.05935 926.05985 461.0971 926.0339 461.125 926 C 461.35427 925.70554 461.58909 925.41367 461.78125 925.09375 C 465.02295 920.98983 467.65689 916.47848 469.6875 911.53125 L 467.9375 924.75 L 467.9375 924.8125 C 467.4175 928.68674 468.79415 933.31342 471.28125 936.21875 C 471.33275 936.27145 471.3848 936.32354 471.4375 936.375 C 473.7348 938.93014 477.41923 941.03577 481.125 941.4375 C 481.1452 941.4395 481.1673 941.4355 481.1875 941.4375 L 506.78125 944.28125 C 506.80205 944.28132 506.82295 944.28132 506.84375 944.28125 C 510.25843 944.63435 514.56767 944.11951 518.03125 941.34375 C 521.49483 938.56799 522.95802 934.42763 523.3125 931 C 523.90459 925.27354 524.77409 916.67571 525.84375 905.21875 C 526.50222 898.16566 526.89626 894.20379 527.375 889.3125 L 529.53125 889.6875 C 529.58335 889.68794 529.63542 889.68794 529.6875 889.6875 C 533.11584 890.20787 537.63473 889.7104 541.09375 886.9375 C 544.55277 884.16462 545.95796 880.19705 546.40625 876.84375 C 546.40632 876.82295 546.40632 876.80205 546.40625 876.78125 L 549.03125 856.0625 L 549.0625 856.0625 C 549.0715 856.0004 549.0545 855.93724 549.0625 855.875 C 549.55915 852.07595 548.16423 848.09339 546.1875 845.4375 C 546.1795 845.4262 546.16455 845.41745 546.15625 845.40625 C 546.12155 845.35985 546.0975 845.29552 546.0625 845.25 L 546.03125 845.28125 C 543.98407 842.58085 540.54097 840.1443 536.78125 839.53125 L 536.78125 839.5 L 536.59375 839.46875 C 534.4227 839.10593 533.4767 838.93052 531.6875 838.625 C 531.761 838.20945 531.94111 837.129 532 836.8125 C 532.0109 836.7605 532.02135 836.70842 532.03125 836.65625 C 532.2657 835.26499 531.96915 835.95159 532.34375 835.75 C 532.71831 835.54841 534.77886 834.90836 538.6875 835.3125 C 540.22257 835.47132 541.24691 835.75511 540.75 835.59375 C 540.96635 835.66425 541.1853 835.72683 541.40625 835.78125 C 543.41916 836.27421 545.36719 836.61794 547.25 836.8125 C 551.38748 837.24064 555.98466 835.27908 558.59375 832.6875 C 560.79563 830.50043 562.82136 827.30926 563.21875 823.46875 C 563.21877 823.45835 563.21877 823.4479 563.21875 823.4375 L 565.8125 798.3125 L 565.8125 798.28125 C 566.35643 792.86795 562.81595 786.45679 558.375 783.8125 C 558.12183 783.65421 557.861 783.50815 557.59375 783.375 C 552.18359 780.8263 546.06977 779.35515 539.3125 778.65625 C 536.01212 778.31501 532.76971 778.18905 529.625 778.3125 z M 530.6875 800.5625 C 532.64619 800.4859 534.72309 800.5458 537 800.78125 C 539.53514 801.04346 541.56907 801.44925 543.28125 801.84375 L 542.0625 813.625 C 541.72847 813.5822 541.29122 813.50214 540.96875 813.46875 C 533.668 812.71387 526.882 813.28402 521 816.65625 C 515.118 820.02848 511.19946 826.42442 510.0625 833.03125 C 510.06248 833.04165 510.06248 833.0521 510.0625 833.0625 C 509.13872 838.54965 508.46067 843.64864 507.96875 848.40625 C 507.72324 850.72749 508.40099 853.14095 509.8125 855 C 511.224 856.85905 513.35439 858.14412 515.65625 858.53125 L 526.15625 860.28125 L 525.40625 866.4375 L 517.3125 865.125 C 514.8191 864.72052 512.15798 865.39681 510.15625 866.9375 C 508.15452 868.47818 506.84096 870.86113 506.59375 873.375 L 501.90625 921.53125 L 490.9375 920.3125 L 497.6875 868.8125 C 498.00612 866.42577 497.35561 863.92285 495.90625 862 C 494.45689 860.07714 492.22594 858.75723 489.84375 858.40625 L 487.6875 858.09375 C 487.6805 857.04276 487.65385 856.37964 487.65625 855.53125 L 489.0625 855.75 C 491.61868 856.14655 494.3365 855.41288 496.34375 853.78125 C 498.35101 852.14962 499.61603 849.64578 499.75 847.0625 C 500.4291 833.96449 501.74012 824.97349 502.5 822.5 C 502.50002 822.4896 502.50002 822.47915 502.5 822.46875 C 505.02002 814.11639 509.05016 808.86476 515.25 805.09375 C 515.2709 805.07305 515.2918 805.05215 515.3125 805.03125 C 519.77018 802.2726 524.70595 800.79631 530.6875 800.5625 z M 243.75 807.3125 C 249.97372 807.31262 254.52553 808.38788 257.625 809.9375 C 257.6769 809.9588 257.72898 809.9796 257.78125 810 C 261.36208 811.70916 262.40352 813.17663 262.5625 813.53125 C 262.6029 813.61515 262.6446 813.69855 262.6875 813.78125 C 263.49552 815.45516 263.80442 816.72082 263.9375 817.09375 C 263.8586 817.91004 263.24435 819.53713 262.28125 821.65625 C 261.8103 820.24022 261.1278 818.82309 260.125 817.5625 C 258.04692 814.95021 255.07524 813.46471 252.40625 812.8125 L 252.40625 812.78125 C 252.32315 812.75955 252.23947 812.73985 252.15625 812.71875 C 252.11755 812.70975 252.06975 812.6958 252.03125 812.6875 L 252.03125 812.71875 C 248.85746 811.92503 245.58884 811.50013 242.28125 811.5 C 236.58714 811.50016 229.60841 812.79317 219.28125 815.125 C 216.96601 815.64349 214.86926 817.08221 213.5625 819.0625 C 212.25573 821.04279 211.75363 823.54242 212.1875 825.875 L 218.6875 860.96875 C 219.16652 863.55489 220.80281 865.90413 223.0625 867.25 C 221.49159 869.2762 220.81741 871.97292 221.25 874.5 L 227.09375 908.9375 C 227.52024 911.41525 229.00092 913.70047 231.09375 915.09375 C 233.18658 916.48702 235.86203 916.96871 238.3125 916.40625 C 245.82204 914.68277 253.18187 911.81459 260.28125 907.84375 C 268.79998 903.07902 274.62488 894.07453 274.625 884.46875 C 274.622 883.97687 274.5805 883.48525 274.5 883 L 274 879.90625 C 273.9338 879.49429 273.83976 879.08681 273.71875 878.6875 C 272.30544 874.04443 269.79655 870.13519 266.03125 864.65625 C 266.01825 864.63685 266.013 864.61305 266 864.59375 C 265.19396 863.40033 264.32247 862.30693 263.4375 861.21875 C 263.8577 861.47341 264.34254 861.60813 264.75 861.90625 C 264.812 861.94865 264.8745 861.99035 264.9375 862.03125 C 267.9691 864.12459 270.85978 867.46601 273.46875 872.59375 C 273.85395 873.3312 274.3389 874.01646 274.90625 874.625 C 279.08889 879.21784 280.74992 883.57746 280.75 889.1875 C 280.74994 893.63423 278.64217 898.53743 272.125 904.6875 C 266.2472 910.2341 254.69042 916.24798 237.625 921.21875 C 237.6046 921.22475 237.5829 921.21275 237.5625 921.21875 L 237.5625 921.25 L 228.625 923.78125 L 204.96875 831.03125 C 204.80787 830.38396 204.57693 829.75411 204.28125 829.15625 C 203.13983 826.87387 199.22808 823.03209 194.6875 823.03125 C 193.18984 823.03131 191.86383 823.36126 190.5625 823.71875 L 188.6875 818.625 C 197.83914 815.97969 206.88101 813.5243 215.65625 811.46875 C 215.67715 811.45845 215.69795 811.448 215.71875 811.4375 C 227.28279 808.62474 236.75593 807.31262 243.75 807.3125 z M 447.5 906.03125 C 446.36889 908.19048 445.0483 910.10635 443.59375 911.84375 C 443.58325 911.86455 443.5728 911.88535 443.5625 911.90625 C 437.43637 919.32658 432.21196 921.78124 424.96875 921.78125 C 417.85376 921.78124 412.53531 919.32705 406.3125 912 L 406.34375 912 C 405.49467 910.98583 404.80501 909.75066 404.0625 908.59375 C 409.31924 914.38092 416.42763 918.34378 424.3125 918.34375 C 433.51279 918.34378 441.96384 913.40147 447.5 906.03125 z M 314.9375 906.1875 C 315.1912 906.47477 315.46273 906.7463 315.75 907 C 321.27306 913.77803 329.26788 918.34378 338.03125 918.34375 C 346.01329 918.34378 353.19669 914.282 358.46875 908.375 C 357.69249 909.60991 356.95916 910.8948 356.0625 911.96875 C 356.0535 911.97955 356.04025 911.9893 356.03125 912 C 349.80405 919.33868 344.53737 921.78124 337.40625 921.78125 C 330.16303 921.78124 324.93864 919.32659 318.8125 911.90625 C 318.7918 911.88535 318.7709 911.86445 318.75 911.84375 C 318.741 911.83295 318.72775 911.8233 318.71875 911.8125 C 317.31034 910.12563 316.04214 908.27043 314.9375 906.1875 z "
       style="font-size:162.44822693px;font-style:normal;font-variant:normal;font-weight:100;font-stretch:normal;text-indent:0;text-align:start;text-decoration:none;line-height:125%;letter-spacing:0px;word-spacing:0px;text-transform:none;direction:ltr;block-progression:tb;writing-mode:lr-tb;text-anchor:start;baseline-shift:baseline;color:#000000;fill:#aade87;fill-opacity:1;fill-rule:nonzero;stroke:none;stroke-width:4;marker:none;visibility:visible;display:inline;overflow:visible;enable-background:accumulate;font-family:MgHoboFun;-inkscape-font-specification:MgHoboFun Thin"
       id="path3978"
       d="m 529.59375,777.59375 c -9.5837,0.37623 -18.6123,3.00305 -26.46875,7.875 0.0938,-0.0583 0.0709,-0.0516 -0.0625,0.0312 -10.29324,6.32124 -17.61729,16.20996 -21.75,28.15625 -0.0123,0.0356 -0.0502,0.0581 -0.0625,0.0937 l 0.0312,0 c -0.3453,0.6373 -0.64393,1.30321 -0.84375,2 -0.003,0.009 0.003,0.022 0,0.0312 -1.13817,3.89989 -1.81037,8.46641 -2.4375,14.53125 -0.0783,0.75757 -0.11286,1.15914 -0.15625,1.6875 -2.37691,0.43392 -4.72222,1.262 -6.625,2.65625 -2.49945,1.83174 -4.35024,4.67752 -5.375,7.6875 -1.22683,-1.88562 -2.5518,-3.69035 -4.03125,-5.40625 a 0.72657394,0.72657394 0 0 0 -0.0625,-0.125 0.72657394,0.72657394 0 0 0 -0.0625,-0.125 c -0.0299,-0.0347 -0.0343,-0.006 -0.0625,-0.0312 -0.0205,-0.0236 -0.0118,-0.0127 -0.0312,-0.0312 -9.34483,-10.77061 -21.90077,-17.24986 -35.5,-17.25 l -1.78125,0 c -13.85253,1.4e-4 -26.65703,6.42911 -36.0625,17.3125 a 0.72657394,0.72657394 0 0 0 -0.0625,0.125 0.72657394,0.72657394 0 0 0 -0.0937,0.1875 c -2.75414,3.20107 -5.02486,6.72003 -6.9375,10.5 -1.94873,-3.85314 -4.23223,-7.46713 -7.0625,-10.71875 -0.0151,-0.0174 -0.0161,-0.0451 -0.0312,-0.0625 -0.002,-0.003 5e-5,-0.0312 0,-0.0312 a 0.72657394,0.72657394 0 0 0 -0.0312,-0.0312 c -0.0222,-0.0244 -0.0698,-0.035 -0.0937,-0.0625 -0.003,-0.006 0.002,-0.027 0,-0.0312 -0.005,-0.006 -0.0263,0.006 -0.0312,0 -0.008,-0.0164 2.5e-4,-0.0307 0,-0.0312 a 0.72657394,0.72657394 0 0 0 -0.0312,-0.0625 0.72657394,0.72657394 0 0 0 -0.0937,-0.125 0.72657394,0.72657394 0 0 0 -0.0312,0 c -0.20994,-0.23864 -0.27788,-0.2622 -0.15625,-0.125 -9.35761,-10.5613 -21.92445,-16.84362 -35.5625,-16.84375 l -1.78125,0 c -13.60173,1.4e-4 -26.13489,6.50101 -35.46875,17.25 -0.0319,0.0266 -0.0512,0.0531 -0.0625,0.0625 -0.003,0.003 -0.0312,-4e-5 -0.0312,0 -0.24919,0.29859 -0.47475,0.61195 -0.6875,0.9375 -0.016,0.0245 -0.0467,0.0379 -0.0625,0.0625 -4.21205,5.0745 -7.35261,10.9165 -9.5625,17.34375 -3.50307,-4.72371 -7.17212,-8.84184 -11.21875,-11.875 6.45198,-9.03547 10.31237,-17.1485 10.3125,-25.9375 -3.2e-4,-5.22791 -1.58158,-8.1647 -3.59375,-12.78125 -3.201,-7.34283 -9.6183,-12.27964 -17.375,-15.90625 a 0.72657394,0.72657394 0 0 0 -0.0312,0 c -7.94101,-3.76279 -16.94842,-5.53109 -26.6875,-5.53125 -10.66026,1.6e-4 -22.89562,1.9022 -37.0625,5.5 -0.15833,0.0411 -0.31278,0.10756 -0.46875,0.15625 l -35.90625,11.03125 c -2.63963,0.80989 -4.86672,2.7323 -6.0625,5.21875 -1.19578,2.48644 -1.32894,5.46083 -0.3125,8.03125 2.01363,5.08719 3.69827,9.3635 5.09375,12.90625 0.0148,0.0376 0.0605,0.13208 0.0937,0.21875 0.004,0.0104 -0.004,0.0209 0,0.0312 1.2222,3.36173 2.32085,6.38138 3.21875,8.96875 l 0.0312,0 0.0312,0.15625 a 0.72657394,0.72657394 0 0 0 0,0.0312 l 2.53125,7.875 c 0.003,0.01 -0.003,0.0217 0,0.0312 0.0293,0.10332 0.061,0.21014 0.0937,0.3125 a 0.72657394,0.72657394 0 0 0 0,0.0312 c 0.57282,1.60401 0.96982,2.78364 1.75,4.34375 0.79342,1.58708 1.84821,3.00475 3.0625,4.21875 2.35019,2.34348 5.82373,3.28503 9.0625,2.625 L 209,942.9375 c 0.64413,2.56736 2.35135,4.8096 4.625,6.15625 2.27365,1.34665 5.06561,1.73111 7.625,1.0625 l 27.28125,-7.125 a 0.72657394,0.72657394 0 0 0 0.0312,0 c 0.0244,-0.008 0.0388,-0.0233 0.0625,-0.0312 0.009,-0.002 0.0226,0.002 0.0312,0 5.31956,-1.45238 11.68138,-3.65796 19.34375,-6.65625 8.9256,-3.49266 17.04801,-9.11443 24.1875,-16.5 0.88256,-0.913 1.56713,-1.8711 2.28125,-2.8125 1.81226,3.44595 3.88655,6.73852 6.375,9.71875 0.0176,0.0279 0.003,0.0282 0.0312,0.0625 9.44991,11.41907 22.41916,18.24999 36.53125,18.25 14.03119,-10e-6 26.92702,-6.79792 36.46875,-18.0625 a 0.72657394,0.72657394 0 0 0 0.0312,-0.0312 c 2.93542,-3.50619 5.28394,-7.41345 7.28125,-11.5625 1.99146,4.14498 4.31558,8.0575 7.25,11.5625 A 0.72657394,0.72657394 0 0 0 388.5,927 a 0.72657394,0.72657394 0 0 0 0.15625,0.15625 c 0.1402,0.15513 0.28784,0.3227 0.4375,0.46875 0.0206,0.0201 0.0417,0.0426 0.0625,0.0625 9.47263,10.82445 22.08745,17.37499 35.8125,17.375 14.13429,-10e-6 27.1091,-6.86198 36.5625,-18.3125 a 0.72657394,0.72657394 0 0 0 0.0625,-0.0937 c 0.0335,-0.0548 0.0601,-0.0988 0.0937,-0.15625 a 0.72657394,0.72657394 0 0 0 0,-0.0312 0.72657394,0.72657394 0 0 0 0.0625,-0.0937 0.72657394,0.72657394 0 0 0 0.0312,-0.0937 c 0.18058,-0.23064 0.38366,-0.46422 0.5625,-0.75 0.018,-0.0228 0.0445,-0.0397 0.0625,-0.0625 2.34545,-2.97867 4.25258,-6.2445 5.96875,-9.65625 l -1.15625,8.84375 a 0.72657394,0.72657394 0 0 0 0,0.0625 0.72657394,0.72657394 0 0 0 0,0.0312 l 0,0.0625 c -0.51957,4.09621 0.8709,8.80379 3.5,11.875 a 0.72657394,0.72657394 0 0 0 0.0312,0.0312 c 0.046,0.0471 0.10903,0.10977 0.15625,0.15625 0.01,0.0106 0.0217,0.0207 0.0312,0.0312 2.42409,2.68011 6.18428,4.82619 10.09375,5.25 a 0.72657394,0.72657394 0 0 0 0.0312,0 c 0.0832,0.008 0.0207,5e-4 0.0312,0 0.0106,-5e-4 0.0943,0.006 0.0312,0 L 506.6875,945 a 0.72657394,0.72657394 0 0 0 0.0937,0 c 0.0197,0.002 0.0428,-0.002 0.0625,0 3.5396,0.355 8.01772,-0.17778 11.65625,-3.09375 3.66077,-2.93379 5.16188,-7.27219 5.53125,-10.84375 0.59226,-5.72808 1.46133,-14.3215 2.53125,-25.78125 0.62603,-6.70565 1.02056,-10.55074 1.46875,-15.125 l 1.375,0.25 a 0.72657394,0.72657394 0 0 0 0.125,0 c 0.0225,1.9e-4 0.04,-4e-5 0.0625,0 0.0337,6e-5 0.0601,2.8e-4 0.0937,0 3.57858,0.52321 8.23822,0.009 11.875,-2.90625 3.64798,-2.92436 5.09776,-7.08616 5.5625,-10.5625 a 0.72657394,0.72657394 0 0 0 0,-0.0625 0.72657394,0.72657394 0 0 0 0,-0.0312 c 8e-5,-0.0224 8e-5,-0.0401 0,-0.0625 l 2.59375,-20.375 a 0.72657394,0.72657394 0 0 0 0.0312,-0.15625 0.72657394,0.72657394 0 0 0 0.0312,-0.0937 c 0.0376,-0.25982 0.0165,-0.31598 0,-0.1875 0.52648,-4.02724 -0.92154,-8.1343 -3,-10.9375 -0.061,-0.0861 0.0174,-0.0103 0,-0.0312 -0.0261,-0.0315 -0.11069,-0.13845 -0.0312,-0.0312 0.0542,0.0725 -0.0277,0.008 -0.125,-0.125 -0.004,-0.006 0.004,-0.0254 0,-0.0312 a 0.72657394,0.72657394 0 0 0 -0.15625,-0.15625 0.72657394,0.72657394 0 0 0 -0.0625,-0.0312 c -2.1169,-2.67829 -5.45707,-5.01458 -9.21875,-5.71875 -0.003,-5.3e-4 0.003,-0.0307 0,-0.0312 a 0.72657394,0.72657394 0 0 0 -0.21875,-0.0625 0.72657394,0.72657394 0 0 0 -0.0625,-0.0312 l -0.1875,-0.0312 c -1.84973,-0.30912 -2.83186,-0.48445 -4.1875,-0.71875 0.0723,-0.42443 0.15378,-0.87909 0.1875,-1.0625 9.6e-4,-0.005 -8.9e-4,-0.0265 0,-0.0312 0.01,-0.0471 0.0222,-0.10836 0.0312,-0.15625 0.0343,-0.20378 0.0457,-0.30414 0.0625,-0.4375 0.0738,-0.0257 0.55603,-0.19548 1.46875,-0.3125 0.99099,-0.12706 2.44145,-0.19669 4.34375,0 0.73993,0.0765 1.34063,0.18079 1.71875,0.25 0.18906,0.0346 0.27314,0.0768 0.40625,0.0937 0.0111,0.001 0.0454,-0.001 0.0625,0 0.01,0.003 0.0215,-0.003 0.0312,0 0.12911,0.0374 0.24444,0.0928 0.375,0.125 2.04231,0.50016 4.04988,0.83296 5.96875,1.03125 4.41827,0.4572 9.12448,-1.58064 11.90625,-4.34375 2.2945,-2.27907 4.42459,-5.6053 4.84375,-9.65625 a 0.72657394,0.72657394 0 0 0 0,-0.0312 0.72657394,0.72657394 0 0 0 0,-0.0312 c 2e-5,-0.0113 2e-5,-0.0199 0,-0.0312 l 2.59375,-25.0625 a 0.72657394,0.72657394 0 0 0 0,-0.0312 0.72657394,0.72657394 0 0 0 0,-0.0312 l 0,-0.0312 c 0.54898,-5.76695 -3.05954,-12.28228 -7.78125,-15.09375 -0.27302,-0.1707 -0.55557,-0.32517 -0.84375,-0.46875 -5.50355,-2.59269 -11.71481,-4.07623 -18.53125,-4.78125 -3.33061,-0.34437 -6.59763,-0.46873 -9.78125,-0.34375 z m 1.125,23.6875 c 1.92387,-0.0752 3.97426,-0.0133 6.21875,0.21875 2.24695,0.2324 3.98079,0.61727 5.5625,0.96875 l -1.0625,10.34375 c -0.1424,-0.0211 -0.27096,-0.0485 -0.40625,-0.0625 -7.38379,-0.76347 -14.34574,-0.19332 -20.40625,3.28125 -6.10508,3.50013 -10.11026,10.07045 -11.28125,16.875 a 0.72657394,0.72657394 0 0 0 0,0.0312 0.72657394,0.72657394 0 0 0 0,0.0937 c -2e-5,0.0113 -2e-5,0.0199 0,0.0312 -0.91508,5.45245 -1.6042,10.54655 -2.09375,15.28125 -0.26576,2.51269 0.44185,5.08272 1.96875,7.09375 1.52689,2.01103 3.82363,3.39392 6.3125,3.8125 l 9.8125,1.625 -0.5625,4.71875 -7.34375,-1.1875 c -2.7004,-0.43806 -5.55183,0.30092 -7.71875,1.96875 -2.16692,1.66783 -3.57639,4.21868 -3.84375,6.9375 l -4.625,47.40625 -9.5,-1.03125 6.65625,-50.78125 c 0.3446,-2.58132 -0.33738,-5.26235 -1.90625,-7.34375 -1.56887,-2.08141 -3.98517,-3.49527 -6.5625,-3.875 l -1.53125,-0.21875 c -0.006,-0.38442 -0.0264,-0.75993 -0.0312,-1.09375 l 0.5625,0.0937 c 2.76741,0.42932 5.70139,-0.35814 7.875,-2.125 2.17362,-1.76686 3.51129,-4.45474 3.65625,-7.25 0.33874,-6.53345 0.83846,-12.04386 1.34375,-16.21875 0.50529,-4.17489 1.03318,-7.0436 1.375,-8.15625 a 0.72657394,0.72657394 0 0 0 0,-0.0312 c 0.004,-0.0138 0.0271,-0.0175 0.0312,-0.0312 a 0.72657394,0.72657394 0 0 0 0,-0.0937 c 2.48414,-8.15072 6.37502,-13.1753 12.40625,-16.84375 a 0.72657394,0.72657394 0 0 0 0.0625,-0.0625 c 0.0199,-0.0123 0.0426,-0.019 0.0625,-0.0312 4.33634,-2.66963 9.11778,-4.11504 14.96875,-4.34375 z m -286.96875,6.75 c 6.14005,1.2e-4 10.59726,1.07999 13.5625,2.5625 a 0.72657394,0.72657394 0 0 0 0.0312,0.0312 c 0.0365,0.015 0.0886,0.0168 0.125,0.0312 0.0196,0.008 0.043,0.0236 0.0625,0.0312 1.6914,0.81513 2.77853,1.55928 3.4375,2.125 0.67032,0.57546 0.94723,1.05295 0.9375,1.03125 0.0395,0.082 0.0833,0.16904 0.125,0.25 0.005,0.0104 -0.005,0.0208 0,0.0312 0.38048,0.79204 0.65841,1.48695 0.84375,2.03125 0.15348,0.45075 0.23315,0.72101 0.3125,0.96875 -0.0446,0.35074 -0.56091,1.55434 -0.9375,2.53125 -0.4151,-0.87798 -0.92249,-1.72671 -1.5625,-2.53125 -2.14043,-2.69067 -5.11277,-4.22507 -7.84375,-4.9375 a 0.72657394,0.72657394 0 0 0 -0.25,-0.0937 c -0.0945,-0.0247 -0.17482,-0.0747 -0.25,-0.0937 a 0.72657394,0.72657394 0 0 0 -0.0312,0 c -0.006,-0.001 -0.0437,-0.0137 -0.125,-0.0312 a 0.72657394,0.72657394 0 0 0 -0.0625,0 c -0.0497,-0.0123 -0.10646,0.0121 -0.15625,0 -3.15196,-0.76861 -6.40265,-1.18737 -9.6875,-1.1875 -5.80408,1.6e-4 -12.81678,1.29039 -23.15625,3.625 -2.50363,0.56068 -4.74182,2.10654 -6.15625,4.25 -1.41444,2.14346 -1.96936,4.82036 -1.5,7.34375 l 6.5,35.09375 c 0.47503,2.56458 2.0258,4.85105 4.15625,6.34375 -1.39138,2.10564 -2.02068,4.69346 -1.59375,7.1875 l 5.84375,34.4375 c 0.46151,2.68119 2.04622,5.11624 4.3125,6.625 2.26628,1.50874 5.13025,2.04599 7.78125,1.4375 7.57995,-1.73964 15.00025,-4.65374 22.15625,-8.65625 8.73593,-4.88621 14.71863,-14.10053 14.71875,-24 -0.003,-0.52979 -0.0381,-1.07011 -0.125,-1.59375 l -0.5,-3.09375 c -0.0714,-0.44428 -0.182,-0.88188 -0.3125,-1.3125 -1.43139,-4.70247 -3.96383,-8.65165 -7.65625,-14.03125 2.1191,1.9904 4.15449,4.74994 6.0625,8.5 0.41554,0.79554 0.95046,1.53102 1.5625,2.1875 4.09301,4.49442 5.65617,8.59586 5.65625,14.0625 -6e-5,4.21716 -1.9724,8.8973 -8.40625,14.96875 -5.71929,5.39703 -17.2054,11.4253 -34.1875,16.375 -0.0102,0.003 -0.0211,-0.003 -0.0312,0 -0.0313,0.005 -0.0259,-0.0108 -0.0625,0 a 0.72657394,0.72657394 0 0 0 -0.1875,0.0937 0.72657394,0.72657394 0 0 0 -0.0625,0.0312 l -7.9375,2.21875 -23.46875,-92.03125 c -0.17353,-0.69817 -0.43107,-1.35514 -0.75,-2 -0.64628,-1.29229 -1.97233,-2.87562 -3.75,-4.1875 -1.77767,-1.31188 -4.02485,-2.34329 -6.5,-2.34375 -1.34567,5e-5 -2.52893,0.26966 -3.65625,0.5625 l -1.375,-3.78125 c 8.87542,-2.55652 17.64945,-4.91358 26.15625,-6.90625 a 0.72657394,0.72657394 0 0 0 0.0625,-0.0312 c 0.0104,-0.003 0.0209,0.003 0.0312,0 a 0.72657394,0.72657394 0 0 0 0.0625,-0.0312 c 11.48026,-2.78663 20.8981,-4.09363 27.78125,-4.09375 z m 287.84375,28.1875 c 0.005,0.006 0.0471,0.0466 0.0625,0.0625 3.5e-4,3.1e-4 -0.0534,-0.0212 -0.0625,-0.0312 -0.0182,-0.0201 -0.005,-0.037 0,-0.0312 z m 0.84375,0.1875 c -0.125,0.0208 -0.45833,0.0417 -0.5,0.0312 0.17398,0.057 0.33664,0.0113 0.5,-0.0312 z m -211.96875,76.1875 c 5.00194,3.97131 11.04655,6.46877 17.5625,6.46875 5.51758,2e-5 10.59528,-1.97439 15,-5.03125 -5.0715,5.11316 -9.61842,7.03124 -15.625,7.03125 -6.63506,-10e-6 -11.39148,-2.18579 -16.9375,-8.46875 z m 120.96875,0.46875 c -5.34917,5.87802 -10.01858,7.99999 -16.46875,8 -5.99777,-10e-6 -10.57119,-1.94273 -15.65625,-7.0625 4.41014,3.06237 9.47551,5.06252 15,5.0625 6.29143,2e-5 12.19207,-2.28236 17.125,-6 z"
       transform="translate(4.7927982,-590.52443)"
       inkscape:export-filename="/home/forfolias/boof.png"
       inkscape:export-xdpi="299.95944"
       inkscape:export-ydpi="299.95944" />
    <path
       sodipodi:nodetypes="ccccccsssccc"
       id="path4075"
       style="font-size:162.44822693px;font-style:normal;font-variant:normal;font-weight:100;font-stretch:normal;text-indent:0;text-align:start;text-decoration:none;line-height:125%;letter-spacing:0px;word-spacing:0px;text-transform:none;direction:ltr;block-progression:tb;writing-mode:lr-tb;text-anchor:start;baseline-shift:baseline;color:#000000;fill:#ffffff;fill-opacity:1;fill-rule:nonzero;stroke:#ffffff;stroke-width:2.0999999;stroke-miterlimit:4;stroke-dasharray:none;marker:none;visibility:visible;display:inline;overflow:visible;enable-background:accumulate;font-family:MgHoboFun;-inkscape-font-specification:MgHoboFun Thin"
       d="m 342.21249,254.77912 c 6.02801,1e-4 11.36474,2.9534 15.53125,8.375 0.009,0.012 0.0219,0.019 0.0312,0.031 4.35683,5.4368 6.40619,12.8894 6.40625,22.1563 -6e-5,10.1189 -1.9656,18.2377 -6.1875,24.2187 l -0.0312,0.031 c -4.17074,5.7926 -9.69377,8.9375 -16.0625,8.9375 -5.97334,0 -11.23424,-3.1153 -15.28125,-8.7812 -4.14208,-5.7989 -6.06252,-13.978 -6.0625,-24.4063 -2e-5,-9.4877 1.99876,-16.9905 6.28125,-22.3437 4.17015,-5.3285 9.44249,-8.2187 15.375,-8.2188 z"
       inkscape:connector-curvature="0"
       inkscape:export-filename="/home/forfolias/boof.png"
       inkscape:export-xdpi="299.95944"
       inkscape:export-ydpi="299.95944" />
    <path
       sodipodi:type="inkscape:offset"
       inkscape:radius="6.8197932"
       inkscape:original="M 529.5 197.3125 C 522.09388 197.60197 515.46918 199.57077 509.625 203.1875 C 501.47414 208.1452 495.87064 215.67659 492.8125 225.8125 C 491.42737 230.3212 490.38054 239.2581 489.6875 252.625 L 480.125 251.125 C 478.59666 250.9096 477.74651 251.55395 477.59375 253.03125 C 477.34695 255.41785 477.33478 261.18565 477.59375 270.34375 C 477.64085 271.55475 478.16488 272.2184 479.125 272.375 L 487.6875 273.625 L 479.96875 332.4375 C 479.76506 333.8522 480.355 334.6089 481.71875 334.75 L 507.34375 337.59375 C 507.85511 337.64675 508.34232 337.4816 508.78125 337.125 C 509.27692 336.7743 509.56032 336.28135 509.625 335.65625 L 515 280.3125 L 530.65625 282.875 C 532.01405 283.0729 532.76517 282.4888 532.90625 281.125 L 535.40625 260.375 C 535.58643 259.1877 535.09357 258.4928 533.90625 258.3125 L 516.375 255.375 C 516.84501 250.8293 517.51294 245.9311 518.40625 240.625 C 519.989 231.4276 526.91379 227.44965 539.1875 228.71875 C 540.15341 228.81875 541.57403 229.03635 543.4375 229.34375 C 545.35762 229.65735 546.81519 229.8377 547.78125 229.9375 C 548.91762 230.0551 549.55226 229.46325 549.6875 228.15625 L 552.28125 203.03125 C 552.37515 202.12215 551.99882 201.4351 551.125 201 C 548.078 199.3642 543.40665 198.24015 537.15625 197.59375 C 534.51399 197.32055 531.96871 197.21601 529.5 197.3125 z M 242.9375 204.0625 C 234.81503 204.0627 224.73987 205.54485 212.71875 208.46875 C 200.69756 211.28465 188.3272 214.63265 175.65625 218.53125 L 185.40625 244.53125 C 188.3303 240.41605 191.16751 238.34385 193.875 238.34375 C 194.41647 238.34385 194.83134 238.6628 195.15625 239.3125 L 221.15625 341.34375 L 239.34375 336.15625 C 257.21297 330.95795 269.99819 324.72475 277.6875 317.46875 C 285.37661 310.21275 289.21864 302.79965 289.21875 295.21875 C 289.21864 287.42125 286.46063 280.47105 280.9375 274.40625 C 277.79673 268.23325 273.9547 263.5782 269.40625 260.4375 C 264.96591 257.1886 259.7209 255.5626 253.65625 255.5625 C 266.21883 241.1589 272.4999 230.22271 272.5 222.75 C 272.4999 221.2339 271.73484 218.92205 270.21875 215.78125 C 268.81078 212.64075 265.73381 209.93065 260.96875 207.65625 C 256.20353 205.27375 250.19345 204.0627 242.9375 204.0625 z M 241.46875 226.8125 C 244.17615 226.8126 246.75906 227.13155 249.25 227.78125 C 251.7408 228.32285 252.99992 229.9009 253 232.5 C 252.99992 237.915 247.26085 246.1411 235.78125 257.1875 L 227 265.3125 L 220.5 230.21875 C 230.57174 227.94455 237.56993 226.8126 241.46875 226.8125 z M 335.4375 239.40625 C 325.9464 239.40635 317.76322 243.4345 310.46875 251.875 C 303.27406 260.0977 299.59383 271.5753 299.59375 286.625 C 299.59383 302.6604 303.38493 314.97195 310.8125 323.84375 L 310.84375 323.84375 C 318.24835 332.81265 326.67988 337.09375 336.59375 337.09375 C 346.40018 337.09375 354.82961 332.8709 362.34375 324 C 369.76897 315.131 373.5625 302.7708 373.5625 286.625 C 373.5625 271.5753 369.88227 260.0977 362.6875 251.875 C 355.40235 243.4452 347.05298 239.40635 337.21875 239.40625 L 335.4375 239.40625 z M 423.4375 239.40625 C 413.60327 239.40635 405.2539 243.4452 397.96875 251.875 C 390.77398 260.0977 387.09375 271.5753 387.09375 286.625 C 387.09375 302.7708 390.88728 315.131 398.3125 324 C 405.82664 332.8709 414.25607 337.09375 424.0625 337.09375 C 433.97637 337.09375 442.4079 332.81265 449.8125 323.84375 L 449.84375 323.84375 C 457.27132 314.97195 461.06242 302.6604 461.0625 286.625 C 461.06242 271.5753 457.38219 260.0977 450.1875 251.875 C 442.89303 243.4345 434.70985 239.40635 425.21875 239.40625 L 423.4375 239.40625 z M 245.84375 265.96875 C 250.06733 267.26845 253.95731 270.5685 257.53125 275.875 C 261.10503 281.0734 263.27307 284.91535 264.03125 287.40625 L 264.53125 290.5 C 264.53117 297.1062 261.32704 302.20745 254.9375 305.78125 C 248.5478 309.35515 242.04366 311.89005 235.4375 313.40625 L 229.59375 278.96875 C 233.70904 276.15295 239.12916 271.81695 245.84375 265.96875 z "
       style="font-size:162.44822693px;font-style:normal;font-variant:normal;font-weight:100;font-stretch:normal;text-indent:0;text-align:start;text-decoration:none;line-height:125%;letter-spacing:0px;word-spacing:0px;text-transform:none;direction:ltr;block-progression:tb;writing-mode:lr-tb;text-anchor:start;baseline-shift:baseline;color:#000000;fill:#ffc800;fill-opacity:1;fill-rule:nonzero;stroke:none;stroke-width:1;marker:none;visibility:visible;display:inline;overflow:visible;enable-background:accumulate;font-family:MgHoboFun;-inkscape-font-specification:MgHoboFun Thin"
       id="path3976"
       d="m 529.21875,190.5 c -8.45339,0.3304 -16.32401,2.62746 -23.1875,6.875 l 0.0312,0.0312 c -9.55717,5.82646 -16.32945,14.98743 -19.78125,26.40625 -0.003,0.009 0.003,0.0218 0,0.0312 -1.43106,4.67201 -2.20951,11.87683 -2.84375,20.875 l -2.25,-0.34375 a 6.8204752,6.8204752 0 0 0 -0.125,0 c -1.86775,-0.26324 -4.52185,-0.10284 -6.8125,1.625 -2.29065,1.72784 -3.23842,4.4185 -3.4375,6.34375 -0.36008,3.48205 -0.29268,8.94249 -0.0312,18.1875 a 6.8204752,6.8204752 0 0 0 0,0.0625 c 0.0598,1.53863 0.44484,3.48797 1.8125,5.28125 1.36766,1.79328 3.64136,2.92579 5.4375,3.21875 a 6.8204752,6.8204752 0 0 0 0.0937,0.0312 l 1.9375,0.28125 -6.84375,52.0625 c -0.004,0.0264 0.004,0.067 0,0.0937 -0.24308,1.79496 -0.0838,4.41491 1.625,6.65625 1.71594,2.25073 4.30453,3.08041 6.125,3.28125 l 0,0.0312 c 0.017,0.002 0.0456,-0.002 0.0625,0 l 25.5625,2.84375 a 6.8204752,6.8204752 0 0 0 0.0625,0 c 2.23053,0.23118 4.46759,-0.61987 6.03125,-1.75 l 0.0312,0.0625 c 0.0519,-0.0367 0.0738,-0.11775 0.125,-0.15625 0.0691,-0.0523 0.18412,-0.0715 0.25,-0.125 l -0.0625,-0.0625 c 1.77829,-1.44003 3.15281,-3.85268 3.375,-6 a 6.8204752,6.8204752 0 0 0 0,-0.0312 l 4.6875,-48.09375 8.46875,1.375 a 6.8204752,6.8204752 0 0 0 0.125,0.0312 c 1.80406,0.26294 4.50608,0.0889 6.75,-1.65625 2.19927,-1.71046 3.00924,-4.22311 3.21875,-6.03125 l 0.0312,0 0,-0.125 2.46875,-20.40625 0.0312,-0.21875 -0.0312,0 c 0.22032,-1.69641 0.0527,-4.11355 -1.46875,-6.21875 -1.55331,-2.14922 -3.92132,-3.09313 -5.65625,-3.375 l -0.0937,-0.0312 -10.90625,-1.8125 c 0.35107,-2.62907 0.60901,-5.0873 1.09375,-7.96875 0.002,-0.0111 -0.002,-0.0202 0,-0.0312 0.53752,-3.09189 1.38446,-4.13171 3.0625,-5.09375 1.6851,-0.96609 5.03128,-1.70233 10.3125,-1.15625 0.63922,0.0662 1.98828,0.26157 3.8125,0.5625 a 6.8204752,6.8204752 0 0 0 0.0312,0 c 2.05147,0.33505 3.64603,0.5422 4.75,0.65625 1.86269,0.19277 4.69056,-0.32037 6.65625,-2.15625 1.96569,-1.83588 2.54957,-4.08374 2.71875,-5.71875 l 2.59375,-25.125 c 0.31481,-3.0479 -2.07779,-7.23435 -4.75,-8.6875 L 554.34375,195 c -0.0489,-0.0263 -0.10713,-0.0366 -0.15625,-0.0625 -0.0121,-0.006 -0.0192,-0.0249 -0.0312,-0.0312 -4.4217,-2.32637 -9.6949,-3.40938 -16.3125,-4.09375 -2.9109,-0.30098 -5.78141,-0.42364 -8.625,-0.3125 z m -286.28125,6.75 c -8.93634,2.2e-4 -19.45208,1.59829 -31.78125,4.59375 -0.0216,0.005 -0.0409,-0.005 -0.0625,0 -12.16012,2.84989 -24.64338,6.21975 -37.4375,10.15625 a 6.8204752,6.8204752 0 0 0 -4.375,8.9375 l 9.75,26 a 6.8204752,6.8204752 0 0 0 11.5625,2.03125 l 23.96875,94.0625 a 6.8204752,6.8204752 0 0 0 8.46875,4.875 l 18.1875,-5.1875 a 6.8204752,6.8204752 0 0 0 0.0312,0 c 18.43546,-5.36302 32.10915,-11.77346 41.125,-20.28125 6.0209,-5.68176 10.18968,-11.99228 12.21875,-18.65625 1.93629,9.48199 5.45594,17.77701 11,24.40625 0.005,0.006 -0.005,0.0249 0,0.0312 a 6.8204752,6.8204752 0 0 0 0.96875,0.96875 6.8204752,6.8204752 0 0 0 0.0937,0.0625 c 8.1977,9.36359 18.53096,14.65625 29.9375,14.65625 11.76426,0 22.51869,-5.52419 30.96875,-15.5 a 6.8204752,6.8204752 0 0 0 0,-0.0312 c 8.56078,-10.22536 12.62629,-24.14047 12.75,-41 0.12339,16.86046 4.22012,30.77422 12.78125,41 a 6.8204752,6.8204752 0 0 0 0,0.0312 c 8.45006,9.97581 19.20449,15.5 30.96875,15.5 11.42038,0 21.76646,-5.30239 29.96875,-14.6875 a 6.8204752,6.8204752 0 0 0 1.03125,-1 c 0.005,-0.006 -0.005,-0.0249 0,-0.0312 8.67695,-10.37537 12.81241,-24.46271 12.8125,-41.5625 -9e-5,-16.14321 -4.04418,-29.49931 -12.53125,-39.21875 -0.01,-0.0115 -0.0213,-0.0197 -0.0312,-0.0312 -8.2379,-9.51566 -18.68691,-14.78113 -30.09375,-14.78125 l -1.78125,0 c -11.68733,1.2e-4 -22.33187,5.23827 -30.59375,14.78125 -0.01,0.0115 -0.0213,0.0197 -0.0312,0.0312 -8.35566,9.56885 -12.37645,22.69248 -12.5,38.5 -0.12389,-15.80659 -4.11346,-28.93158 -12.46875,-38.5 -0.01,-0.0115 -0.0213,-0.0197 -0.0312,-0.0312 -8.26188,-9.54298 -18.90642,-14.78113 -30.59375,-14.78125 l -1.78125,0 c -11.40684,1.2e-4 -21.85585,5.26559 -30.09375,14.78125 -0.01,0.0115 -0.0213,0.0197 -0.0312,0.0312 -7.46775,8.55211 -11.29597,20.05379 -12.15625,33.65625 -1.53015,-3.66175 -3.6921,-7.07701 -6.375,-10.21875 -3.46096,-6.65461 -7.8872,-12.0918 -13.34375,-15.90625 -0.0545,-0.0381 -0.10154,-0.0872 -0.15625,-0.125 l 0,0.0312 c -2.18405,-1.57808 -4.59071,-2.78508 -7.09375,-3.75 8.31129,-10.58378 13.12488,-19.4545 13.125,-28.34375 -2.5e-4,-3.73885 -1.22753,-6.33599 -2.875,-9.75 -0.0313,-0.0649 -0.0309,-0.12198 -0.0625,-0.1875 l -0.0312,0.0312 c -2.33074,-5.0594 -6.79688,-8.62706 -12.3125,-11.28125 -0.0409,-0.0205 -0.084,-0.0422 -0.125,-0.0625 -5.96374,-2.95164 -13.00881,-4.24978 -20.96875,-4.25 z m -1.46875,36.375 c 1.50079,6e-5 2.83046,0.29325 4.1875,0.53125 -0.42902,1.125 -1.14865,2.66053 -2.5625,4.6875 -2.39944,3.43997 -6.32127,7.89069 -11.625,13.03125 l -3.03125,-16.28125 c 6.1523,-1.19713 11.11812,-1.9687 13.03125,-1.96875 z m 5.21875,40.53125 c 1.60827,1.15642 3.32046,2.75911 5.1875,5.53125 a 6.8204752,6.8204752 0 0 0 0.0312,0.0625 c 3.3499,4.87274 5.20324,8.54617 5.53125,9.53125 l 0.25,1.53125 c -0.0679,4.17335 -1.39789,6.40476 -6.09375,9.03125 -3.57388,1.99895 -7.15402,3.47386 -10.75,4.75 L 237,281.9375 c 2.85652,-2.13074 6.07266,-4.71764 9.6875,-7.78125 z"
       transform="translate(5.6062352,3.4452563)"
       inkscape:export-filename="/home/forfolias/boof.png"
       inkscape:export-xdpi="299.95944"
       inkscape:export-ydpi="299.95944" />
    <path
       id="path3898"
       style="font-size:162.44822693px;font-style:normal;font-variant:normal;font-weight:100;font-stretch:normal;text-indent:0;text-align:start;text-decoration:none;line-height:125%;letter-spacing:0px;word-spacing:0px;text-transform:none;direction:ltr;block-progression:tb;writing-mode:lr-tb;text-anchor:start;baseline-shift:baseline;color:#000000;fill:#ffffff;fill-opacity:1;fill-rule:nonzero;stroke:none;stroke-width:1;marker:none;visibility:visible;display:inline;overflow:visible;enable-background:accumulate;font-family:MgHoboFun;-inkscape-font-specification:MgHoboFun Thin"
       d="m 430.8241,242.84162 -1.78125,0 c -9.83423,1e-4 -18.1836,4.0389 -25.46875,12.4687 -7.19477,8.2227 -10.875,19.7003 -10.875,34.75 0,16.1458 3.79353,28.506 11.21875,37.375 7.51414,8.8709 15.94357,13.0938 25.75,13.0938 9.91387,0 18.3454,-4.2811 25.75,-13.25 l 0.0312,0 c 7.42757,-8.8718 11.21867,-21.1834 11.21875,-37.2188 -8e-5,-15.0497 -3.68031,-26.5273 -10.875,-34.75 -7.29447,-8.4405 -15.47765,-12.4686 -24.96875,-12.4687 z m -89.7813,0 1.78125,0 c 9.83423,1e-4 18.1836,4.0389 25.46875,12.4687 7.19477,8.2227 10.875,19.7003 10.875,34.75 0,16.1458 -3.79353,28.506 -11.21875,37.375 -7.51414,8.8709 -15.94357,13.0938 -25.75,13.0938 -9.91387,0 -18.3454,-4.2811 -25.75,-13.25 l -0.0312,0 c -7.42757,-8.8718 -11.21867,-21.1834 -11.21875,-37.2188 8e-5,-15.0497 3.68031,-26.5273 10.875,-34.75 7.29447,-8.4405 15.47765,-12.4686 24.96875,-12.4687 z m 214.2429,-11.2296 2.60003,-25.14391 c 0.0939,-0.9091 -0.29602,-1.5811 -1.16984,-2.0162 -3.047,-1.6358 -7.69568,-2.777 -13.94608,-3.4234 -10.56903,-1.0928 -19.74964,0.7719 -27.54188,5.5942 -8.15086,4.9577 -13.75537,12.5045 -16.81351,22.64041 -1.38513,4.5087 -2.42421,13.4465 -3.11725,26.8134 l -9.57852,-1.5074 c -1.52834,-0.2154 -2.36889,0.4156 -2.52165,1.8929 -0.2468,2.3866 -0.24067,8.1589 0.0183,17.317 0.0471,1.211 0.55066,1.8948 1.51078,2.0514 l 8.57335,1.2312 -7.7185,58.8142 c -0.20369,1.4147 0.37627,2.1925 1.74002,2.3336 l 25.63771,2.8233 c 0.51136,0.053 0.9865,-0.099 1.42543,-0.4556 0.49567,-0.3507 0.77584,-0.8386 0.84052,-1.4637 l 5.37914,-55.3519 15.67127,2.5681 c 1.3578,0.1979 2.10725,-0.385 2.24833,-1.7488 l 2.49147,-20.7618 c 0.18018,-1.1873 -0.32345,-1.8711 -1.51077,-2.0514 l -17.52879,-2.9325 c 0.47001,-4.5457 1.15167,-9.4716 2.04498,-14.7777 1.58275,-9.1974 8.51096,-13.1615 20.78467,-11.8924 0.96591,0.1 2.38059,0.3037 4.24406,0.6111 1.92012,0.3136 3.36322,0.5202 4.32928,0.62 1.13637,0.1176 1.77216,-0.4771 1.9074,-1.7841 m -329.17464,2.0634 c 10.07174,-2.2742 17.05701,-3.4113 20.95583,-3.4114 2.7074,1e-4 5.30657,0.325 7.79751,0.9747 2.4908,0.5416 3.73623,2.1119 3.73631,4.711 -8e-5,5.415 -5.73991,13.6457 -17.21951,24.6921 l -8.77221,8.1224 -6.49793,-35.0888 m 43.53613,57.1818 0.48734,3.0865 c -8e-5,6.6062 -3.1949,11.6963 -9.58444,15.2701 -6.3897,3.5739 -12.88763,6.1189 -19.49379,7.6351 l -5.84813,-34.439 c 4.11529,-2.8158 9.53023,-7.1477 16.24482,-12.9959 4.22358,1.2997 8.12233,4.6028 11.69627,9.9093 3.57378,5.1984 5.73975,9.043 6.49793,11.5339 m -24.69213,48.7344 c 17.86922,-5.1983 30.64847,-11.4255 38.33778,-18.6815 7.68911,-7.256 11.53371,-14.6745 11.53382,-22.2554 -1.1e-4,-7.7975 -2.76172,-14.7286 -8.28485,-20.7934 -3.14077,-6.173 -6.98538,-10.8298 -11.53383,-13.9705 -4.44034,-3.2489 -9.69283,-4.8734 -15.75748,-4.8735 12.56258,-14.4036 18.8439,-25.3418 18.844,-32.81451 -10e-5,-1.5161 -0.75819,-3.8445 -2.27428,-6.9853 -1.40797,-3.1405 -4.49449,-5.848 -9.25955,-8.1224 -4.76522,-2.3825 -10.7758,-3.5737 -18.03175,-3.5739 -8.12247,2e-4 -18.19425,1.4622 -30.21537,4.3861 -12.02119,2.8159 -24.36725,6.1732 -37.0382,10.0718 l 9.7469,25.99171 c 2.92405,-4.1152 5.73982,-6.1729 8.44731,-6.173 0.54147,1e-4 0.97467,0.325 1.29958,0.9747 l 25.99172,102.0175 18.1942,-5.1984"
       inkscape:connector-curvature="0"
       inkscape:export-filename="/home/forfolias/boof.png"
       inkscape:export-xdpi="299.95944"
       inkscape:export-ydpi="299.95944" />
    <g
       id="g4483"
       transform="translate(111.34621,281.76844)">
      <path
         id="path4299"
         d="m 36.6875,429 c 11.436583,9.25358 26.273051,16.32191 41.5625,20.71875 -0.253125,0.0525 -0.547183,0.1 -0.78125,0.15625 0.322381,-0.0516 0.60655,-0.065 0.90625,-0.0937 1.78631,0.51178 3.581333,0.96955 5.375,1.40625 5.569178,5.43329 -2.342547,24.60053 -0.9375,35.5 -0.745602,18.84176 55.53934,20.4889 57.09375,9.4375 5.04529,-19.62691 -8.7374,-39.65414 -11.125,-42.9375 14.03547,-3.07275 24.21396,-10.54464 26.1875,-23.21875 C 121.81426,450.0069 73.591245,439.8702 36.6875,429 z"
         style="fill:#000000;stroke:#000000;stroke-width:3;stroke-linecap:butt;stroke-linejoin:miter;stroke-miterlimit:4;stroke-opacity:1;stroke-dasharray:none;filter:url(#filter4479)"
         inkscape:connector-curvature="0" />
      <g
         transform="matrix(-0.87863634,0,0,0.91195239,388.71237,-508.61017)"
         id="g3960">
        <path
           style="fill:#ffffff;stroke:#000000;stroke-width:3.35143328;stroke-linecap:butt;stroke-linejoin:miter;stroke-miterlimit:4;stroke-opacity:1;stroke-dasharray:none"
           d="m 258.57142,1026.2908 c 6.51927,40.3374 91.6773,32.423 134.64286,-1.0713 -42.00116,11.9197 -96.90883,23.0441 -134.64286,1.0713 z"
           id="path3946"
           inkscape:connector-curvature="0"
           sodipodi:nodetypes="ccc" />
        <path
           style="fill:#d82f1d;fill-opacity:1;stroke:#000000;stroke-width:3.35143328;stroke-linecap:butt;stroke-linejoin:miter;stroke-miterlimit:4;stroke-opacity:1;stroke-dasharray:none"
           d="m 346.78572,1045.9336 c -18.23434,-2.8098 -4.10328,25.6473 -6.07143,40.3572 0.84859,20.6609 -63.23088,22.4755 -65,10.3571 -6.27172,-23.5066 13.21429,-47.8572 13.21429,-47.8572 5.88849,-3.8833 44.93589,-5.8506 57.85714,-2.8571 z"
           id="path3948"
           inkscape:connector-curvature="0"
           sodipodi:nodetypes="ccccc" />
        <path
           sodipodi:type="arc"
           style="fill:url(#linearGradient4490);fill-opacity:1;fill-rule:nonzero;stroke:none"
           id="path3950"
           sodipodi:cx="305.71429"
           sodipodi:cy="1089.6836"
           sodipodi:rx="30.357143"
           sodipodi:ry="14.464286"
           d="m 336.07144,1089.6836 c 0,7.9884 -13.59136,14.4643 -30.35715,14.4643 -16.76578,0 -30.35714,-6.4759 -30.35714,-14.4643 0,-7.9884 13.59136,-14.4643 30.35714,-14.4643 16.76579,0 30.35715,6.4759 30.35715,14.4643 z"
           transform="matrix(0.9921643,-0.12493996,0.12493996,0.9921643,-132.67812,44.948648)" />
      </g>
    </g>
    <path
       inkscape:connector-curvature="0"
       d="m 361.46169,293.14953 c -4.42196,-1.60059 -9.12225,-0.84173 -13.62053,2.04637 -0.01,0.008 -0.0209,0.008 -0.0312,0.0146 -4.64191,2.84872 -8.12724,7.79529 -10.59172,14.62261 -2.69103,7.45519 -3.40832,13.95869 -1.90187,19.48618 l 0.0146,0.0312 c 1.51901,5.37518 4.73418,9.15871 9.40608,10.84977 8.93025,-0.63173 15.38703,-5.4946 20.06816,-9.75881 2.03202,-2.87665 2.89829,-4.82314 4.41497,-9.02488 2.5232,-6.99014 3.0523,-13.04855 1.33442,-18.12957 -1.64202,-5.03308 -4.74098,-8.56247 -9.09288,-10.13771 z"
       style="font-size:162.44822693px;font-style:normal;font-variant:normal;font-weight:100;font-stretch:normal;text-indent:0;text-align:start;text-decoration:none;line-height:125%;letter-spacing:0px;word-spacing:0px;text-transform:none;direction:ltr;block-progression:tb;writing-mode:lr-tb;text-anchor:start;baseline-shift:baseline;color:#000000;fill:#000000;fill-opacity:1;fill-rule:nonzero;stroke:#000000;stroke-width:1;stroke-miterlimit:4;stroke-dasharray:none;marker:none;visibility:visible;display:inline;overflow:visible;enable-background:accumulate;font-family:MgHoboFun;-inkscape-font-specification:MgHoboFun Thin"
       id="path3984"
       sodipodi:nodetypes="ccccccccsccc"
       inkscape:export-filename="/home/forfolias/boof.png"
       inkscape:export-xdpi="299.95944"
       inkscape:export-ydpi="299.95944" />
    <path
       inkscape:export-ydpi="299.95944"
       inkscape:export-xdpi="299.95944"
       inkscape:export-filename="/home/forfolias/boof.png"
       sodipodi:nodetypes="ccccccccsccc"
       id="path3986"
       style="font-size:162.44822693px;font-style:normal;font-variant:normal;font-weight:100;font-stretch:normal;text-indent:0;text-align:start;text-decoration:none;line-height:125%;letter-spacing:0px;word-spacing:0px;text-transform:none;direction:ltr;block-progression:tb;writing-mode:lr-tb;text-anchor:start;baseline-shift:baseline;color:#000000;fill:#000000;fill-opacity:1;fill-rule:nonzero;stroke:#000000;stroke-width:1;stroke-miterlimit:4;stroke-dasharray:none;marker:none;visibility:visible;display:inline;overflow:visible;enable-background:accumulate;font-family:MgHoboFun;-inkscape-font-specification:MgHoboFun Thin"
       d="m 448.69383,293.14953 c -4.42196,-1.60059 -9.12225,-0.84173 -13.62053,2.04637 -0.01,0.008 -0.0209,0.008 -0.0312,0.0146 -4.64191,2.84872 -8.12724,7.79529 -10.59172,14.62261 -2.69103,7.45519 -3.40832,13.95869 -1.90187,19.48618 l 0.0146,0.0312 c 1.51901,5.37518 4.73418,9.15871 9.40608,10.84977 8.93025,-0.63173 15.38703,-5.4946 20.06816,-9.75881 2.03202,-2.87665 2.89829,-4.82314 4.41497,-9.02488 2.5232,-6.99014 3.0523,-13.04855 1.33442,-18.12957 -1.64202,-5.03308 -4.74098,-8.56247 -9.09288,-10.13771 z"
       inkscape:connector-curvature="0" />
    <g
       id="g4761"
       transform="translate(-473.97551,-47.926331)">
      <path
         inkscape:connector-curvature="0"
         id="path4119"
         style="fill:#000000;stroke:#000000;stroke-width:1px;stroke-linecap:butt;stroke-linejoin:miter;stroke-opacity:1;filter:url(#filter4141)"
         d="m 940.60024,263.22702 c -17.98976,-11.0305 -46.95123,-13.3016 -77.14286,8.57144 19.67554,-39.11886 87.58955,-46.0211 77.14286,-8.57144 z m -160,-14.28571 c 18.27335,-8.47819 39.83483,14.07941 68.57143,22.85715 -7.72587,-30.31384 -55.59798,-43.04987 -68.57143,-22.85715 z" />
      <path
         inkscape:connector-curvature="0"
         d="m 944.60024,259.22702 c -17.98976,-11.0305 -46.95123,-13.3016 -77.14286,8.57144 19.67554,-39.11886 87.58955,-46.0211 77.14286,-8.57144 z m -160,-14.28571 c 18.27335,-8.47819 39.83483,14.07941 68.57143,22.85715 -7.72587,-30.31384 -55.59798,-43.04987 -68.57143,-22.85715 z"
         style="fill:#000000;stroke:#000000;stroke-width:1px;stroke-linecap:butt;stroke-linejoin:miter;stroke-opacity:1"
         id="path3844" />
      <path
         transform="translate(480.69333,49.722008)"
         d="m 441.5,184.90625 c -13.53175,0.0989 -30.26214,6.22482 -42.625,17.53125 12.51394,-10.4499 28.72722,-15.97828 41.75,-15.75 7.11331,0.12469 13.27014,1.91882 17.3125,5.5625 4.02109,3.62451 5.88855,9.10339 4.5625,16.40625 0.39453,0.22438 0.79448,0.42301 1.1875,0.65625 2.29328,-8.37283 0.64462,-14.48445 -3.5,-18.5 -4.17466,-4.04465 -10.87299,-5.96335 -18.6875,-5.90625 z m -115,0.65625 c -8.02849,-0.18054 -15.26785,1.95908 -20.03125,6.65625 8.12103,-5.93852 21.14123,-6.25386 33.4375,-2.03125 12.93926,4.44341 25.04427,13.84394 29.65625,26.875 0.8688,0.29486 1.77005,0.54349 2.65625,0.8125 -5.1631,-19.69837 -27.39476,-31.90044 -45.71875,-32.3125 z"
         id="path4109"
         style="font-size:medium;font-style:normal;font-variant:normal;font-weight:normal;font-stretch:normal;text-indent:0;text-align:start;text-decoration:none;line-height:normal;letter-spacing:normal;word-spacing:normal;text-transform:none;direction:ltr;block-progression:tb;writing-mode:lr-tb;text-anchor:start;baseline-shift:baseline;color:#000000;fill:url(#linearGradient4776);fill-opacity:1;fill-rule:nonzero;stroke:none;stroke-width:1px;marker:none;visibility:visible;display:inline;overflow:visible;enable-background:accumulate;font-family:Sans;-inkscape-font-specification:Sans"
         inkscape:original="M 441.5 184.28125 C 426.58239 184.39024 407.88873 191.626 395.21875 205.0625 C 395.20815 205.0728 395.1981 205.08355 395.1875 205.09375 C 395.1774 205.10455 395.16635 205.1143 395.15625 205.125 L 395.53125 205.46875 L 395.875 205.84375 C 395.8856 205.83355 395.89575 205.8227 395.90625 205.8125 C 408.61976 193.53446 426.60535 187.06675 440.625 187.3125 C 447.64066 187.43548 453.64557 189.2163 457.53125 192.71875 C 461.41693 196.2212 463.23957 201.42284 461.90625 208.625 L 461.84375 208.96875 L 462.15625 209.15625 C 462.62763 209.42555 463.10383 209.67543 463.53125 209.9375 L 464.09375 210.28125 L 464.25 209.625 C 466.64999 201.02144 464.96403 194.57891 460.625 190.375 C 456.28597 186.17109 449.41772 184.2234 441.5 184.28125 z M 326.5 184.9375 C 317.76485 184.74107 309.83596 187.22073 304.96875 192.84375 C 304.95775 192.85275 304.9484 192.8655 304.9375 192.875 C 304.9182 192.8974 304.8942 192.915 304.875 192.9375 L 305.5625 193.625 C 305.5841 193.6063 305.6033 193.5811 305.625 193.5625 C 313.35719 186.93692 326.94313 186.39403 339.71875 190.78125 C 352.53025 195.18079 364.48018 204.49311 369 217.3125 L 369.0625 217.5625 L 369.3125 217.625 C 370.28274 217.95663 371.25245 218.23609 372.21875 218.53125 L 373.09375 218.8125 L 372.875 217.9375 C 367.73019 197.75091 345.15315 185.35696 326.5 184.9375 z "
         inkscape:radius="-0.613572"
         sodipodi:type="inkscape:offset" />
    </g>
    <g
       id="g4242"
       transform="translate(-269.40045,382.3649)"
       inkscape:export-filename="/home/forfolias/boof.png"
       inkscape:export-xdpi="299.95944"
       inkscape:export-ydpi="299.95944">
      <path
         inkscape:connector-curvature="0"
         d="m 629.81672,309.76485 c 19.74621,-7.44247 48.61673,-4.21477 74.14513,22.95627 -11.95059,-42.12595 -77.34682,-61.70365 -74.14513,-22.95627 z m 163.45475,1.54979 c -19.46519,-8.14924 -48.43327,-5.96405 -74.92425,20.26937 13.46092,-41.66792 79.52021,-58.8762 74.92425,-20.26937 z"
         style="fill:#000000;stroke:#000000;stroke-width:1px;stroke-linecap:butt;stroke-linejoin:miter;stroke-opacity:1;filter:url(#filter4230)"
         id="path4208" />
      <path
         id="path4171"
         style="fill:#000000;stroke:#000000;stroke-width:1px;stroke-linecap:butt;stroke-linejoin:miter;stroke-opacity:1"
         d="m 633.81672,305.76485 c 19.74621,-7.44247 48.61673,-4.21477 74.14513,22.95627 -11.95059,-42.12595 -77.34682,-61.70365 -74.14513,-22.95627 z m 163.45475,1.54979 c -19.46519,-8.14924 -48.43327,-5.96405 -74.92425,20.26937 13.46092,-41.66792 79.52021,-58.8762 74.92425,-20.26937 z"
         inkscape:connector-curvature="0" />
      <path
         id="path4168"
         d="m 652.71876,284.89732 c -6.42809,0.007 -11.88519,1.92922 -15.28125,6.09375 14.72334,-12.17275 53.57668,3.91929 66.28125,33.5 1.41545,1.34606 2.85254,2.73137 4.25,4.21875 -7.46912,-26.32872 -35.82227,-43.83418 -55.25,-43.8125 z m 124.9375,0.84375 c -13.04433,0.0879 -29.85774,7.53734 -41.96875,20.125 23.16376,-22.10651 60.71237,-26.34102 59.78125,0.75 0.60419,0.22666 1.22528,0.44166 1.8125,0.6875 1.7953,-15.08079 -7.20451,-21.6462 -19.625,-21.5625 z"
         style="fill:url(#linearGradient4738);fill-opacity:1;stroke:none"
         inkscape:connector-curvature="0" />
    </g>
    <path
       style="font-size:162.44822693px;font-style:normal;font-variant:normal;font-weight:100;font-stretch:normal;text-indent:0;text-align:start;text-decoration:none;line-height:125%;letter-spacing:0px;word-spacing:0px;text-transform:none;direction:ltr;block-progression:tb;writing-mode:lr-tb;text-anchor:start;baseline-shift:baseline;color:#000000;fill:url(#linearGradient4759);fill-opacity:1;fill-rule:nonzero;stroke:none;stroke-width:1;marker:none;visibility:visible;display:inline;overflow:visible;enable-background:accumulate;font-family:MgHoboFun;-inkscape-font-specification:MgHoboFun Thin"
       d="m 356.38749,292.57026 c -2.78723,0.0835 -5.60573,1.04196 -8.375,2.8125 -0.0123,0.008 -0.0189,0.0233 -0.0312,0.0312 -0.009,0.005 -0.0217,-0.004 -0.0312,0 -0.64632,0.39665 -1.24301,0.85841 -1.84375,1.34375 4.43519,-2.7257 9.06213,-3.42748 13.4375,-1.84375 4.41986,1.59984 7.58744,5.20758 9.25,10.28125 0.003,0.009 -0.003,0.0219 0,0.0312 1.7305,5.14621 1.21807,11.27069 -1.3125,18.28125 -1.13781,3.15215 -1.99489,5.08277 -3.1875,7.0625 0.0965,-0.087 0.18664,-0.19518 0.28125,-0.28125 2.0211,-2.86119 2.89176,-4.77307 4.40625,-8.96875 2.5112,-6.95691 3.00635,-12.92757 1.3125,-17.9375 a 0.24955913,0.24955913 0 0 1 0,-0.0312 c -1.62393,-4.97763 -4.6617,-8.38981 -8.9375,-9.9375 -1.6317,-0.59062 -3.29111,-0.89398 -4.96875,-0.84375 z m 87.25,0 c -2.78729,0.0835 -5.63739,1.0424 -8.40625,2.8125 -0.0123,0.008 -0.019,0.0233 -0.0312,0.0312 -0.009,0.005 -0.0217,-0.004 -0.0312,0 -0.64632,0.39665 -1.24301,0.85841 -1.84375,1.34375 4.43717,-2.72596 9.09303,-3.4276 13.46875,-1.84375 4.41986,1.59984 7.58744,5.20758 9.25,10.28125 0.003,0.009 -0.003,0.0219 0,0.0312 1.73067,5.14708 1.1866,11.27131 -1.34375,18.28125 -1.13873,3.15467 -1.96379,5.08365 -3.15625,7.0625 0.0969,-0.0857 0.18716,-0.19595 0.28125,-0.28125 2.0204,-2.8602 2.86014,-4.77204 4.375,-8.96875 2.51143,-6.95753 3.0373,-12.92844 1.34375,-17.9375 a 0.24955913,0.24955913 0 0 1 0,-0.0312 c -1.62393,-4.97763 -4.6617,-8.38981 -8.9375,-9.9375 -1.6317,-0.59062 -3.29111,-0.89398 -4.96875,-0.84375 z"
       id="path4270"
       inkscape:export-filename="/home/forfolias/boof.png"
       inkscape:export-xdpi="299.95944"
       inkscape:export-ydpi="299.95944"
       inkscape:connector-curvature="0" />
    <g
       id="g4711"
       inkscape:export-filename="/home/forfolias/boof.png"
       inkscape:export-xdpi="299.95944"
       inkscape:export-ydpi="299.95944"
       transform="translate(5.6062352,11.445256)">
      <path
         transform="matrix(0.91176909,0,0,0.9145212,31.167693,29.268963)"
         style="font-size:medium;font-style:normal;font-variant:normal;font-weight:normal;font-stretch:normal;text-indent:0;text-align:start;text-decoration:none;line-height:normal;letter-spacing:normal;word-spacing:normal;text-transform:none;direction:ltr;block-progression:tb;writing-mode:lr-tb;text-anchor:start;baseline-shift:baseline;color:#000000;fill:#000000;fill-opacity:1;stroke:#000000;stroke-width:4.92802811;stroke-miterlimit:4;stroke-dasharray:none;marker:none;visibility:visible;display:inline;overflow:visible;filter:url(#filter4657);enable-background:accumulate;font-family:Sans;-inkscape-font-specification:Sans"
         d="m 320.46897,373.62558 c 45.60405,18.06795 88.95852,21.1615 131.40526,17.8601 l 0.21506,3.48491 c -6.73984,0.52419 -13.52223,0.81428 -20.32371,0.98013 10.43496,16.34931 10.28503,29.73488 5.48417,37.7894 -12.85253,21.563 -39.86878,9.06105 -50.00281,-13.6129 -3.49443,-7.81852 -1.1978,-17.94933 -0.43013,-26.13676 -22.07426,-2.68069 -44.5916,-8.07577 -67.63823,-17.2067 z m 97.4402,19.38475 -3.57927,1.0268 7.72698,27.31915 z"
         id="path4531"
         inkscape:connector-curvature="0"
         sodipodi:nodetypes="ccccssccccccc" />
      <path
         sodipodi:nodetypes="ccccssccccccc"
         inkscape:connector-curvature="0"
         id="path4503"
         d="m 327.00847,367.29939 c 41.58036,16.52353 81.10963,19.35264 119.81125,16.33344 l 0.19609,3.18703 c -6.14518,0.47938 -12.32915,0.74467 -18.53053,0.89635 9.51427,14.95179 9.37757,27.19317 5.0003,34.5592 -11.71854,19.71982 -36.35113,8.28653 -45.59102,-12.44928 -3.18611,-7.1502 -1.09212,-16.41505 -0.39218,-23.90262 -20.12663,-2.45155 -40.65724,-7.38547 -61.67045,-15.7359 z m 88.84296,19.15634 -1.47775,0.93903 3.47379,17.84108 z"
         style="font-size:medium;font-style:normal;font-variant:normal;font-weight:normal;font-stretch:normal;text-indent:0;text-align:start;text-decoration:none;line-height:normal;letter-spacing:normal;word-spacing:normal;text-transform:none;direction:ltr;block-progression:tb;writing-mode:lr-tb;text-anchor:start;baseline-shift:baseline;color:#000000;fill:#e61306;fill-opacity:1;stroke:#000000;stroke-width:4.5;stroke-linecap:round;stroke-linejoin:round;stroke-miterlimit:4;stroke-dasharray:none;marker:none;visibility:visible;display:inline;overflow:visible;enable-background:accumulate;font-family:Sans;-inkscape-font-specification:Sans" />
      <path
         inkscape:connector-curvature="0"
         id="path4691"
         d="m 389.49004,385.1895 a 2.250225,2.250225 0 0 1 0.125,0.9375 c -0.13406,1.43414 -0.29458,2.91685 -0.46875,4.40625 8.49889,0.2871 17.11737,-1.78388 24.3125,4.65625 l -1.4375,-7.375 a 2.250225,2.250225 0 0 1 0.0625,-1.09375 c -7.4846,-0.21354 -15.00914,-0.67657 -22.59375,-1.53125 z m 36.8125,1.625 c -2.75894,0.0514 -5.5103,0.148 -8.28125,0.125 l 1.25,11.65625 c 7.59572,4.59646 12.97876,11.94209 12.03125,22.75 0.0445,-0.0733 0.0808,-0.14437 0.125,-0.21875 3.82852,-6.44259 4.24166,-17.71323 -4.96875,-32.1875 a 2.250225,2.250225 0 0 1 -0.15625,-2.125 z"
         style="font-size:medium;font-style:normal;font-variant:normal;font-weight:normal;font-stretch:normal;text-indent:0;text-align:start;text-decoration:none;line-height:normal;letter-spacing:normal;word-spacing:normal;text-transform:none;direction:ltr;block-progression:tb;writing-mode:lr-tb;text-anchor:start;baseline-shift:baseline;color:#000000;fill:url(#linearGradient4704);fill-opacity:1;fill-rule:nonzero;stroke:none;stroke-width:4.5;marker:none;visibility:visible;display:inline;overflow:visible;enable-background:accumulate;font-family:Sans;-inkscape-font-specification:Sans" />
    </g>
  </g>
</svg>
