<?xml version="1.0" encoding="UTF-8" standalone="no"?>
<!-- Created with Inkscape (http://www.inkscape.org/) -->

<svg
   xmlns:dc="http://purl.org/dc/elements/1.1/"
   xmlns:cc="http://creativecommons.org/ns#"
   xmlns:rdf="http://www.w3.org/1999/02/22-rdf-syntax-ns#"
   xmlns:svg="http://www.w3.org/2000/svg"
   xmlns="http://www.w3.org/2000/svg"
   xmlns:xlink="http://www.w3.org/1999/xlink"
   xmlns:sodipodi="http://sodipodi.sourceforge.net/DTD/sodipodi-0.dtd"
   xmlns:inkscape="http://www.inkscape.org/namespaces/inkscape"
   width="500.01736"
   height="499.99796"
   id="svg2"
   version="1.1"
   inkscape:version="0.48.1 "
   sodipodi:docname="boof_logo.svg"
   inkscape:export-filename="C:\Documents and Settings\deyal\Επιφάνεια εργασίας\boof.png"
   inkscape:export-xdpi="99"
   inkscape:export-ydpi="99">
  <defs
     id="defs4">
    <linearGradient
       inkscape:collect="always"
       id="linearGradient4770">
      <stop
         style="stop-color:#ffffff;stop-opacity:1;"
         offset="0"
         id="stop4772" />
      <stop
         style="stop-color:#ffffff;stop-opacity:0;"
         offset="1"
         id="stop4774" />
    </linearGradient>
    <linearGradient
       inkscape:collect="always"
       id="linearGradient4753">
      <stop
         style="stop-color:#ffffff;stop-opacity:1;"
         offset="0"
         id="stop4755" />
      <stop
         style="stop-color:#ffffff;stop-opacity:0;"
         offset="1"
         id="stop4757" />
    </linearGradient>
    <linearGradient
       inkscape:collect="always"
       id="linearGradient4732">
      <stop
         style="stop-color:#ffffff;stop-opacity:1;"
         offset="0"
         id="stop4734" />
      <stop
         style="stop-color:#ffffff;stop-opacity:0;"
         offset="1"
         id="stop4736" />
    </linearGradient>
    <linearGradient
       inkscape:collect="always"
       id="linearGradient4698">
      <stop
         style="stop-color:#ffffff;stop-opacity:1;"
         offset="0"
         id="stop4700" />
      <stop
         style="stop-color:#ffffff;stop-opacity:0;"
         offset="1"
         id="stop4702" />
    </linearGradient>
    <linearGradient
       inkscape:collect="always"
       id="linearGradient4523">
      <stop
         style="stop-color:#ffffff;stop-opacity:1;"
         offset="0"
         id="stop4525" />
      <stop
         style="stop-color:#ffffff;stop-opacity:0;"
         offset="1"
         id="stop4527" />
    </linearGradient>
    <linearGradient
       inkscape:collect="always"
       id="linearGradient3952">
      <stop
         style="stop-color:#ffffff;stop-opacity:1;"
         offset="0"
         id="stop3954" />
      <stop
         style="stop-color:#ffffff;stop-opacity:0;"
         offset="1"
         id="stop3956" />
    </linearGradient>
    <linearGradient
       id="linearGradient3913">
      <stop
         style="stop-color:#640000;stop-opacity:1;"
         offset="0"
         id="stop3915" />
      <stop
         id="stop3921"
         offset="0.43219149"
         style="stop-color:#ca0000;stop-opacity:1;" />
      <stop
         style="stop-color:#ff0000;stop-opacity:1;"
         offset="0.62616056"
         id="stop3923" />
      <stop
         style="stop-color:#640000;stop-opacity:1;"
         offset="1"
         id="stop3917" />
    </linearGradient>
    <filter
       inkscape:collect="always"
       id="filter4052"
       color-interpolation-filters="sRGB">
      <feGaussianBlur
         inkscape:collect="always"
         stdDeviation="3.2480229"
         id="feGaussianBlur4054" />
    </filter>
    <linearGradient
       inkscape:collect="always"
       xlink:href="#linearGradient3913"
       id="linearGradient4067"
       gradientUnits="userSpaceOnUse"
       x1="278.78571"
       y1="781.02936"
       x2="475.92859"
       y2="953.75311" />
    <linearGradient
       inkscape:collect="always"
       xlink:href="#linearGradient3913"
       id="linearGradient4069"
       gradientUnits="userSpaceOnUse"
       gradientTransform="matrix(1,0.31233173,0,1,-628.57144,-154.31226)"
       x1="278.78571"
       y1="781.02936"
       x2="475.92859"
       y2="953.75311" />
    <filter
       inkscape:collect="always"
       id="filter3931"
       color-interpolation-filters="sRGB">
      <feGaussianBlur
         inkscape:collect="always"
         stdDeviation="9.1374023"
         id="feGaussianBlur3933" />
    </filter>
    <filter
       inkscape:collect="always"
       id="filter4141"
       x="-0.043439899"
       width="1.0868798"
       y="-0.21019594"
       height="1.4203919"
       color-interpolation-filters="sRGB">
      <feGaussianBlur
         inkscape:collect="always"
         stdDeviation="2.9156394"
         id="feGaussianBlur4143" />
    </filter>
    <filter
       inkscape:collect="always"
       id="filter4230"
       x="-0.045632672"
       width="1.0912653"
       y="-0.17054214"
       height="1.3410842"
       color-interpolation-filters="sRGB">
      <feGaussianBlur
         inkscape:collect="always"
         stdDeviation="3.1143742"
         id="feGaussianBlur4232" />
    </filter>
    <filter
       inkscape:collect="always"
       id="filter4479"
       x="-0.14631042"
       width="1.2926208"
       y="-0.2338455"
       height="1.4676909"
       color-interpolation-filters="sRGB">
      <feGaussianBlur
         inkscape:collect="always"
         stdDeviation="7.2107412"
         id="feGaussianBlur4481" />
    </filter>
    <linearGradient
       inkscape:collect="always"
       xlink:href="#linearGradient3952"
       id="linearGradient4490"
       gradientUnits="userSpaceOnUse"
       x1="292.79086"
       y1="1111.317"
       x2="302.1095"
       y2="1073.5281" />
    <filter
       inkscape:collect="always"
       id="filter4657"
       x="-0.092175014"
       width="1.18435"
       y="-0.17188807"
       height="1.3437761"
       color-interpolation-filters="sRGB">
      <feGaussianBlur
         inkscape:collect="always"
         stdDeviation="5.1046027"
         id="feGaussianBlur4659" />
    </filter>
    <linearGradient
       inkscape:collect="always"
       xlink:href="#linearGradient4698"
       id="linearGradient4704"
       x1="140.72147"
       y1="541.74268"
       x2="125.29678"
       y2="595.57922"
       gradientUnits="userSpaceOnUse"
       gradientTransform="translate(282.70879,-172.75905)" />
    <linearGradient
       inkscape:collect="always"
       xlink:href="#linearGradient4523"
       id="linearGradient4709"
       gradientUnits="userSpaceOnUse"
       x1="418.57147"
       y1="450.2193"
       x2="417.69116"
       y2="405.85632" />
    <linearGradient
       inkscape:collect="always"
       xlink:href="#linearGradient4732"
       id="linearGradient4738"
       x1="720.39203"
       y1="267.40961"
       x2="720.99451"
       y2="317.40961"
       gradientUnits="userSpaceOnUse" />
    <linearGradient
       inkscape:collect="always"
       xlink:href="#linearGradient4753"
       id="linearGradient4759"
       x1="395.91263"
       y1="262.05402"
       x2="395.91263"
       y2="313.20761"
       gradientUnits="userSpaceOnUse"
       gradientTransform="translate(5.6062352,11.445256)" />
    <linearGradient
       inkscape:collect="always"
       xlink:href="#linearGradient4770"
       id="linearGradient4776"
       x1="382.00061"
       y1="173.53429"
       x2="382.00061"
       y2="218.26782"
       gradientUnits="userSpaceOnUse" />
    <filter
       inkscape:collect="always"
       id="filter6935"
       color-interpolation-filters="sRGB">
      <feGaussianBlur
         inkscape:collect="always"
         stdDeviation="2.7798739"
         id="feGaussianBlur6937" />
    </filter>
    <filter
       inkscape:collect="always"
       id="filter7031"
       x="-0.052036587"
       width="1.1040732"
       y="-0.1168152"
       height="1.2336304"
       color-interpolation-filters="sRGB">
      <feGaussianBlur
         inkscape:collect="always"
         stdDeviation="9.0880102"
         id="feGaussianBlur7033" />
    </filter>
    <filter
       inkscape:collect="always"
       id="filter7070"
       color-interpolation-filters="sRGB">
      <feGaussianBlur
         inkscape:collect="always"
         stdDeviation="4.1889487"
         id="feGaussianBlur7072" />
    </filter>
    <filter
       inkscape:collect="always"
       id="filter7092"
       color-interpolation-filters="sRGB">
      <feGaussianBlur
         inkscape:collect="always"
         stdDeviation="7.5200054"
         id="feGaussianBlur7094" />
    </filter>
    <linearGradient
       inkscape:collect="always"
       xlink:href="#linearGradient4770"
       id="linearGradient7121"
       gradientUnits="userSpaceOnUse"
       x1="382.00061"
       y1="173.53429"
       x2="382.00061"
       y2="218.26782" />
    <linearGradient
       inkscape:collect="always"
       xlink:href="#linearGradient4753"
       id="linearGradient7123"
       gradientUnits="userSpaceOnUse"
       gradientTransform="translate(5.6062352,11.445256)"
       x1="395.91263"
       y1="262.05402"
       x2="395.91263"
       y2="313.20761" />
    <linearGradient
       inkscape:collect="always"
       xlink:href="#linearGradient4698"
       id="linearGradient7125"
       gradientUnits="userSpaceOnUse"
       gradientTransform="translate(282.70879,-172.75905)"
       x1="140.72147"
       y1="541.74268"
       x2="125.29678"
       y2="595.57922" />
    <linearGradient
       inkscape:collect="always"
       xlink:href="#linearGradient3913"
       id="linearGradient7128"
       gradientUnits="userSpaceOnUse"
       gradientTransform="matrix(1.6223141,0.50670017,0,1.6223141,-252.49077,-1299.3178)"
       x1="278.78571"
       y1="781.02936"
       x2="475.92859"
       y2="953.75311" />
    <filter
       inkscape:collect="always"
       id="filter7148"
       color-interpolation-filters="sRGB">
      <feGaussianBlur
         inkscape:collect="always"
         stdDeviation="3.9679177"
         id="feGaussianBlur7150" />
    </filter>
    <filter
       inkscape:collect="always"
       id="filter7169"
       color-interpolation-filters="sRGB">
      <feGaussianBlur
         inkscape:collect="always"
         stdDeviation="3.9363979"
         id="feGaussianBlur7171" />
    </filter>
    <filter
       inkscape:collect="always"
       id="filter7190"
       color-interpolation-filters="sRGB">
      <feGaussianBlur
         inkscape:collect="always"
         stdDeviation="4.3896875"
         id="feGaussianBlur7192" />
    </filter>
    <filter
       inkscape:collect="always"
       id="filter7211"
       color-interpolation-filters="sRGB">
      <feGaussianBlur
         inkscape:collect="always"
         stdDeviation="3.551655"
         id="feGaussianBlur7213" />
    </filter>
    <filter
       inkscape:collect="always"
       id="filter7220"
       color-interpolation-filters="sRGB">
      <feGaussianBlur
         inkscape:collect="always"
         stdDeviation="7.9690176"
         id="feGaussianBlur7222" />
    </filter>
    <filter
       inkscape:collect="always"
       id="filter7229"
       color-interpolation-filters="sRGB">
      <feGaussianBlur
         inkscape:collect="always"
         stdDeviation="7.7446249"
         id="feGaussianBlur7231" />
    </filter>
    <filter
       inkscape:collect="always"
       id="filter7270"
       color-interpolation-filters="sRGB">
      <feGaussianBlur
         inkscape:collect="always"
         stdDeviation="6.5854186"
         id="feGaussianBlur7272" />
    </filter>
    <linearGradient
       inkscape:collect="always"
       xlink:href="#linearGradient3913"
       id="linearGradient7308"
       gradientUnits="userSpaceOnUse"
       x1="278.78571"
       y1="781.02936"
       x2="475.92859"
       y2="953.75311" />
    <linearGradient
       inkscape:collect="always"
       xlink:href="#linearGradient3913"
       id="linearGradient7340"
       gradientUnits="userSpaceOnUse"
       x1="278.78571"
       y1="781.02936"
       x2="475.92859"
       y2="953.75311" />
    <linearGradient
       inkscape:collect="always"
       xlink:href="#linearGradient4770"
       id="linearGradient7342"
       gradientUnits="userSpaceOnUse"
       x1="382.00061"
       y1="173.53429"
       x2="382.00061"
       y2="218.26782" />
    <linearGradient
       inkscape:collect="always"
       xlink:href="#linearGradient4753"
       id="linearGradient7344"
       gradientUnits="userSpaceOnUse"
       gradientTransform="translate(5.6062352,11.445256)"
       x1="395.91263"
       y1="262.05402"
       x2="395.91263"
       y2="313.20761" />
    <linearGradient
       inkscape:collect="always"
       xlink:href="#linearGradient4698"
       id="linearGradient7346"
       gradientUnits="userSpaceOnUse"
       gradientTransform="translate(282.70879,-172.75905)"
       x1="140.72147"
       y1="541.74268"
       x2="125.29678"
       y2="595.57922" />
    <linearGradient
       inkscape:collect="always"
       xlink:href="#linearGradient3913"
       id="linearGradient7348"
       gradientUnits="userSpaceOnUse"
       gradientTransform="matrix(1.6223141,0.50670017,0,1.6223141,-252.49077,-1299.3178)"
       x1="278.78571"
       y1="781.02936"
       x2="475.92859"
       y2="953.75311" />
  </defs>
  <sodipodi:namedview
     id="base"
     pagecolor="#ffffff"
     bordercolor="#666666"
     borderopacity="1.0"
     inkscape:pageopacity="0.0"
     inkscape:pageshadow="2"
     inkscape:zoom="0.66"
     inkscape:cx="280.57906"
     inkscape:cy="153.92069"
     inkscape:document-units="px"
     inkscape:current-layer="layer1"
     showgrid="false"
     showguides="true"
     inkscape:guide-bbox="true"
     inkscape:window-width="1280"
     inkscape:window-height="911"
     inkscape:window-x="-4"
     inkscape:window-y="-4"
     inkscape:window-maximized="1"
     fit-margin-top="0"
     fit-margin-left="0"
     fit-margin-right="0"
     fit-margin-bottom="0" />
  <metadata
     id="metadata7">
    <rdf:RDF>
      <cc:Work
         rdf:about="">
        <dc:format>image/svg+xml</dc:format>
        <dc:type
           rdf:resource="http://purl.org/dc/dcmitype/StillImage" />
        <dc:title></dc:title>
      </cc:Work>
    </rdf:RDF>
  </metadata>
  <g
     inkscape:label="Layer 1"
     inkscape:groupmode="layer"
     id="layer1"
     transform="translate(-109.7765,-55.936071)">
    <g
       transform="matrix(0.99469609,0.10285758,-0.10285758,0.99469609,-98.261553,154.79184)"
       id="g3037"
       style="font-size:175.48931885px;font-style:normal;font-variant:normal;font-weight:normal;font-stretch:normal;text-indent:0;text-align:start;text-decoration:none;line-height:125%;letter-spacing:0px;word-spacing:0px;text-transform:none;direction:ltr;block-progression:tb;writing-mode:lr-tb;text-anchor:start;color:#000000;fill:#000000;fill-opacity:1;fill-rule:nonzero;stroke:none;stroke-width:1px;marker:none;visibility:visible;display:inline;overflow:visible;enable-background:accumulate;font-family:GrilledCheese BTN Out;-inkscape-font-specification:GrilledCheese BTN Out" />
    <g
       style="font-size:175.48931885px;font-style:normal;font-variant:normal;font-weight:normal;font-stretch:normal;text-indent:0;text-align:start;text-decoration:none;line-height:125%;letter-spacing:0px;word-spacing:0px;text-transform:none;direction:ltr;block-progression:tb;writing-mode:lr-tb;text-anchor:start;color:#000000;fill:#000000;fill-opacity:1;fill-rule:nonzero;stroke:none;stroke-width:1px;marker:none;visibility:visible;display:inline;overflow:visible;enable-background:accumulate;font-family:GrilledCheese BTN Out;-inkscape-font-specification:GrilledCheese BTN Out"
       id="g3829"
       transform="matrix(0.99469609,0.10285758,-0.10285758,0.99469609,-98.261553,546.72953)" />
    <g
       id="g7310"
       transform="matrix(1.014073,0,0,0.97962687,-1.5575429,11.325012)">
      <path
         inkscape:export-ydpi="99"
         inkscape:export-xdpi="99"
         inkscape:export-filename="C:\Documents and Settings\deyal\Επιφάνεια εργασίας\boofLogo4.png"
         inkscape:connector-curvature="0"
         id="path3867"
         d="m 302.31624,67.976506 c -43.09609,-0.056 -80.34728,14.9678 -107.03125,41.750004 -38.9582,26.64852 -63.0625,72.81615 -63.0625,132.15625 0,118.39727 95.97773,244.36453 214.375,281.34375 69.74986,21.7851 131.69465,7.82216 170.84375,-31.53125 38.91627,-26.65608 63,-72.7899 63,-132.09375 0,-118.39727 -95.97774,-244.36453 -214.375,-281.343754 -22.19949,-6.93361 -43.61164,-10.25508 -63.75,-10.28125 z"
         style="fill:#000000;fill-opacity:1;fill-rule:nonzero;stroke:#000000;stroke-width:0.99999994;stroke-linecap:round;stroke-linejoin:round;stroke-miterlimit:4;stroke-opacity:1;stroke-dasharray:none;stroke-dashoffset:0;filter:url(#filter3931)" />
      <path
         inkscape:export-ydpi="99"
         inkscape:export-xdpi="99"
         inkscape:export-filename="C:\Documents and Settings\deyal\Επιφάνεια εργασίας\boofLogo4.png"
         transform="matrix(1.6223141,0.50670017,0,1.6223141,-252.49075,-1299.3178)"
         d="m 505,872.36218 c 0,72.98049 -59.16237,132.14282 -132.14285,132.14282 -72.98049,0 -132.14286,-59.16233 -132.14286,-132.14282 0,-72.98048 59.16237,-132.14285 132.14286,-132.14285 C 445.83763,740.21933 505,799.3817 505,872.36218 z"
         sodipodi:ry="132.14285"
         sodipodi:rx="132.14285"
         sodipodi:cy="872.36218"
         sodipodi:cx="372.85715"
         id="path3909"
         style="fill:url(#linearGradient7340);fill-opacity:1;fill-rule:nonzero;stroke:#000000;stroke-width:0.6164034;stroke-linecap:round;stroke-linejoin:round;stroke-miterlimit:4;stroke-opacity:1;stroke-dasharray:none;stroke-dashoffset:0"
         sodipodi:type="arc" />
      <path
         inkscape:export-ydpi="99"
         inkscape:export-xdpi="99"
         inkscape:export-filename="C:\Documents and Settings\deyal\Επιφάνεια εργασίας\boofLogo4.png"
         sodipodi:type="arc"
         style="fill:#ffffff;fill-opacity:1;fill-rule:nonzero;stroke:#000000;stroke-width:0.6164034;stroke-linecap:round;stroke-linejoin:round;stroke-miterlimit:4;stroke-opacity:1;stroke-dasharray:none;stroke-dashoffset:0"
         id="path3911"
         sodipodi:cx="372.85715"
         sodipodi:cy="872.36218"
         sodipodi:rx="132.14285"
         sodipodi:ry="132.14285"
         d="m 505,872.36218 c 0,72.98049 -59.16237,132.14282 -132.14285,132.14282 -72.98049,0 -132.14286,-59.16233 -132.14286,-132.14282 0,-72.98048 59.16237,-132.14285 132.14286,-132.14285 C 445.83763,740.21933 505,799.3817 505,872.36218 z"
         transform="matrix(1.6223141,0.50670017,0,1.6223141,-233.02298,-1315.5409)" />
      <path
         inkscape:export-ydpi="99"
         inkscape:export-xdpi="99"
         inkscape:export-filename="C:\Documents and Settings\deyal\Επιφάνεια εργασίας\boofLogo4.png"
         sodipodi:end="1.2566371"
         sodipodi:start="0"
         transform="matrix(1.6223141,0.50670017,0,1.6223141,-233.02298,-1315.5409)"
         d="m 505,872.36218 c 0,57.24776 -36.86262,107.9848 -91.30847,125.67533 L 372.85715,872.36218 z"
         sodipodi:ry="132.14285"
         sodipodi:rx="132.14285"
         sodipodi:cy="872.36218"
         sodipodi:cx="372.85715"
         id="path3925"
         style="fill:#00aad4;fill-opacity:1;fill-rule:nonzero;stroke:#000000;stroke-width:0.49312276;stroke-linecap:round;stroke-linejoin:round;stroke-miterlimit:4;stroke-opacity:1;stroke-dasharray:none;stroke-dashoffset:0"
         sodipodi:type="arc" />
      <path
         inkscape:export-ydpi="99"
         inkscape:export-xdpi="99"
         inkscape:export-filename="C:\Documents and Settings\deyal\Επιφάνεια εργασίας\boofLogo4.png"
         sodipodi:end="3.7699112"
         sodipodi:start="2.5132741"
         transform="matrix(1.6223141,0.50670017,0,1.6223141,-233.02298,-1315.5409)"
         d="m 265.95134,950.03381 c -33.64939,-46.31441 -33.64939,-109.02884 -1e-5,-155.34325 l 106.90582,77.67162 z"
         sodipodi:ry="132.14285"
         sodipodi:rx="132.14285"
         sodipodi:cy="872.36218"
         sodipodi:cx="372.85715"
         id="path3929"
         style="fill:#0000ff;fill-opacity:1;fill-rule:nonzero;stroke:#000000;stroke-width:0.49312276;stroke-linecap:round;stroke-linejoin:round;stroke-miterlimit:4;stroke-opacity:1;stroke-dasharray:none;stroke-dashoffset:0"
         sodipodi:type="arc" />
      <path
         inkscape:export-ydpi="99"
         inkscape:export-xdpi="99"
         inkscape:export-filename="C:\Documents and Settings\deyal\Επιφάνεια εργασίας\boofLogo4.png"
         sodipodi:end="5.0265482"
         sodipodi:start="3.7699112"
         transform="matrix(1.6223141,0.50670017,0,1.6223141,-233.02298,-1315.5409)"
         d="m 265.95133,794.69056 c 33.64939,-46.3144 93.29435,-65.69423 147.7402,-48.0037 l -40.83438,125.67532 z"
         sodipodi:ry="132.14285"
         sodipodi:rx="132.14285"
         sodipodi:cy="872.36218"
         sodipodi:cx="372.85715"
         id="path3931"
         style="fill:#ffff00;fill-opacity:1;fill-rule:nonzero;stroke:#000000;stroke-width:0.49312276;stroke-linecap:round;stroke-linejoin:round;stroke-miterlimit:4;stroke-opacity:1;stroke-dasharray:none;stroke-dashoffset:0"
         sodipodi:type="arc" />
      <path
         inkscape:export-ydpi="99"
         inkscape:export-xdpi="99"
         inkscape:export-filename="C:\Documents and Settings\deyal\Επιφάνεια εργασίας\boofLogo4.png"
         sodipodi:end="6.2831853"
         sodipodi:start="5.0265482"
         transform="matrix(1.6223141,0.50670017,0,1.6223141,-233.02298,-1315.5409)"
         d="M 413.69153,746.68686 C 468.13738,764.37739 505,815.11443 505,872.36218 l -132.14285,0 z"
         sodipodi:ry="132.14285"
         sodipodi:rx="132.14285"
         sodipodi:cy="872.36218"
         sodipodi:cx="372.85715"
         id="path3933"
         style="fill:#ff0000;fill-opacity:1;fill-rule:nonzero;stroke:#000000;stroke-width:0.49312276;stroke-linecap:round;stroke-linejoin:round;stroke-miterlimit:4;stroke-opacity:1;stroke-dasharray:none;stroke-dashoffset:0"
         sodipodi:type="arc" />
      <path
         inkscape:export-ydpi="99"
         inkscape:export-xdpi="99"
         inkscape:export-filename="C:\Documents and Settings\deyal\Επιφάνεια εργασίας\boofLogo4.png"
         sodipodi:type="arc"
         style="fill:#008000;fill-opacity:1;fill-rule:nonzero;stroke:#000000;stroke-width:0.49312276;stroke-linecap:round;stroke-linejoin:round;stroke-miterlimit:4;stroke-opacity:1;stroke-dasharray:none;stroke-dashoffset:0"
         id="path3927"
         sodipodi:cx="372.85715"
         sodipodi:cy="872.36218"
         sodipodi:rx="132.14285"
         sodipodi:ry="132.14285"
         d="m 413.69153,998.03751 c -54.44585,17.69049 -114.09081,-1.6893 -147.74019,-48.0037 l 106.90581,-77.67163 z"
         transform="matrix(1.6223141,0.50670017,0,1.6223141,-233.02298,-1315.5409)"
         sodipodi:start="1.2566371"
         sodipodi:end="2.5132741" />
      <g
         inkscape:export-ydpi="99"
         inkscape:export-xdpi="99"
         inkscape:export-filename="C:\Documents and Settings\deyal\Επιφάνεια εργασίας\boofLogo4.png"
         transform="translate(0.97054,0)"
         id="g7102">
        <path
           sodipodi:nodetypes="ccccccsssccc"
           id="path4075"
           style="font-size:162.44822693px;font-style:normal;font-variant:normal;font-weight:100;font-stretch:normal;text-indent:0;text-align:start;text-decoration:none;line-height:125%;letter-spacing:0px;word-spacing:0px;text-transform:none;direction:ltr;block-progression:tb;writing-mode:lr-tb;text-anchor:start;baseline-shift:baseline;color:#000000;fill:#ffffff;fill-opacity:1;fill-rule:nonzero;stroke:#ffffff;stroke-width:2.0999999;stroke-miterlimit:4;stroke-dasharray:none;marker:none;visibility:visible;display:inline;overflow:visible;enable-background:accumulate;font-family:MgHoboFun;-inkscape-font-specification:MgHoboFun Thin"
           d="m 342.21249,254.77912 c 6.02801,1e-4 11.36474,2.9534 15.53125,8.375 0.009,0.012 0.0219,0.019 0.0312,0.031 4.35683,5.4368 6.40619,12.8894 6.40625,22.1563 -6e-5,10.1189 -1.9656,18.2377 -6.1875,24.2187 l -0.0312,0.031 c -4.17074,5.7926 -9.69377,8.9375 -16.0625,8.9375 -5.97334,0 -11.23424,-3.1153 -15.28125,-8.7812 -4.14208,-5.7989 -6.06252,-13.978 -6.0625,-24.4063 -2e-5,-9.4877 1.99876,-16.9905 6.28125,-22.3437 4.17015,-5.3285 9.44249,-8.2187 15.375,-8.2188 z"
           inkscape:connector-curvature="0"
           inkscape:export-filename="C:\Documents and Settings\deyal\Επιφάνεια εργασίας\boofLogo3.png"
           inkscape:export-xdpi="99"
           inkscape:export-ydpi="99" />
        <path
           style="font-size:162.44822693px;font-style:normal;font-variant:normal;font-weight:100;font-stretch:normal;text-indent:0;text-align:start;text-decoration:none;line-height:125%;letter-spacing:0px;word-spacing:0px;text-transform:none;direction:ltr;block-progression:tb;writing-mode:lr-tb;text-anchor:start;baseline-shift:baseline;color:#000000;fill:#000000;fill-opacity:1;fill-rule:nonzero;stroke:none;stroke-width:1;marker:none;visibility:visible;display:inline;overflow:visible;filter:url(#filter7092);enable-background:accumulate;font-family:MgHoboFun;-inkscape-font-specification:MgHoboFun Thin"
           d="m 525.59375,186 c -24.32537,-0.0863 -47.54561,15.33298 -56.53125,37.90625 -2.68725,5.83197 -3.84059,12.47067 -5.09375,18.5 -2.72739,2.70662 -4.62486,0.67358 -6.875,-1.53125 -17.31103,-14.76841 -43.99983,-17.07695 -63.46875,-5.09375 -5.89813,3.45192 -11.36198,7.91119 -15.6875,13.21875 -15.77217,-19.61472 -45.37483,-27.07932 -68.03125,-15.3125 -7.32309,3.61287 -13.89538,8.71278 -19.15625,14.90625 3.85045,-11.77223 2.58771,-25.44229 -4.8125,-35.375 -11.96075,-17.64198 -35.53398,-22.32749 -55.78125,-19.9375 -22.66245,2.87445 -44.99642,9.02649 -66.65618,16.17289 -12.02771,5.24435 -16.29943,21.00413 -10.12683,32.22868 5.0501,10.391 6.01521,23.44882 14.87676,31.56718 2.70975,3.49656 9.41567,2.62239 8.89297,8.25139 7.19534,27.00898 13.22474,54.40791 21.10703,81.18611 5.32049,11.70037 20.24868,15.78393 31.55886,10.63075 20.73057,-5.81954 42.53078,-11.62873 59.09739,-26.037 13.72615,18.64244 39.45312,29.55108 61.9375,21.125 10.56743,-3.6344 20.06913,-10.40061 27.09375,-19.0625 14.50215,18.54584 41.5329,27.85599 63.59375,17.78125 5.59855,-2.0035 10.98388,-6.30302 15.40625,-9.03125 5.91532,9.1782 17.09363,11.46567 27.07049,11.73906 10.46407,0.93422 22.06956,4.36923 31.67951,-1.70781 4.52258,-2.03652 8.97128,-8.40346 11.09375,-14.125 2.87251,-12.17109 2.4868,-24.98585 4.25,-37.375 12.85047,-1.5507 20.96101,-14.55379 20.71514,-26.6838 0.63129,-9.34846 3.87571,-18.50524 0.22236,-27.4412 11.21611,-3.30146 16.83987,-15.46251 16.55287,-26.49961 0.54923,-10.90386 4.90127,-23.0045 -1.58412,-32.93789 -3.02239,-5.93618 -7.71672,-9.9216 -12.96875,-13.1875 C 552.8797,191.17073 548.55761,188.17482 546,188.09375 539.30296,186.67016 532.45232,185.8912 525.59375,186 z"
           id="path7074"
           inkscape:connector-curvature="0"
           transform="matrix(1,0,0.01007338,1,-1.9644707,0)" />
        <path
           d="m 532.28125,180.03125 c -10.54535,0.41217 -20.92487,3.38594 -29.84375,8.875 -0.0398,0.0245 -0.0853,0.0379 -0.125,0.0625 -12.4256,7.60233 -21.48972,20.14544 -25.75,34.1875 -0.003,0.01 0.003,0.0214 0,0.0312 -0.007,0.0223 -0.0245,0.0402 -0.0312,0.0625 -1.23009,4.02635 -1.92581,8.04851 -2.46875,12.40625 -1.55386,0.66128 -3.11824,1.5197 -4.625,2.65625 -0.25239,0.19038 -0.4166,0.42658 -0.65625,0.625 -10.05648,-10.17452 -23.88721,-16.8436 -37.96875,-16.84375 l -1.78125,0 c -15.47842,1.6e-4 -30.82439,7.72681 -41.09375,19.5625 -0.0248,0.0284 -0.0377,0.0653 -0.0625,0.0937 -0.6974,0.80028 -1.28942,1.66609 -1.9375,2.5 -0.6517,-0.83916 -1.26713,-1.69488 -1.96875,-2.5 -0.0242,-0.028 -0.0382,-0.0658 -0.0625,-0.0937 -10.26936,-11.83569 -25.61533,-19.56234 -41.09375,-19.5625 l -1.78125,0 c -15.32516,1.6e-4 -30.41572,7.83107 -40.59375,19.5625 -0.0242,0.028 -0.0383,0.0658 -0.0625,0.0937 -2.79564,3.20809 -5.19746,6.69521 -7.21875,10.40625 -0.42407,-0.4117 -0.84259,-0.82114 -1.28125,-1.21875 4.36,-7.33753 6.96862,-15.09102 6.96875,-24.75 -5.4e-4,-8.14108 -2.10511,-11.45014 -4.09375,-15.46875 -0.01,-0.0222 -0.0212,-0.0403 -0.0312,-0.0625 -0.0761,-0.15418 -0.14312,-0.31207 -0.21875,-0.46875 l -0.0625,0.0312 c -4.18328,-8.88701 -11.4381,-14.18576 -18.59375,-17.65625 l 0,-0.0312 c -0.0808,-0.0404 -0.16905,-0.0538 -0.25,-0.0937 -0.0335,-0.0165 -0.0602,-0.0461 -0.0937,-0.0625 -8.46009,-4.14711 -17.59094,-5.59349 -26.96875,-5.59375 -10.53958,2.6e-4 -21.94318,1.78696 -34.9375,4.9375 -0.0658,0.016 -0.12165,0.0152 -0.1875,0.0312 -12.44952,2.92082 -25.18364,6.36435 -38.21875,10.375 a 20.750833,20.750833 0 0 0 -13.34375,27.125 l 9.75,26 a 20.750833,20.750833 0 0 0 14.21875,12.78125 l 20.84375,81.875 A 20.750833,20.750833 0 0 0 232.4375,364.75 l 18.21875,-5.1875 a 20.750833,20.750833 0 0 0 0.0937,-0.0312 c 19.44524,-5.65678 34.82844,-12.38819 46.5,-23.28125 1.00619,1.44869 2.0507,2.88693 3.1875,4.25 0.0241,0.0289 0.0384,0.0649 0.0625,0.0937 a 20.750833,20.750833 0 0 0 1.5,1.625 c 10.248,11.45562 25.06149,19.0625 40.1875,19.0625 15.76299,0 31.23214,-8.20499 41.59375,-20.4375 a 20.750833,20.750833 0 0 0 0.0625,-0.0937 c 0.74819,-0.89368 1.40229,-1.85018 2.09375,-2.78125 0.68804,0.92586 1.31834,1.89239 2.0625,2.78125 a 20.750833,20.750833 0 0 0 0.0625,0.0937 c 10.36161,12.23251 25.83076,20.4375 41.59375,20.4375 13.05708,0 25.85255,-5.7123 35.71875,-14.625 0.5177,1.02743 0.9798,2.04638 1.71875,3.0625 4.48341,6.16512 11.63061,8.61587 15.96875,9.09375 l 0,0.0312 0.125,0 25.53125,2.8125 a 20.750833,20.750833 0 0 0 0.125,0 c 5.59553,0.57995 11.73461,-1.72091 15.4375,-4.25 l 0.0625,0.0937 c 0.13667,-0.0967 0.26972,-0.27063 0.40625,-0.375 0.2175,-0.15846 0.52304,-0.30975 0.71875,-0.46875 l -0.0937,-0.125 c 4.08666,-3.47898 7.91981,-9.97606 8.46875,-15.28125 a 20.750833,20.750833 0 0 0 0.0312,-0.125 l 3.3125,-34.25 c 3.59674,-0.38157 7.66683,-1.52919 11.40625,-4.4375 5.92634,-4.60917 8.00946,-11.25252 8.5,-15.40625 l 0.0312,0 0.0312,-0.3125 2.34375,-19.78125 0.0937,-0.6875 -0.0312,0 c 0.39324,-3.28835 0.0567,-8.1832 -2.34375,-13 3.345,-0.86296 6.83661,-2.39781 9.65625,-5.03125 5.33177,-4.97968 6.65464,-10.82908 7.03125,-14.46875 L 576.5,208.59375 c 0.76443,-7.40087 -5.6233,-18.75765 -12,-22.375 l 0.0312,-0.0625 c -0.14698,-0.0789 -0.29101,-0.11089 -0.4375,-0.1875 -0.0438,-0.0226 -0.0812,-0.0719 -0.125,-0.0937 l 0,0.0312 c -7.07094,-3.66903 -13.60861,-4.72914 -21.0625,-5.5 -3.47622,-0.35943 -7.00891,-0.51634 -10.625,-0.375 z"
           id="path7047"
           style="font-size:162.44822693px;font-style:normal;font-variant:normal;font-weight:100;font-stretch:normal;text-indent:0;text-align:start;text-decoration:none;line-height:125%;letter-spacing:0px;word-spacing:0px;text-transform:none;direction:ltr;block-progression:tb;writing-mode:lr-tb;text-anchor:start;baseline-shift:baseline;color:#000000;fill:#d40000;fill-opacity:1;fill-rule:nonzero;stroke:none;stroke-width:1;marker:none;visibility:visible;display:inline;overflow:visible;enable-background:accumulate;font-family:MgHoboFun;-inkscape-font-specification:MgHoboFun Thin"
           inkscape:original="M 533.09375 200.75 C 525.68763 201.03947 519.06293 203.00827 513.21875 206.625 C 505.06789 211.5827 499.46439 219.11409 496.40625 229.25 C 495.02112 233.7587 494.00554 242.6956 493.3125 256.0625 L 483.71875 254.5625 C 482.19041 254.3471 481.34026 254.99145 481.1875 256.46875 C 480.9407 258.85535 480.95978 264.62315 481.21875 273.78125 C 481.26585 274.99225 481.75863 275.68715 482.71875 275.84375 L 491.3125 277.0625 L 483.59375 335.875 C 483.39006 337.2897 483.94875 338.07765 485.3125 338.21875 L 510.96875 341.03125 C 511.48011 341.08425 511.93607 340.9191 512.375 340.5625 C 512.87067 340.2118 513.15407 339.7501 513.21875 339.125 L 518.59375 283.75 L 534.28125 286.34375 C 535.63905 286.54165 536.39017 285.95755 536.53125 284.59375 L 539 263.8125 C 539.18018 262.6252 538.68732 261.96155 537.5 261.78125 L 519.96875 258.84375 C 520.43876 254.29805 521.13794 249.3686 522.03125 244.0625 C 523.614 234.8651 530.53879 230.88715 542.8125 232.15625 C 543.77841 232.25625 545.19903 232.47385 547.0625 232.78125 C 548.98262 233.09485 550.40894 233.30645 551.375 233.40625 C 552.51137 233.52385 553.14601 232.932 553.28125 231.625 L 555.875 206.46875 C 555.9689 205.55965 555.59257 204.8726 554.71875 204.4375 C 551.67175 202.8017 547.03165 201.67765 540.78125 201.03125 C 538.13899 200.75805 535.56246 200.65351 533.09375 200.75 z M 248.53125 207.53125 C 240.40878 207.53145 230.33362 208.98235 218.3125 211.90625 C 206.29131 214.72215 193.9522 218.07015 181.28125 221.96875 L 191.03125 247.96875 C 193.9553 243.85355 196.76126 241.8126 199.46875 241.8125 C 200.01022 241.8126 200.45634 242.13155 200.78125 242.78125 L 226.75 344.78125 L 244.96875 339.59375 C 262.83797 334.39545 275.59194 328.16225 283.28125 320.90625 C 290.97036 313.65025 294.81239 306.23715 294.8125 298.65625 C 294.81239 290.85875 292.05438 283.9398 286.53125 277.875 C 283.39048 271.702 279.54845 267.04695 275 263.90625 C 270.55966 260.65735 265.31465 259.03135 259.25 259.03125 C 271.81258 244.62765 278.09365 233.66021 278.09375 226.1875 C 278.09365 224.6714 277.32859 222.35955 275.8125 219.21875 C 274.40453 216.07825 271.32756 213.36815 266.5625 211.09375 C 261.79728 208.71125 255.7872 207.53145 248.53125 207.53125 z M 247.0625 230.25 C 249.7699 230.2501 252.38406 230.6003 254.875 231.25 C 257.3658 231.7916 258.59367 233.3384 258.59375 235.9375 C 258.59367 241.3525 252.8546 249.60985 241.375 260.65625 L 232.59375 268.75 L 226.125 233.6875 C 236.19674 231.4133 243.16368 230.2501 247.0625 230.25 z M 341.03125 242.84375 C 331.54015 242.84385 323.35697 246.872 316.0625 255.3125 C 308.86781 263.5352 305.18758 275.0128 305.1875 290.0625 C 305.18758 306.0979 308.97868 318.40945 316.40625 327.28125 L 316.4375 327.28125 C 323.8421 336.25015 332.27363 340.53125 342.1875 340.53125 C 351.99393 340.53125 360.42336 336.3084 367.9375 327.4375 C 375.36272 318.5685 379.15625 306.2083 379.15625 290.0625 C 379.15625 275.0128 375.47602 263.5352 368.28125 255.3125 C 360.9961 246.8827 352.64673 242.84385 342.8125 242.84375 L 341.03125 242.84375 z M 429.03125 242.84375 C 419.19702 242.84385 410.84765 246.8827 403.5625 255.3125 C 396.36773 263.5352 392.6875 275.0128 392.6875 290.0625 C 392.6875 306.2083 396.48103 318.5685 403.90625 327.4375 C 411.42039 336.3084 419.84982 340.53125 429.65625 340.53125 C 439.57012 340.53125 448.00165 336.25015 455.40625 327.28125 L 455.4375 327.28125 C 462.86507 318.40945 466.65617 306.0979 466.65625 290.0625 C 466.65617 275.0128 462.97594 263.5352 455.78125 255.3125 C 448.48678 246.872 440.3036 242.84385 430.8125 242.84375 L 429.03125 242.84375 z M 251.4375 269.40625 C 255.66108 270.70595 259.58231 274.006 263.15625 279.3125 C 266.73003 284.5109 268.89807 288.35285 269.65625 290.84375 L 270.125 293.9375 C 270.12492 300.5437 266.95204 305.64495 260.5625 309.21875 C 254.1728 312.79265 247.66866 315.32755 241.0625 316.84375 L 235.21875 282.40625 C 239.33404 279.59045 244.72291 275.25445 251.4375 269.40625 z "
           inkscape:radius="20.748758"
           sodipodi:type="inkscape:offset" />
        <path
           d="m 532.6875,190.25 c -8.99858,0.35171 -17.53502,2.8402 -24.9375,7.40625 a 0.53574054,0.53574054 0 0 0 -0.0312,0.0312 c -0.0155,0.008 -0.01,-0.013 -0.0312,0 a 0.53574054,0.53574054 0 0 0 -0.0312,0.0312 c -10.22378,6.25906 -17.47037,16.23293 -21.15625,28.21875 -0.004,0.0128 -0.0273,0.0185 -0.0312,0.0312 a 0.53574054,0.53574054 0 0 0 -0.0312,0.0625 0.53574054,0.53574054 0 0 0 -0.0625,0.125 c -0.0132,0.0429 0.004,0.0316 0,0.0625 -0.0137,0.0946 -0.0323,0.17909 -0.0312,0.1875 -1.36441,4.55337 -2.11424,10.65732 -2.6875,17.78125 -2.35302,-0.10081 -5.30047,0.25267 -8.03125,2.3125 -3.30888,2.4959 -4.6065,6.27837 -4.875,8.875 -0.10676,1.03242 -0.12681,2.40119 -0.15625,3.6875 -1.8846,-3.84161 -4.09608,-7.44296 -6.875,-10.625 -0.0592,-0.0685 -0.0706,-0.0766 -0.0312,-0.0312 -8.76233,-10.12186 -20.40782,-16.06237 -32.875,-16.0625 l -1.78125,0 c -12.71425,1.3e-4 -24.57064,5.89249 -33.375,16.0625 0.0393,-0.0454 0.028,-0.0373 -0.0312,0.0312 -4.33078,4.95897 -7.48249,10.80827 -9.6875,17.3125 -2.20887,-6.50694 -5.3875,-12.35299 -9.71875,-17.3125 -0.0592,-0.0685 -0.0706,-0.0766 -0.0312,-0.0312 -8.80436,-10.17001 -20.66075,-16.06237 -33.375,-16.0625 l -1.78125,0 c -12.46718,1.3e-4 -24.11267,5.94064 -32.875,16.0625 0.0393,-0.0454 0.028,-0.0373 -0.0312,0.0312 -6.00123,6.87181 -9.68711,15.49791 -11.65625,25.21875 -0.3507,-0.48276 -0.6997,-0.96384 -1.09375,-1.4375 -0.0111,-0.0209 -0.0202,-0.0416 -0.0312,-0.0625 -0.01,-0.0115 -0.0216,-0.0198 -0.0312,-0.0312 -3.62662,-6.82055 -8.25381,-12.57153 -14.125,-16.6875 -0.0671,-0.0491 -0.099,-0.0663 -0.0937,-0.0625 -0.0105,-0.007 -0.0489,-0.0412 -0.125,-0.0937 -1.11992,-0.80551 -2.31026,-1.45057 -3.5,-2.09375 6.90414,-9.31387 11.12488,-17.72432 11.125,-27 -3.2e-4,-4.84606 -1.50836,-7.72087 -3.21875,-11.25 -0.0332,-0.0685 -0.0632,-0.15318 -0.125,-0.28125 a 0.53574054,0.53574054 0 0 0 -0.0312,-0.0937 0.53574054,0.53574054 0 0 0 -0.0937,-0.0937 c -2.84142,-5.92807 -7.99444,-9.92288 -13.84375,-12.75 -0.008,-0.004 -0.0231,0.004 -0.0312,0 -0.0531,-0.0266 -0.0992,-0.0656 -0.15625,-0.0937 -6.637,-3.27181 -14.24833,-4.59352 -22.5625,-4.59375 -9.2999,2.3e-4 -19.9755,1.6165 -32.40625,4.625 -0.0514,0.0124 -0.10479,-0.0125 -0.15625,0 a 0.53574054,0.53574054 0 0 0 -0.0625,0 c -0.0455,0.0106 -0.0342,0.0192 -0.0625,0.0312 -12.24629,2.87028 -24.79167,6.29182 -37.65625,10.25 -0.15327,0.0471 -0.34933,0.10142 -0.5,0.15625 -0.15067,0.0548 -0.35232,0.12506 -0.5,0.1875 -0.14768,0.0624 -0.35569,0.14887 -0.5,0.21875 -0.14431,0.0699 -0.32819,0.17285 -0.46875,0.25 -0.14056,0.0771 -0.33231,0.19704 -0.46875,0.28125 -0.13644,0.0842 -0.30553,0.19019 -0.4375,0.28125 -0.13197,0.0911 -0.31034,0.21484 -0.4375,0.3125 -0.12716,0.0977 -0.28423,0.23973 -0.40625,0.34375 -0.12202,0.10402 -0.28969,0.2649 -0.40625,0.375 -0.11656,0.1101 -0.26421,0.2591 -0.375,0.375 -0.11079,0.1159 -0.27026,0.2536 -0.375,0.375 -0.10474,0.1214 -0.24533,0.31092 -0.34375,0.4375 -0.0984,0.12658 -0.22066,0.27482 -0.3125,0.40625 -0.0918,0.13143 -0.19623,0.33281 -0.28125,0.46875 -0.085,0.13594 -0.20327,0.2974 -0.28125,0.4375 -0.078,0.1401 -0.17926,0.35611 -0.25,0.5 -0.0707,0.14389 -0.15544,0.32144 -0.21875,0.46875 -0.0633,0.14731 -0.16303,0.34966 -0.21875,0.5 -0.0557,0.15034 -0.10827,0.34701 -0.15625,0.5 -0.048,0.15299 -0.11613,0.37602 -0.15625,0.53125 -0.0401,0.15523 -0.0928,0.37417 -0.125,0.53125 -0.0322,0.15708 -0.0696,0.34149 -0.0937,0.5 -0.0241,0.15851 -0.0465,0.37171 -0.0625,0.53125 -0.016,0.15954 -0.0234,0.37111 -0.0312,0.53125 -0.008,0.16014 -3.3e-4,0.40216 0,0.5625 3.3e-4,0.16034 -0.008,0.37114 0,0.53125 0.008,0.16011 0.0146,0.37178 0.0312,0.53125 0.0166,0.15947 0.069,0.37284 0.0937,0.53125 0.0248,0.15841 0.0609,0.3743 0.0937,0.53125 0.0328,0.15695 0.0842,0.34493 0.125,0.5 0.0408,0.15507 0.0764,0.37846 0.125,0.53125 0.0486,0.15279 0.13117,0.34988 0.1875,0.5 l 9.75,26 c 0.0531,0.14151 0.12763,0.32996 0.1875,0.46875 0.0599,0.13879 0.15228,0.333 0.21875,0.46875 0.0665,0.13575 0.14584,0.3051 0.21875,0.4375 0.0729,0.1324 0.17081,0.30875 0.25,0.4375 0.0792,0.12875 0.19596,0.31271 0.28125,0.4375 0.0853,0.12479 0.22131,0.2857 0.3125,0.40625 0.0912,0.12055 0.21563,0.25897 0.3125,0.375 0.0969,0.11603 0.21016,0.26376 0.3125,0.375 0.10234,0.11124 0.23619,0.26881 0.34375,0.375 0.10756,0.10619 0.26246,0.24285 0.375,0.34375 0.11254,0.1009 0.28899,0.24837 0.40625,0.34375 0.11726,0.0954 0.25329,0.22287 0.375,0.3125 0.12171,0.0896 0.31162,0.19757 0.4375,0.28125 0.12588,0.0837 0.2765,0.17247 0.40625,0.25 0.12975,0.0775 0.30417,0.17879 0.4375,0.25 0.13333,0.0712 0.33216,0.18528 0.46875,0.25 0.13659,0.0647 0.29795,0.12942 0.4375,0.1875 0.13955,0.0581 0.35782,0.13619 0.5,0.1875 0.14218,0.0513 0.32427,0.11183 0.46875,0.15625 0.14448,0.0444 0.3223,0.11883 0.46875,0.15625 0.14645,0.0374 0.35193,0.0634 0.5,0.0937 0.14807,0.0303 0.35064,0.0706 0.5,0.0937 0.14936,0.0232 0.3497,0.0465 0.5,0.0625 0.1503,0.016 0.3491,0.0225 0.5,0.0312 0.1509,0.009 0.34886,0.0298 0.5,0.0312 0.15114,0.001 0.34896,0.006 0.5,0 0.15104,-0.006 0.38066,-0.0182 0.53125,-0.0312 0.15059,-0.013 0.35021,-0.0423 0.5,-0.0625 0.14979,-0.0202 0.35136,-0.0663 0.5,-0.0937 0.14864,-0.0274 0.3216,-0.0592 0.46875,-0.0937 0.11902,-0.0279 0.27594,-0.058 0.40625,-0.0937 l 22.75,89.28125 c 0.0388,0.15202 0.1099,0.35011 0.15625,0.5 0.0463,0.14989 0.10248,0.3526 0.15625,0.5 0.0538,0.1474 0.12644,0.35547 0.1875,0.5 0.0611,0.14453 0.15056,0.32744 0.21875,0.46875 0.0682,0.14131 0.17485,0.33102 0.25,0.46875 0.0752,0.13773 0.16807,0.33494 0.25,0.46875 0.0819,0.13381 0.224,0.30794 0.3125,0.4375 0.0885,0.12956 0.1864,0.28127 0.28125,0.40625 0.0949,0.12498 0.24278,0.28616 0.34375,0.40625 0.10097,0.12009 0.23692,0.29134 0.34375,0.40625 0.10683,0.11491 0.26257,0.26556 0.375,0.375 0.11243,0.10944 0.25725,0.24006 0.375,0.34375 0.11775,0.10369 0.28348,0.24606 0.40625,0.34375 0.12277,0.0977 0.27876,0.22106 0.40625,0.3125 0.12749,0.0914 0.3056,0.22753 0.4375,0.3125 0.1319,0.085 0.30153,0.17171 0.4375,0.25 0.13597,0.0783 0.32904,0.17859 0.46875,0.25 0.13971,0.0714 0.32566,0.18565 0.46875,0.25 0.14309,0.0643 0.35387,0.13037 0.5,0.1875 0.14613,0.0571 0.31996,0.13773 0.46875,0.1875 0.14879,0.0498 0.34891,0.11396 0.5,0.15625 0.15109,0.0423 0.37824,0.0903 0.53125,0.125 0.15301,0.0347 0.34545,0.0667 0.5,0.0937 0.15455,0.027 0.37554,0.0745 0.53125,0.0937 0.15571,0.0193 0.34352,0.0198 0.5,0.0312 0.15648,0.0115 0.3744,0.0276 0.53125,0.0312 0.15685,0.004 0.37441,0.004 0.53125,0 0.15684,-0.004 0.37481,-0.0193 0.53125,-0.0312 0.15644,-0.012 0.34435,-0.0115 0.5,-0.0312 0.15565,-0.0198 0.37678,-0.0663 0.53125,-0.0937 0.15447,-0.0275 0.3471,-0.0586 0.5,-0.0937 0.1529,-0.0352 0.38029,-0.1135 0.53125,-0.15625 l 18.21875,-5.1875 a 0.53574054,0.53574054 0 0 0 0.0625,-0.0312 c 0.0334,-0.01 0.0604,-0.0215 0.0937,-0.0312 18.69055,-5.44574 32.80212,-11.94237 42.5,-21.09375 3.53359,-3.33456 6.35661,-6.97872 8.71875,-10.78125 2.19933,6.03921 5.15326,11.53724 9.125,16.28125 0.10214,0.11939 0.23577,0.29211 0.34375,0.40625 0.10798,0.11414 0.26146,0.26639 0.375,0.375 0.11354,0.10861 0.25617,0.24095 0.375,0.34375 0.11883,0.1028 0.28244,0.24701 0.40625,0.34375 8.70059,9.71476 20.07041,15.53125 32.34375,15.53125 12.79951,0 24.69951,-6.19544 33.65625,-16.71875 a 0.53574054,0.53574054 0 0 0 0.0312,-0.0312 c 0.0143,-0.0169 0.0482,-0.0144 0.0625,-0.0312 a 0.53574054,0.53574054 0 0 0 0,-0.0312 0.53574054,0.53574054 0 0 0 0.0625,-0.0312 c 4.44901,-5.3141 7.69575,-11.55516 9.9375,-18.5 2.23791,6.94119 5.45821,13.18708 9.90625,18.5 a 0.53574054,0.53574054 0 0 0 0.0625,0.0312 0.53574054,0.53574054 0 0 0 0.0625,0.0625 c 0.01,0.0114 0.0216,0.0199 0.0312,0.0312 8.95674,10.52331 20.85674,16.71875 33.65625,16.71875 12.33652,0 23.75102,-5.88145 32.46875,-15.6875 -0.047,0.0528 0.05,-0.0275 0.0625,-0.0312 0.0159,-0.005 -0.0363,0.0493 0.0625,-0.0625 0.0941,-0.0785 0.19879,-0.14512 0.28125,-0.21875 0.10282,-0.0918 0.24505,-0.21627 0.34375,-0.3125 0.0987,-0.0962 0.21812,-0.24329 0.3125,-0.34375 0.0944,-0.10046 0.22261,-0.23925 0.3125,-0.34375 9.37002,-11.19194 13.65616,-26.27592 13.65625,-43.96875 -10e-6,-1.96658 -0.21775,-3.76677 -0.375,-5.59375 0.93213,0.53524 1.88148,0.97176 2.8125,1.25 l -6.40625,48.6875 c -0.0111,0.0772 -0.002,0.0728 0,0.0937 7.6e-4,0.007 -2.3e-4,0.0269 0,0.0312 -0.31685,2.33146 -0.19996,5.87325 2.1875,9.15625 2.36702,3.25487 6.03695,4.58655 8.59375,4.90625 a 0.53574054,0.53574054 0 0 0 0.1875,0.0625 c 0.0398,0.004 0.0466,3.3e-4 0.0625,0 0.0159,-3.3e-4 0.0565,2.3e-4 0.0625,0 l 25.53125,2.8125 a 0.53574054,0.53574054 0 0 0 0.0625,0 c 0.0208,0.002 0.0417,-0.002 0.0625,0 3.01632,0.29253 6.08802,-0.86883 8.15625,-2.25 0.007,-0.005 0.0241,0.005 0.0312,0 a 0.53574054,0.53574054 0 0 0 0.3125,-0.0937 c 0.16877,-0.11941 0.23305,-0.2057 0.25,-0.21875 -0.036,0.0273 0.009,-0.006 0.0625,-0.0312 0.0538,-0.0256 0.13384,-0.0619 0.25,-0.15625 a 0.53574054,0.53574054 0 0 0 0.15625,-0.25 0.53574054,0.53574054 0 0 0 0.0312,-0.0937 c 2.22586,-1.97047 4.16216,-5.19316 4.46875,-8.15625 a 0.53574054,0.53574054 0 0 0 0,-0.0625 c 6e-5,-0.0197 6e-5,-0.0428 0,-0.0625 l 4.28125,-44.125 4.625,0.75 c 0.059,0.0104 0.12827,0.022 0.1875,0.0312 a 0.53574054,0.53574054 0 0 0 0.0312,0 c 2.43396,0.35475 6.27382,0.15844 9.53125,-2.375 3.10847,-2.41759 4.23994,-5.87466 4.5625,-8.3125 a 0.53574054,0.53574054 0 0 0 0.0312,-0.0312 0.53574054,0.53574054 0 0 0 0.0625,-0.1875 l 2.46875,-20.78125 a 0.53574054,0.53574054 0 0 0 -0.0625,-0.28125 0.53574054,0.53574054 0 0 0 0,-0.0312 c 0.24333,-2.30582 0.0254,-5.61224 -2.15625,-8.5625 -2.23691,-3.02493 -5.44241,-4.2379 -7.71875,-4.65625 a 0.53574054,0.53574054 0 0 0 -0.0625,-0.0312 0.53574054,0.53574054 0 0 0 -0.1875,-0.0937 l -7.46875,-1.25 c 0.20587,-1.45958 0.36186,-2.78078 0.625,-4.34375 a 0.53574054,0.53574054 0 0 0 0,-0.0625 0.53574054,0.53574054 0 0 0 0,-0.0937 c 0.18413,-0.99684 0.3652,-1.59661 0.5,-1.8125 0.1462,-0.23415 0.29929,-0.27285 0.75,-0.53125 0.66707,-0.38244 3.25283,-1.21607 8.0625,-0.71875 0.43591,0.0451 1.82091,0.26489 3.625,0.5625 a 0.53574054,0.53574054 0 0 0 0.0312,0 0.53574054,0.53574054 0 0 0 0.0312,0 c 0.0249,0.004 0.0378,-0.004 0.0625,0 1.9397,0.31588 3.42188,0.54384 4.8125,0.6875 2.61558,0.27068 6.71244,-0.40271 9.59375,-3.09375 2.84689,-2.65889 3.62022,-5.87099 3.84375,-8.03125 l 2.59375,-25.15625 c 0.22566,-2.18471 -0.53593,-4.72423 -1.78125,-7 -1.18047,-2.15725 -2.81816,-4.03914 -4.59375,-5.125 a 0.53574054,0.53574054 0 0 0 -0.0312,-0.0625 c -0.0119,-0.007 -0.0193,-0.0241 -0.0312,-0.0312 a 0.53574054,0.53574054 0 0 0 -0.1875,-0.15625 c -0.0869,-0.0466 -0.14852,-0.0732 -0.1875,-0.0937 0.0898,0.0465 0.0651,0.0166 -0.0937,-0.0625 a 0.53574054,0.53574054 0 0 0 -0.21875,-0.0625 c -5.04712,-2.59164 -10.58011,-3.67875 -17.3125,-4.375 -3.06209,-0.31661 -6.13626,-0.463 -9.1875,-0.34375 z M 245,241.03125 c -1.37692,1.85229 -3.28814,4.09037 -5.59375,6.5625 L 238.34375,242 c 3.09159,-0.54282 5.21356,-0.82745 6.65625,-0.96875 z M 252.15625,282.5 c 0.7271,0.73455 1.45675,1.43633 2.28125,2.65625 0.004,0.006 -0.004,0.0247 0,0.0312 0.0174,0.0263 0.0466,0.0702 0.0625,0.0937 3.11641,4.53311 4.73319,7.91188 4.9375,8.375 0.001,0.003 0.0299,0.0283 0.0312,0.0312 l 0.125,0.75 0,0.0937 c -0.0301,1.37667 -0.16477,2.193 -0.6875,2.9375 -0.53675,0.76446 -1.5637,1.52821 -3.46875,2.59375 -2.02398,1.13206 -4.06145,2.00383 -6.09375,2.875 l -2.71875,-16 c 1.71706,-1.32487 3.58834,-2.82851 5.53125,-4.4375 z"
           id="path7306"
           style="font-size:162.44822693px;font-style:normal;font-variant:normal;font-weight:100;font-stretch:normal;text-indent:0;text-align:start;text-decoration:none;line-height:125%;letter-spacing:0px;word-spacing:0px;text-transform:none;direction:ltr;block-progression:tb;writing-mode:lr-tb;text-anchor:start;baseline-shift:baseline;color:#000000;fill:#000000;fill-opacity:1;fill-rule:nonzero;stroke:none;stroke-width:1;marker:none;visibility:visible;display:inline;overflow:visible;filter:url(#filter7070);enable-background:accumulate;font-family:MgHoboFun;-inkscape-font-specification:MgHoboFun Thin"
           inkscape:original="M 532.71875 190.78125 C 523.80611 191.1296 515.35147 193.60969 508.03125 198.125 C 508.01602 198.14113 507.98757 198.14475 507.96875 198.15625 C 497.7804 204.38029 490.5405 214.32021 486.90625 226.3125 L 486.875 226.3125 C 486.86944 226.3306 486.88054 226.35686 486.875 226.375 C 485.46699 230.98176 484.71052 237.28294 484.125 244.71875 C 481.78452 244.54957 478.7247 244.83511 475.9375 246.9375 C 472.78468 249.31568 471.53696 252.96458 471.28125 255.4375 C 471.11972 256.99954 471.08344 259.01958 471.0625 261.09375 C 469.04485 256.56999 466.49885 252.42983 463.3125 248.78125 C 463.30262 248.76982 463.29114 248.76142 463.28125 248.75 C 454.60462 238.72714 443.10974 232.87513 430.8125 232.875 L 429.03125 232.875 C 416.48226 232.87513 404.77825 238.68234 396.0625 248.75 C 396.05261 248.76142 396.04113 248.76982 396.03125 248.78125 C 391.44519 254.03252 388.12812 260.27014 385.9375 267.28125 C 383.74691 260.26757 380.39993 254.0341 375.8125 248.78125 C 375.80262 248.76982 375.79114 248.76142 375.78125 248.75 C 367.0655 238.68234 355.36149 232.87513 342.8125 232.875 L 341.03125 232.875 C 328.73401 232.87513 317.23913 238.72714 308.5625 248.75 C 308.55261 248.76142 308.54113 248.76982 308.53125 248.78125 C 302.36853 255.83797 298.60783 264.74836 296.71875 274.875 C 296.12717 274.06493 295.55827 273.24184 294.90625 272.46875 C 291.30229 265.66142 286.69168 259.95276 280.875 255.875 C 280.84453 255.8527 280.81179 255.83469 280.78125 255.8125 C 280.73866 255.78283 280.69897 255.74825 280.65625 255.71875 C 279.40484 254.81866 278.07524 254.06139 276.71875 253.34375 C 283.80323 243.88013 288.06238 235.45627 288.0625 226.1875 C 288.06219 221.45011 286.62041 218.69315 284.90625 215.15625 C 284.85876 215.05826 284.82918 214.97429 284.78125 214.875 L 284.75 214.875 C 281.99438 208.97216 276.89103 205.01552 271.03125 202.1875 C 270.96919 202.15647 270.90598 202.12443 270.84375 202.09375 C 264.30118 198.86849 256.78896 197.56273 248.53125 197.5625 C 239.23802 197.56273 228.53161 199.18173 216.03125 202.21875 L 216.03125 202.1875 C 216.00944 202.19261 215.99056 202.21364 215.96875 202.21875 C 203.7348 205.08614 191.19715 208.48276 178.34375 212.4375 A 9.9684765 9.9684765 0 0 0 171.9375 225.46875 L 181.6875 251.46875 A 9.9684765 9.9684765 0 0 0 194.21875 257.40625 L 217.09375 347.25 A 9.9684765 9.9684765 0 0 0 229.46875 354.375 L 247.6875 349.1875 A 9.9684765 9.9684765 0 0 0 247.75 349.15625 C 266.4498 343.71633 280.50668 337.23255 290.125 328.15625 C 293.88901 324.60425 296.90979 320.70414 299.34375 316.625 C 301.55451 322.99331 304.61671 328.75053 308.75 333.6875 A 9.9684765 9.9684765 0 0 0 310.1875 335.0625 C 318.81432 344.73361 330.04891 350.5 342.1875 350.5 C 354.8554 350.5 366.64922 344.36078 375.53125 333.875 A 9.9684765 9.9684765 0 0 0 375.59375 333.84375 C 380.30846 328.21229 383.71354 321.55382 385.9375 314.0625 C 388.16151 321.55135 391.53655 328.21381 396.25 333.84375 A 9.9684765 9.9684765 0 0 0 396.3125 333.875 C 405.19453 344.36078 416.98835 350.5 429.65625 350.5 C 441.82288 350.5 453.08448 344.71217 461.71875 335 C 461.75357 334.96084 461.80902 334.94554 461.84375 334.90625 A 9.9684765 9.9684765 0 0 0 463.09375 333.6875 C 472.36332 322.61554 476.62491 307.66889 476.625 290.0625 C 476.62499 287.7996 476.34491 285.70051 476.1875 283.53125 C 477.47712 284.43526 478.86445 284.99193 480.1875 285.34375 L 473.71875 334.46875 C 473.71506 334.49437 473.72233 334.53655 473.71875 334.5625 C 473.4095 336.80338 473.51891 340.22109 475.8125 343.375 C 478.11477 346.54084 481.78528 347.82786 484.21875 348.09375 L 484.21875 348.125 C 484.23523 348.12679 484.26489 348.12331 484.28125 348.125 L 509.875 350.9375 A 9.9684765 9.9684765 0 0 0 509.9375 350.9375 C 512.91526 351.24613 516.0846 350.02052 518.0625 348.625 L 518.125 348.6875 C 518.20921 348.62792 518.29117 348.53328 518.375 348.46875 C 518.44981 348.41205 518.58603 348.36955 518.65625 348.3125 L 518.59375 348.25 C 520.80874 346.41799 522.82691 343.03718 523.125 340.15625 A 9.9684765 9.9684765 0 0 0 523.125 340.09375 L 527.46875 295.34375 L 532.65625 296.1875 A 9.9684765 9.9684765 0 0 0 532.84375 296.21875 C 535.16713 296.55738 538.86229 296.35352 541.96875 293.9375 C 545.0176 291.56628 546.1367 288.11911 546.40625 285.78125 L 546.4375 285.78125 L 548.90625 265 L 548.84375 265 C 549.12622 262.78685 548.94636 259.42783 546.78125 256.5 C 544.57665 253.51877 541.34293 252.36017 539.15625 252 L 539.15625 251.9375 L 531.1875 250.59375 C 531.43779 248.92164 531.57648 247.49189 531.875 245.71875 L 531.84375 245.71875 C 532.25856 243.32631 532.51636 243.33602 533.375 242.84375 C 534.2394 242.34818 536.89494 241.55726 541.78125 242.0625 C 542.26969 242.11307 543.63139 242.32706 545.4375 242.625 A 9.9684765 9.9684765 0 0 0 545.46875 242.625 C 547.4599 242.9502 548.94272 243.16776 550.34375 243.3125 C 552.80392 243.5671 556.77364 242.89007 559.5 240.34375 C 562.22636 237.79743 562.97144 234.74427 563.1875 232.65625 L 565.78125 207.5 C 566.19754 203.46963 562.91287 197.62948 559.40625 195.6875 L 559.4375 195.65625 C 559.3757 195.62307 559.31195 195.59519 559.25 195.5625 C 559.21974 195.54682 559.18653 195.51508 559.15625 195.5 L 559.15625 195.53125 C 554.14224 192.90663 548.61326 191.82832 541.8125 191.125 C 538.76961 190.81038 535.73865 190.66322 532.71875 190.78125 z M 246.1875 240.3125 C 246.13505 240.38979 246.14853 240.42131 246.09375 240.5 C 244.55798 242.70594 242.04372 245.59717 239.0625 248.75 L 237.71875 241.5625 C 241.76547 240.84094 244.75508 240.3865 246.1875 240.3125 z M 252.21875 281.78125 C 253.05954 282.63983 253.89217 283.41572 254.875 284.875 A 9.9684765 9.9684765 0 0 0 254.9375 284.96875 C 258.09642 289.5637 259.74424 292.95387 259.96875 293.46875 L 260.125 294.4375 C 260.07383 297.38981 259.54001 298.37646 255.6875 300.53125 C 253.42739 301.79538 251.19317 302.79497 248.9375 303.75 L 246.03125 286.71875 C 247.93881 285.25002 250.0328 283.60419 252.21875 281.78125 z "
           inkscape:radius="0.53568697"
           sodipodi:type="inkscape:offset" />
        <path
           sodipodi:type="inkscape:offset"
           inkscape:radius="9.9674797"
           inkscape:original="M 533.09375 200.75 C 525.68763 201.03947 519.06293 203.00827 513.21875 206.625 C 505.06789 211.5827 499.46439 219.11409 496.40625 229.25 C 495.02112 233.7587 494.00554 242.6956 493.3125 256.0625 L 483.71875 254.5625 C 482.19041 254.3471 481.34026 254.99145 481.1875 256.46875 C 480.9407 258.85535 480.95978 264.62315 481.21875 273.78125 C 481.26585 274.99225 481.75863 275.68715 482.71875 275.84375 L 491.3125 277.0625 L 483.59375 335.875 C 483.39006 337.2897 483.94875 338.07765 485.3125 338.21875 L 510.96875 341.03125 C 511.48011 341.08425 511.93607 340.9191 512.375 340.5625 C 512.87067 340.2118 513.15407 339.7501 513.21875 339.125 L 518.59375 283.75 L 534.28125 286.34375 C 535.63905 286.54165 536.39017 285.95755 536.53125 284.59375 L 539 263.8125 C 539.18018 262.6252 538.68732 261.96155 537.5 261.78125 L 519.96875 258.84375 C 520.43876 254.29805 521.13794 249.3686 522.03125 244.0625 C 523.614 234.8651 530.53879 230.88715 542.8125 232.15625 C 543.77841 232.25625 545.19903 232.47385 547.0625 232.78125 C 548.98262 233.09485 550.40894 233.30645 551.375 233.40625 C 552.51137 233.52385 553.14601 232.932 553.28125 231.625 L 555.875 206.46875 C 555.9689 205.55965 555.59257 204.8726 554.71875 204.4375 C 551.67175 202.8017 547.03165 201.67765 540.78125 201.03125 C 538.13899 200.75805 535.56246 200.65351 533.09375 200.75 z M 248.53125 207.53125 C 240.40878 207.53145 230.33362 208.98235 218.3125 211.90625 C 206.29131 214.72215 193.9522 218.07015 181.28125 221.96875 L 191.03125 247.96875 C 193.9553 243.85355 196.76126 241.8126 199.46875 241.8125 C 200.01022 241.8126 200.45634 242.13155 200.78125 242.78125 L 226.75 344.78125 L 244.96875 339.59375 C 262.83797 334.39545 275.59194 328.16225 283.28125 320.90625 C 290.97036 313.65025 294.81239 306.23715 294.8125 298.65625 C 294.81239 290.85875 292.05438 283.9398 286.53125 277.875 C 283.39048 271.702 279.54845 267.04695 275 263.90625 C 270.55966 260.65735 265.31465 259.03135 259.25 259.03125 C 271.81258 244.62765 278.09365 233.66021 278.09375 226.1875 C 278.09365 224.6714 277.32859 222.35955 275.8125 219.21875 C 274.40453 216.07825 271.32756 213.36815 266.5625 211.09375 C 261.79728 208.71125 255.7872 207.53145 248.53125 207.53125 z M 247.0625 230.25 C 249.7699 230.2501 252.38406 230.6003 254.875 231.25 C 257.3658 231.7916 258.59367 233.3384 258.59375 235.9375 C 258.59367 241.3525 252.8546 249.60985 241.375 260.65625 L 232.59375 268.75 L 226.125 233.6875 C 236.19674 231.4133 243.16368 230.2501 247.0625 230.25 z M 341.03125 242.84375 C 331.54015 242.84385 323.35697 246.872 316.0625 255.3125 C 308.86781 263.5352 305.18758 275.0128 305.1875 290.0625 C 305.18758 306.0979 308.97868 318.40945 316.40625 327.28125 L 316.4375 327.28125 C 323.8421 336.25015 332.27363 340.53125 342.1875 340.53125 C 351.99393 340.53125 360.42336 336.3084 367.9375 327.4375 C 375.36272 318.5685 379.15625 306.2083 379.15625 290.0625 C 379.15625 275.0128 375.47602 263.5352 368.28125 255.3125 C 360.9961 246.8827 352.64673 242.84385 342.8125 242.84375 L 341.03125 242.84375 z M 429.03125 242.84375 C 419.19702 242.84385 410.84765 246.8827 403.5625 255.3125 C 396.36773 263.5352 392.6875 275.0128 392.6875 290.0625 C 392.6875 306.2083 396.48103 318.5685 403.90625 327.4375 C 411.42039 336.3084 419.84982 340.53125 429.65625 340.53125 C 439.57012 340.53125 448.00165 336.25015 455.40625 327.28125 L 455.4375 327.28125 C 462.86507 318.40945 466.65617 306.0979 466.65625 290.0625 C 466.65617 275.0128 462.97594 263.5352 455.78125 255.3125 C 448.48678 246.872 440.3036 242.84385 430.8125 242.84375 L 429.03125 242.84375 z M 251.4375 269.40625 C 255.66108 270.70595 259.58231 274.006 263.15625 279.3125 C 266.73003 284.5109 268.89807 288.35285 269.65625 290.84375 L 270.125 293.9375 C 270.12492 300.5437 266.95204 305.64495 260.5625 309.21875 C 254.1728 312.79265 247.66866 315.32755 241.0625 316.84375 L 235.21875 282.40625 C 239.33404 279.59045 244.72291 275.25445 251.4375 269.40625 z "
           style="font-size:162.44822693px;font-style:normal;font-variant:normal;font-weight:100;font-stretch:normal;text-indent:0;text-align:start;text-decoration:none;line-height:125%;letter-spacing:0px;word-spacing:0px;text-transform:none;direction:ltr;block-progression:tb;writing-mode:lr-tb;text-anchor:start;baseline-shift:baseline;color:#000000;fill:#ffdc00;fill-opacity:1;fill-rule:nonzero;stroke:none;stroke-width:1;marker:none;visibility:visible;display:inline;overflow:visible;enable-background:accumulate;font-family:MgHoboFun;-inkscape-font-specification:MgHoboFun Thin"
           id="path7045"
           d="m 532.71875,190.78125 c -8.91264,0.34835 -17.36728,2.82844 -24.6875,7.34375 l 0,-0.0312 c -0.0251,0.0153 -0.0374,0.0472 -0.0625,0.0625 -10.18835,6.22404 -17.42825,16.16396 -21.0625,28.15625 l -0.0312,0 c -0.006,0.0181 0.006,0.0444 0,0.0625 -1.40801,4.60676 -2.16448,10.90794 -2.75,18.34375 -2.34048,-0.16918 -5.4003,0.11636 -8.1875,2.21875 -3.15282,2.37818 -4.40054,6.02708 -4.65625,8.5 -0.16153,1.56204 -0.19781,3.58208 -0.21875,5.65625 -2.01765,-4.52376 -4.56365,-8.66392 -7.75,-12.3125 -0.01,-0.0114 -0.0214,-0.0198 -0.0312,-0.0312 -8.67663,-10.02286 -20.17151,-15.87487 -32.46875,-15.875 l -1.78125,0 c -12.54899,1.3e-4 -24.253,5.80734 -32.96875,15.875 -0.01,0.0114 -0.0214,0.0198 -0.0312,0.0312 -4.58606,5.25127 -7.90313,11.48889 -10.09375,18.5 -2.19059,-7.01368 -5.53757,-13.24715 -10.125,-18.5 -0.01,-0.0114 -0.0214,-0.0198 -0.0312,-0.0312 -8.71575,-10.06766 -20.41976,-15.87487 -32.96875,-15.875 l -1.78125,0 c -12.29724,1.3e-4 -23.79212,5.85214 -32.46875,15.875 -0.01,0.0114 -0.0214,0.0198 -0.0312,0.0312 -6.16272,7.05672 -9.92342,15.96711 -11.8125,26.09375 -0.59158,-0.81007 -1.16048,-1.63316 -1.8125,-2.40625 -3.60396,-6.80733 -8.21457,-12.51599 -14.03125,-16.59375 -0.0305,-0.0223 -0.0632,-0.0403 -0.0937,-0.0625 -0.0426,-0.0297 -0.0823,-0.0642 -0.125,-0.0937 -1.25141,-0.90009 -2.58101,-1.65736 -3.9375,-2.375 7.08448,-9.46362 11.34363,-17.88748 11.34375,-27.15625 -3.1e-4,-4.73739 -1.44209,-7.49435 -3.15625,-11.03125 -0.0475,-0.098 -0.0771,-0.18196 -0.125,-0.28125 l -0.0312,0 c -2.75562,-5.90284 -7.85897,-9.85948 -13.71875,-12.6875 -0.0621,-0.031 -0.12527,-0.0631 -0.1875,-0.0937 -6.54257,-3.22526 -14.05479,-4.53102 -22.3125,-4.53125 -9.29323,2.3e-4 -19.99964,1.61923 -32.5,4.65625 l 0,-0.0312 c -0.0218,0.005 -0.0407,0.0261 -0.0625,0.0312 -12.23395,2.86739 -24.7716,6.26401 -37.625,10.21875 a 9.9684765,9.9684765 0 0 0 -6.40625,13.03125 l 9.75,26 a 9.9684765,9.9684765 0 0 0 12.53125,5.9375 l 22.875,89.84375 a 9.9684765,9.9684765 0 0 0 12.375,7.125 l 18.21875,-5.1875 a 9.9684765,9.9684765 0 0 0 0.0625,-0.0312 c 18.6998,-5.43992 32.75668,-11.9237 42.375,-21 3.76401,-3.552 6.78479,-7.45211 9.21875,-11.53125 2.21076,6.36831 5.27296,12.12553 9.40625,17.0625 a 9.9684765,9.9684765 0 0 0 1.4375,1.375 c 8.62682,9.67111 19.86141,15.4375 32,15.4375 12.6679,0 24.46172,-6.13922 33.34375,-16.625 a 9.9684765,9.9684765 0 0 0 0.0625,-0.0312 c 4.71471,-5.63146 8.11979,-12.28993 10.34375,-19.78125 2.22401,7.48885 5.59905,14.15131 10.3125,19.78125 a 9.9684765,9.9684765 0 0 0 0.0625,0.0312 c 8.88203,10.48578 20.67585,16.625 33.34375,16.625 12.16663,0 23.42823,-5.78783 32.0625,-15.5 0.0348,-0.0392 0.0903,-0.0545 0.125,-0.0937 a 9.9684765,9.9684765 0 0 0 1.25,-1.21875 c 9.26957,-11.07196 13.53116,-26.01861 13.53125,-43.625 -10e-6,-2.2629 -0.28009,-4.36199 -0.4375,-6.53125 1.28962,0.90401 2.67695,1.46068 4,1.8125 l -6.46875,49.125 c -0.004,0.0256 0.004,0.0678 0,0.0937 -0.30925,2.24088 -0.19984,5.65859 2.09375,8.8125 2.30227,3.16584 5.97278,4.45286 8.40625,4.71875 l 0,0.0312 c 0.0165,0.002 0.0461,-0.002 0.0625,0 l 25.59375,2.8125 a 9.9684765,9.9684765 0 0 0 0.0625,0 c 2.97776,0.30863 6.1471,-0.91698 8.125,-2.3125 l 0.0625,0.0625 c 0.0842,-0.0596 0.16617,-0.15422 0.25,-0.21875 0.0748,-0.0567 0.21103,-0.0992 0.28125,-0.15625 l -0.0625,-0.0625 c 2.21499,-1.83201 4.23316,-5.21282 4.53125,-8.09375 a 9.9684765,9.9684765 0 0 0 0,-0.0625 l 4.34375,-44.75 5.1875,0.84375 a 9.9684765,9.9684765 0 0 0 0.1875,0.0312 c 2.32338,0.33863 6.01854,0.13477 9.125,-2.28125 3.04885,-2.37122 4.16795,-5.81839 4.4375,-8.15625 l 0.0312,0 2.46875,-20.78125 -0.0625,0 c 0.28247,-2.21315 0.10261,-5.57217 -2.0625,-8.5 -2.2046,-2.98123 -5.43832,-4.13983 -7.625,-4.5 l 0,-0.0625 -7.96875,-1.34375 c 0.25029,-1.67211 0.38898,-3.10186 0.6875,-4.875 l -0.0312,0 c 0.41481,-2.39244 0.67261,-2.38273 1.53125,-2.875 0.8644,-0.49557 3.51994,-1.28649 8.40625,-0.78125 0.48844,0.0506 1.85014,0.26456 3.65625,0.5625 a 9.9684765,9.9684765 0 0 0 0.0312,0 c 1.99115,0.3252 3.47397,0.54276 4.875,0.6875 2.46017,0.2546 6.42989,-0.42243 9.15625,-2.96875 2.72636,-2.54632 3.47144,-5.59948 3.6875,-7.6875 L 565.78125,207.5 c 0.41629,-4.03037 -2.86838,-9.87052 -6.375,-11.8125 l 0.0312,-0.0312 c -0.0618,-0.0332 -0.12555,-0.0611 -0.1875,-0.0937 -0.0303,-0.0157 -0.0635,-0.0474 -0.0937,-0.0625 l 0,0.0312 c -5.01401,-2.62462 -10.54299,-3.70293 -17.34375,-4.40625 -3.04289,-0.31462 -6.07385,-0.46178 -9.09375,-0.34375 z M 246.1875,240.3125 c -0.0524,0.0773 -0.039,0.10881 -0.0937,0.1875 -1.53577,2.20594 -4.05003,5.09717 -7.03125,8.25 l -1.34375,-7.1875 c 4.04672,-0.72156 7.03633,-1.176 8.46875,-1.25 z m 6.03125,41.46875 c 0.84079,0.85858 1.67342,1.63447 2.65625,3.09375 a 9.9684765,9.9684765 0 0 0 0.0625,0.0937 c 3.15892,4.59495 4.80674,7.98512 5.03125,8.5 l 0.15625,0.96875 c -0.0512,2.95231 -0.58499,3.93896 -4.4375,6.09375 -2.26011,1.26413 -4.49433,2.26372 -6.75,3.21875 l -2.90625,-17.03125 c 1.90756,-1.46873 4.00155,-3.11456 6.1875,-4.9375 z" />
        <path
           id="path3898"
           style="font-size:162.44822693px;font-style:normal;font-variant:normal;font-weight:100;font-stretch:normal;text-indent:0;text-align:start;text-decoration:none;line-height:125%;letter-spacing:0px;word-spacing:0px;text-transform:none;direction:ltr;block-progression:tb;writing-mode:lr-tb;text-anchor:start;baseline-shift:baseline;color:#000000;fill:#ffffff;fill-opacity:1;fill-rule:nonzero;stroke:none;stroke-width:1;marker:none;visibility:visible;display:inline;overflow:visible;enable-background:accumulate;font-family:MgHoboFun;-inkscape-font-specification:MgHoboFun Thin"
           d="m 430.8241,242.84162 -1.78125,0 c -9.83423,1e-4 -18.1836,4.0389 -25.46875,12.4687 -7.19477,8.2227 -10.875,19.7003 -10.875,34.75 0,16.1458 3.79353,28.506 11.21875,37.375 7.51414,8.8709 15.94357,13.0938 25.75,13.0938 9.91387,0 18.3454,-4.2811 25.75,-13.25 l 0.0312,0 c 7.42757,-8.8718 11.21867,-21.1834 11.21875,-37.2188 -8e-5,-15.0497 -3.68031,-26.5273 -10.875,-34.75 -7.29447,-8.4405 -15.47765,-12.4686 -24.96875,-12.4687 z m -89.7813,0 1.78125,0 c 9.83423,1e-4 18.1836,4.0389 25.46875,12.4687 7.19477,8.2227 10.875,19.7003 10.875,34.75 0,16.1458 -3.79353,28.506 -11.21875,37.375 -7.51414,8.8709 -15.94357,13.0938 -25.75,13.0938 -9.91387,0 -18.3454,-4.2811 -25.75,-13.25 l -0.0312,0 c -7.42757,-8.8718 -11.21867,-21.1834 -11.21875,-37.2188 8e-5,-15.0497 3.68031,-26.5273 10.875,-34.75 7.29447,-8.4405 15.47765,-12.4686 24.96875,-12.4687 z m 212.2429,-11.2296 2.60003,-25.14391 c 0.0939,-0.9091 -0.29602,-1.5811 -1.16984,-2.0162 -3.047,-1.6358 -7.69568,-2.777 -13.94608,-3.4234 -10.56903,-1.0928 -19.74964,0.7719 -27.54188,5.5942 -8.15086,4.9577 -13.75537,12.5045 -16.81351,22.64041 -1.38513,4.5087 -2.42421,13.4465 -3.11725,26.8134 l -9.57852,-1.5074 c -1.52834,-0.2154 -2.36889,0.4156 -2.52165,1.8929 -0.2468,2.3866 -0.24067,8.1589 0.0183,17.317 0.0471,1.211 0.55066,1.8948 1.51078,2.0514 l 8.57335,1.2312 -7.7185,58.8142 c -0.20369,1.4147 0.37627,2.1925 1.74002,2.3336 l 25.63771,2.8233 c 0.51136,0.053 0.9865,-0.099 1.42543,-0.4556 0.49567,-0.3507 0.77584,-0.8386 0.84052,-1.4637 l 5.37914,-55.3519 15.67127,2.5681 c 1.3578,0.1979 2.10725,-0.385 2.24833,-1.7488 l 2.49147,-20.7618 c 0.18018,-1.1873 -0.32345,-1.8711 -1.51077,-2.0514 l -17.52879,-2.9325 c 0.47001,-4.5457 1.15167,-9.4716 2.04498,-14.7777 1.58275,-9.1974 8.51096,-13.1615 20.78467,-11.8924 0.96591,0.1 2.38059,0.3037 4.24406,0.6111 1.92012,0.3136 3.36322,0.5202 4.32928,0.62 1.13637,0.1176 1.77216,-0.4771 1.9074,-1.7841 m -327.17464,2.0634 c 10.07174,-2.2742 17.05701,-3.4113 20.95583,-3.4114 2.7074,1e-4 5.30657,0.325 7.79751,0.9747 2.4908,0.5416 3.73623,2.1119 3.73631,4.711 -8e-5,5.415 -5.73991,13.6457 -17.21951,24.6921 l -8.77221,8.1224 -6.49793,-35.0888 m 43.53613,57.1818 0.48734,3.0865 c -8e-5,6.6062 -3.1949,11.6963 -9.58444,15.2701 -6.3897,3.5739 -12.88763,6.1189 -19.49379,7.6351 l -5.84813,-34.439 c 4.11529,-2.8158 9.53023,-7.1477 16.24482,-12.9959 4.22358,1.2997 8.12233,4.6028 11.69627,9.9093 3.57378,5.1984 5.73975,9.043 6.49793,11.5339 m -24.69213,48.7344 c 17.86922,-5.1983 30.64847,-11.4255 38.33778,-18.6815 7.68911,-7.256 11.53371,-14.6745 11.53382,-22.2554 -1.1e-4,-7.7975 -2.76172,-14.7286 -8.28485,-20.7934 -3.14077,-6.173 -6.98538,-10.8298 -11.53383,-13.9705 -4.44034,-3.2489 -9.69283,-4.8734 -15.75748,-4.8735 12.56258,-14.4036 18.8439,-25.3418 18.844,-32.81451 -10e-5,-1.5161 -0.75819,-3.8445 -2.27428,-6.9853 -1.40797,-3.1405 -4.49449,-5.848 -9.25955,-8.1224 -4.76522,-2.3825 -10.7758,-3.5737 -18.03175,-3.5739 -8.12247,2e-4 -18.19425,1.4622 -30.21537,4.3861 -12.02119,2.8159 -24.36725,6.1732 -37.0382,10.0718 l 9.7469,22.77759 c 2.65621,-1.70461 5.73982,-2.95878 8.44731,-2.95888 0.54147,1e-4 0.97467,0.325 1.29958,0.9747 l 25.99172,102.0175 18.1942,-5.1984"
           inkscape:connector-curvature="0"
           inkscape:export-filename="C:\Documents and Settings\deyal\Επιφάνεια εργασίας\boofLogo3.png"
           inkscape:export-xdpi="99"
           inkscape:export-ydpi="99"
           sodipodi:nodetypes="cccscscccccccccscsccccccccccccccsccccccccccccccccccccccccccccsccccccsccccccccccccccc" />
        <path
           inkscape:connector-curvature="0"
           d="m 361.46169,293.14953 c -4.42196,-1.60059 -9.12225,-0.84173 -13.62053,2.04637 -0.01,0.008 -0.0209,0.008 -0.0312,0.0146 -4.64191,2.84872 -8.12724,7.79529 -10.59172,14.62261 -2.69103,7.45519 -3.40832,13.95869 -1.90187,19.48618 l 0.0146,0.0312 c 1.51901,5.37518 4.73418,9.15871 9.40608,10.84977 8.93025,-0.63173 15.38703,-5.4946 20.06816,-9.75881 2.03202,-2.87665 2.89829,-4.82314 4.41497,-9.02488 2.5232,-6.99014 3.0523,-13.04855 1.33442,-18.12957 -1.64202,-5.03308 -4.74098,-8.56247 -9.09288,-10.13771 z"
           style="font-size:162.44822693px;font-style:normal;font-variant:normal;font-weight:100;font-stretch:normal;text-indent:0;text-align:start;text-decoration:none;line-height:125%;letter-spacing:0px;word-spacing:0px;text-transform:none;direction:ltr;block-progression:tb;writing-mode:lr-tb;text-anchor:start;baseline-shift:baseline;color:#000000;fill:#000000;fill-opacity:1;fill-rule:nonzero;stroke:#000000;stroke-width:1;stroke-miterlimit:4;stroke-dasharray:none;marker:none;visibility:visible;display:inline;overflow:visible;enable-background:accumulate;font-family:MgHoboFun;-inkscape-font-specification:MgHoboFun Thin"
           id="path3984"
           sodipodi:nodetypes="ccccccccsccc"
           inkscape:export-filename="C:\Documents and Settings\deyal\Επιφάνεια εργασίας\boofLogo3.png"
           inkscape:export-xdpi="99"
           inkscape:export-ydpi="99" />
        <path
           inkscape:export-ydpi="99"
           inkscape:export-xdpi="99"
           inkscape:export-filename="C:\Documents and Settings\deyal\Επιφάνεια εργασίας\boofLogo3.png"
           sodipodi:nodetypes="ccccccccsccc"
           id="path3986"
           style="font-size:162.44822693px;font-style:normal;font-variant:normal;font-weight:100;font-stretch:normal;text-indent:0;text-align:start;text-decoration:none;line-height:125%;letter-spacing:0px;word-spacing:0px;text-transform:none;direction:ltr;block-progression:tb;writing-mode:lr-tb;text-anchor:start;baseline-shift:baseline;color:#000000;fill:#000000;fill-opacity:1;fill-rule:nonzero;stroke:#000000;stroke-width:1;stroke-miterlimit:4;stroke-dasharray:none;marker:none;visibility:visible;display:inline;overflow:visible;enable-background:accumulate;font-family:MgHoboFun;-inkscape-font-specification:MgHoboFun Thin"
           d="m 448.69383,293.14953 c -4.42196,-1.60059 -9.12225,-0.84173 -13.62053,2.04637 -0.01,0.008 -0.0209,0.008 -0.0312,0.0146 -4.64191,2.84872 -8.12724,7.79529 -10.59172,14.62261 -2.69103,7.45519 -3.40832,13.95869 -1.90187,19.48618 l 0.0146,0.0312 c 1.51901,5.37518 4.73418,9.15871 9.40608,10.84977 8.93025,-0.63173 15.38703,-5.4946 20.06816,-9.75881 2.03202,-2.87665 2.89829,-4.82314 4.41497,-9.02488 2.5232,-6.99014 3.0523,-13.04855 1.33442,-18.12957 -1.64202,-5.03308 -4.74098,-8.56247 -9.09288,-10.13771 z"
           inkscape:connector-curvature="0" />
        <g
           id="g4761"
           transform="matrix(0.95547366,0,0,1,-435.21824,-49.926331)"
           inkscape:export-filename="C:\Documents and Settings\deyal\Επιφάνεια εργασίας\boofLogo3.png"
           inkscape:export-xdpi="99"
           inkscape:export-ydpi="99">
          <path
             inkscape:connector-curvature="0"
             id="path4119"
             style="fill:#000000;stroke:#000000;stroke-width:1px;stroke-linecap:butt;stroke-linejoin:miter;stroke-opacity:1;filter:url(#filter4141)"
             d="m 940.60024,263.22702 c -17.98976,-11.0305 -46.95123,-13.3016 -77.14286,8.57144 19.67554,-39.11886 87.58955,-46.0211 77.14286,-8.57144 z m -160,-14.28571 c 18.27335,-8.47819 39.83483,14.07941 68.57143,22.85715 -7.72587,-30.31384 -55.59798,-43.04987 -68.57143,-22.85715 z" />
          <path
             inkscape:connector-curvature="0"
             d="m 944.60024,259.22702 c -17.98976,-11.0305 -46.95123,-13.3016 -77.14286,8.57144 19.67554,-39.11886 87.58955,-46.0211 77.14286,-8.57144 z m -160,-14.28571 c 18.27335,-8.47819 39.83483,14.07941 68.57143,22.85715 -7.72587,-30.31384 -55.59798,-43.04987 -68.57143,-22.85715 z"
             style="fill:#000000;stroke:#000000;stroke-width:1px;stroke-linecap:butt;stroke-linejoin:miter;stroke-opacity:1"
             id="path3844" />
          <path
             transform="translate(480.69333,49.722008)"
             d="m 441.5,184.90625 c -13.53175,0.0989 -30.26214,6.22482 -42.625,17.53125 12.51394,-10.4499 28.72722,-15.97828 41.75,-15.75 7.11331,0.12469 13.27014,1.91882 17.3125,5.5625 4.02109,3.62451 5.88855,9.10339 4.5625,16.40625 0.39453,0.22438 0.79448,0.42301 1.1875,0.65625 2.29328,-8.37283 0.64462,-14.48445 -3.5,-18.5 -4.17466,-4.04465 -10.87299,-5.96335 -18.6875,-5.90625 z m -115,0.65625 c -8.02849,-0.18054 -15.26785,1.95908 -20.03125,6.65625 8.12103,-5.93852 21.14123,-6.25386 33.4375,-2.03125 12.93926,4.44341 25.04427,13.84394 29.65625,26.875 0.8688,0.29486 1.77005,0.54349 2.65625,0.8125 -5.1631,-19.69837 -27.39476,-31.90044 -45.71875,-32.3125 z"
             id="path4109"
             style="font-size:medium;font-style:normal;font-variant:normal;font-weight:normal;font-stretch:normal;text-indent:0;text-align:start;text-decoration:none;line-height:normal;letter-spacing:normal;word-spacing:normal;text-transform:none;direction:ltr;block-progression:tb;writing-mode:lr-tb;text-anchor:start;baseline-shift:baseline;color:#000000;fill:url(#linearGradient7342);fill-opacity:1;fill-rule:nonzero;stroke:none;stroke-width:1px;marker:none;visibility:visible;display:inline;overflow:visible;enable-background:accumulate;font-family:Sans;-inkscape-font-specification:Sans"
             inkscape:original="M 441.5 184.28125 C 426.58239 184.39024 407.88873 191.626 395.21875 205.0625 C 395.20815 205.0728 395.1981 205.08355 395.1875 205.09375 C 395.1774 205.10455 395.16635 205.1143 395.15625 205.125 L 395.53125 205.46875 L 395.875 205.84375 C 395.8856 205.83355 395.89575 205.8227 395.90625 205.8125 C 408.61976 193.53446 426.60535 187.06675 440.625 187.3125 C 447.64066 187.43548 453.64557 189.2163 457.53125 192.71875 C 461.41693 196.2212 463.23957 201.42284 461.90625 208.625 L 461.84375 208.96875 L 462.15625 209.15625 C 462.62763 209.42555 463.10383 209.67543 463.53125 209.9375 L 464.09375 210.28125 L 464.25 209.625 C 466.64999 201.02144 464.96403 194.57891 460.625 190.375 C 456.28597 186.17109 449.41772 184.2234 441.5 184.28125 z M 326.5 184.9375 C 317.76485 184.74107 309.83596 187.22073 304.96875 192.84375 C 304.95775 192.85275 304.9484 192.8655 304.9375 192.875 C 304.9182 192.8974 304.8942 192.915 304.875 192.9375 L 305.5625 193.625 C 305.5841 193.6063 305.6033 193.5811 305.625 193.5625 C 313.35719 186.93692 326.94313 186.39403 339.71875 190.78125 C 352.53025 195.18079 364.48018 204.49311 369 217.3125 L 369.0625 217.5625 L 369.3125 217.625 C 370.28274 217.95663 371.25245 218.23609 372.21875 218.53125 L 373.09375 218.8125 L 372.875 217.9375 C 367.73019 197.75091 345.15315 185.35696 326.5 184.9375 z "
             inkscape:radius="-0.613572"
             sodipodi:type="inkscape:offset" />
        </g>
        <path
           style="font-size:162.44822693px;font-style:normal;font-variant:normal;font-weight:100;font-stretch:normal;text-indent:0;text-align:start;text-decoration:none;line-height:125%;letter-spacing:0px;word-spacing:0px;text-transform:none;direction:ltr;block-progression:tb;writing-mode:lr-tb;text-anchor:start;baseline-shift:baseline;color:#000000;fill:url(#linearGradient7344);fill-opacity:1;fill-rule:nonzero;stroke:none;stroke-width:1;marker:none;visibility:visible;display:inline;overflow:visible;enable-background:accumulate;font-family:MgHoboFun;-inkscape-font-specification:MgHoboFun Thin"
           d="m 356.38749,292.57026 c -2.78723,0.0835 -5.60573,1.04196 -8.375,2.8125 -0.0123,0.008 -0.0189,0.0233 -0.0312,0.0312 -0.009,0.005 -0.0217,-0.004 -0.0312,0 -0.64632,0.39665 -1.24301,0.85841 -1.84375,1.34375 4.43519,-2.7257 9.06213,-3.42748 13.4375,-1.84375 4.41986,1.59984 7.58744,5.20758 9.25,10.28125 0.003,0.009 -0.003,0.0219 0,0.0312 1.7305,5.14621 1.21807,11.27069 -1.3125,18.28125 -1.13781,3.15215 -1.99489,5.08277 -3.1875,7.0625 0.0965,-0.087 0.18664,-0.19518 0.28125,-0.28125 2.0211,-2.86119 2.89176,-4.77307 4.40625,-8.96875 2.5112,-6.95691 3.00635,-12.92757 1.3125,-17.9375 a 0.24955913,0.24955913 0 0 1 0,-0.0312 c -1.62393,-4.97763 -4.6617,-8.38981 -8.9375,-9.9375 -1.6317,-0.59062 -3.29111,-0.89398 -4.96875,-0.84375 z m 87.25,0 c -2.78729,0.0835 -5.63739,1.0424 -8.40625,2.8125 -0.0123,0.008 -0.019,0.0233 -0.0312,0.0312 -0.009,0.005 -0.0217,-0.004 -0.0312,0 -0.64632,0.39665 -1.24301,0.85841 -1.84375,1.34375 4.43717,-2.72596 9.09303,-3.4276 13.46875,-1.84375 4.41986,1.59984 7.58744,5.20758 9.25,10.28125 0.003,0.009 -0.003,0.0219 0,0.0312 1.73067,5.14708 1.1866,11.27131 -1.34375,18.28125 -1.13873,3.15467 -1.96379,5.08365 -3.15625,7.0625 0.0969,-0.0857 0.18716,-0.19595 0.28125,-0.28125 2.0204,-2.8602 2.86014,-4.77204 4.375,-8.96875 2.51143,-6.95753 3.0373,-12.92844 1.34375,-17.9375 a 0.24955913,0.24955913 0 0 1 0,-0.0312 c -1.62393,-4.97763 -4.6617,-8.38981 -8.9375,-9.9375 -1.6317,-0.59062 -3.29111,-0.89398 -4.96875,-0.84375 z"
           id="path4270"
           inkscape:export-filename="C:\Documents and Settings\deyal\Επιφάνεια εργασίας\boofLogo3.png"
           inkscape:export-xdpi="99"
           inkscape:export-ydpi="99"
           inkscape:connector-curvature="0" />
        <g
           id="g4711"
           inkscape:export-filename="C:\Documents and Settings\deyal\Επιφάνεια εργασίας\boofLogo3.png"
           inkscape:export-xdpi="99"
           inkscape:export-ydpi="99"
           transform="matrix(0.99565089,-0.09316278,0.09316278,0.99565089,-30.324679,52.86088)">
          <path
             transform="matrix(0.91176909,0,0,0.9145212,31.167693,29.268963)"
             style="font-size:medium;font-style:normal;font-variant:normal;font-weight:normal;font-stretch:normal;text-indent:0;text-align:start;text-decoration:none;line-height:normal;letter-spacing:normal;word-spacing:normal;text-transform:none;direction:ltr;block-progression:tb;writing-mode:lr-tb;text-anchor:start;baseline-shift:baseline;color:#000000;fill:#000000;fill-opacity:1;stroke:#000000;stroke-width:4.92802811;stroke-miterlimit:4;stroke-dasharray:none;marker:none;visibility:visible;display:inline;overflow:visible;filter:url(#filter4657);enable-background:accumulate;font-family:Sans;-inkscape-font-specification:Sans"
             d="m 320.46897,373.62558 c 45.60405,18.06795 88.95852,21.1615 131.40526,17.8601 l 0.21506,3.48491 c -6.73984,0.52419 -13.52223,0.81428 -20.32371,0.98013 10.43496,16.34931 10.28503,29.73488 5.48417,37.7894 -12.85253,21.563 -39.86878,9.06105 -50.00281,-13.6129 -3.49443,-7.81852 -1.1978,-17.94933 -0.43013,-26.13676 -22.07426,-2.68069 -44.5916,-8.07577 -67.63823,-17.2067 z m 97.4402,19.38475 -3.57927,1.0268 7.72698,27.31915 z"
             id="path4531"
             inkscape:connector-curvature="0"
             sodipodi:nodetypes="ccccssccccccc" />
          <path
             sodipodi:nodetypes="ccccssccccccc"
             inkscape:connector-curvature="0"
             id="path4503"
             d="m 327.00847,367.29939 c 41.58036,16.52353 81.10963,19.35264 119.81125,16.33344 l 0.19609,3.18703 c -6.14518,0.47938 -12.32915,0.74467 -18.53053,0.89635 9.51427,14.95179 9.37757,27.19317 5.0003,34.5592 -11.71854,19.71982 -36.35113,8.28653 -45.59102,-12.44928 -3.18611,-7.1502 -1.09212,-16.41505 -0.39218,-23.90262 -20.12663,-2.45155 -40.65724,-7.38547 -61.67045,-15.7359 z m 88.84296,19.15634 -1.47775,0.93903 3.47379,17.84108 z"
             style="font-size:medium;font-style:normal;font-variant:normal;font-weight:normal;font-stretch:normal;text-indent:0;text-align:start;text-decoration:none;line-height:normal;letter-spacing:normal;word-spacing:normal;text-transform:none;direction:ltr;block-progression:tb;writing-mode:lr-tb;text-anchor:start;baseline-shift:baseline;color:#000000;fill:#e61306;fill-opacity:1;stroke:#000000;stroke-width:4.5;stroke-linecap:round;stroke-linejoin:round;stroke-miterlimit:4;stroke-dasharray:none;marker:none;visibility:visible;display:inline;overflow:visible;enable-background:accumulate;font-family:Sans;-inkscape-font-specification:Sans" />
          <path
             inkscape:connector-curvature="0"
             id="path4691"
             d="m 389.49004,385.1895 a 2.250225,2.250225 0 0 1 0.125,0.9375 c -0.13406,1.43414 -0.29458,2.91685 -0.46875,4.40625 8.49889,0.2871 17.11737,-1.78388 24.3125,4.65625 l -1.4375,-7.375 a 2.250225,2.250225 0 0 1 0.0625,-1.09375 c -7.4846,-0.21354 -15.00914,-0.67657 -22.59375,-1.53125 z m 36.8125,1.625 c -2.75894,0.0514 -5.5103,0.148 -8.28125,0.125 l 1.25,11.65625 c 7.59572,4.59646 12.97876,11.94209 12.03125,22.75 0.0445,-0.0733 0.0808,-0.14437 0.125,-0.21875 3.82852,-6.44259 4.24166,-17.71323 -4.96875,-32.1875 a 2.250225,2.250225 0 0 1 -0.15625,-2.125 z"
             style="font-size:medium;font-style:normal;font-variant:normal;font-weight:normal;font-stretch:normal;text-indent:0;text-align:start;text-decoration:none;line-height:normal;letter-spacing:normal;word-spacing:normal;text-transform:none;direction:ltr;block-progression:tb;writing-mode:lr-tb;text-anchor:start;baseline-shift:baseline;color:#000000;fill:url(#linearGradient7346);fill-opacity:1;fill-rule:nonzero;stroke:none;stroke-width:4.5;marker:none;visibility:visible;display:inline;overflow:visible;enable-background:accumulate;font-family:Sans;-inkscape-font-specification:Sans" />
        </g>
      </g>
      <path
         inkscape:connector-curvature="0"
         id="path7224"
         d="M 167.59375,156.90116 C 161.04092,175.40919 157.5,196.2054 157.5,218.93241 c 0,118.39727 95.97773,244.33329 214.375,281.31249 98.3436,30.7158 181.21526,-9.6045 206.46875,-92 -27.3806,78.3173 -108.55383,115.9573 -204.46875,86 C 255.47773,457.2657 159.5,331.32968 159.5,212.93241 c 0,-20.30078 2.82103,-39.06626 8.09375,-56.03125 z"
         style="fill:#000000;fill-opacity:1;fill-rule:nonzero;stroke:#000000;stroke-width:0.99999994;stroke-linecap:round;stroke-linejoin:round;stroke-miterlimit:4;stroke-opacity:1;stroke-dasharray:none;stroke-dashoffset:0;filter:url(#filter7229)" />
      <path
         inkscape:export-ydpi="99"
         inkscape:export-xdpi="99"
         inkscape:export-filename="C:\Documents and Settings\deyal\Επιφάνεια εργασίας\boofLogo4.png"
         inkscape:connector-curvature="0"
         id="path3992"
         d="m 200.83741,105.91005 c -38.79464,26.67785 -62.81398,72.76648 -62.81398,131.96511 0,118.39726 96.00169,244.39088 214.39895,281.3701 69.77189,21.79198 131.70291,7.79745 170.84997,-31.58442 -38.77996,26.57384 -92.2776,33.82153 -151.3822,15.36128 C 253.49289,466.0429 157.4912,340.04928 157.4912,221.65202 c 0,-48.56138 16.12895,-88.29965 43.34621,-115.74197 z"
         style="fill:url(#linearGradient7348);fill-opacity:1;fill-rule:nonzero;stroke:none" />
    </g>
  </g>
</svg>
